<?xml version="1.0" encoding="UTF-8" standalone="no"?>
<svg
   xmlns:svg="http://www.w3.org/2000/svg"
   xmlns="http://www.w3.org/2000/svg"
   xmlns:xlink="http://www.w3.org/1999/xlink"
   xmlns:inkscape="http://www.inkscape.org/namespaces/inkscape"
   version="1.0"
   width="675"
   height="675"
   id="svg2812">
  <defs
     id="defs2814">
    <linearGradient
       id="linearGradient3746">
      <stop
         style="stop-color:#2c32a8;stop-opacity:0"
         offset="0"
         id="stop3748" />
      <stop
         style="stop-color:#1e1b61;stop-opacity:0.72548997"
         offset="0.82474685"
         id="stop3750" />
      <stop
         style="stop-color:#0b0619;stop-opacity:0.413223"
         offset="1"
         id="stop3752" />
    </linearGradient>
    <linearGradient
       id="linearGradient4282">
      <stop
         style="stop-color:#bacdfe"
         offset="0"
         id="stop4284" />
      <stop
         style="stop-color:#345ec5"
         offset="0.3334538"
         id="stop4286" />
      <stop
         style="stop-color:#000000"
         offset="0.82278067"
         id="stop4288" />
      <stop
         style="stop-color:#04102c"
         offset="1"
         id="stop4290" />
    </linearGradient>
    <linearGradient
       id="linearGradient3974">
      <stop
         style="stop-color:#ff9933"
         offset="0"
         id="stop3976" />
      <stop
         style="stop-color:#ff9933"
         offset="0.92398727"
         id="stop3978" />
      <stop
         style="stop-color:#620f0f"
         offset="0.97110051"
         id="stop3980" />
      <stop
         style="stop-color:#350a00"
         offset="1"
         id="stop3982" />
    </linearGradient>
    <linearGradient
       id="linearGradient3943">
      <stop
         style="stop-color:#fff6d6"
         offset="0"
         id="stop3945" />
      <stop
         style="stop-color:#fbea04"
         offset="0.32515129"
         id="stop3952" />
      <stop
         style="stop-color:#fbcd15"
         offset="0.60128784"
         id="stop3954" />
      <stop
         style="stop-color:#bc9b0a"
         offset="0.8233574"
         id="stop3760" />
      <stop
         style="stop-color:#947a05"
         offset="0.93910897"
         id="stop3762" />
      <stop
         style="stop-color:#725f00"
         offset="1"
         id="stop3947" />
    </linearGradient>
    <linearGradient
       id="linearGradient4094">
      <stop
         style="stop-color:#80fc7e;stop-opacity:0"
         offset="0"
         id="stop4096" />
      <stop
         style="stop-color:#323791;stop-opacity:0.69918698"
         offset="1"
         id="stop4098" />
    </linearGradient>
    <linearGradient
       id="linearGradient4094-7">
      <stop
         style="stop-color:#f3ffc9;stop-opacity:0.91869903"
         offset="0"
         id="stop4096-4" />
      <stop
         style="stop-color:#ffffff;stop-opacity:0"
         offset="1"
         id="stop4098-0" />
    </linearGradient>
    <linearGradient
       id="linearGradient3473-4">
      <stop
         style="stop-color:#d6f4fb"
         offset="0"
         id="stop3475-8" />
      <stop
         style="stop-color:#94b2fd"
         offset="0.33733538"
         id="stop3481-8" />
      <stop
         style="stop-color:#444470"
         offset="0.86746705"
         id="stop3483-2" />
      <stop
         style="stop-color:#344671"
         offset="1"
         id="stop3477-4" />
    </linearGradient>
    <clipPath
       id="clipPath3957-1">
      <path
         d="M 414.28571,-116.20924 C 414.28571,49.476185 279.97113,183.79076 114.28571,183.79076 C -51.399715,183.79076 -185.71429,49.476185 -185.71429,-116.20924 C -185.71429,-281.89466 -51.399715,-416.20924 114.28571,-416.20924 C 279.97113,-416.20924 414.28571,-281.89466 414.28571,-116.20924 L 414.28571,-116.20924 z "
         transform="matrix(0.5954,0,0,0.943308,2355.01,735.995)"
         style="fill:url(#radialGradient3961) rgb(0, 0, 0)"
         id="path3959-1" />
    </clipPath>
    <filter
       id="filter3943-5"
       x="-0.74333668"
       width="2.4866734"
       y="-0.74333668"
       height="2.4866734"
       color-interpolation-filters="sRGB">
      <feGaussianBlur
         inkscape:collect="always"
         stdDeviation="33.62542"
         id="feGaussianBlur3945-2" />
    </filter>
    <mask
       id="mask4241">
      <g
         transform="translate(-31.4286,-3.79075)"
         style="fill:#ffffff"
         id="g4243">
        <path
           d="M 414.28571,-116.20924 C 414.28571,49.476181 279.97114,183.79076 114.28571,183.79076 C -51.399712,183.79076 -185.71429,49.476181 -185.71429,-116.20924 C -185.71429,-281.89467 -51.399712,-416.20924 114.28571,-416.20924 C 279.97114,-416.20924 414.28571,-281.89467 414.28571,-116.20924 L 414.28571,-116.20924 z "
           transform="matrix(1.06545,0,0,1.06612,243.795,468.711)"
           style="fill:#ffffff"
           id="path4245" />
        <path
           d="M 338.3106,33.332595 C 340.6452,33.118495 342.9928,32.963695 345.3419,32.801295 C 342.3722,32.493795 338.9699,32.189495 336.8732,32.238795 C 337.7041,32.414395 338.1353,32.801795 338.3106,33.332595 z "
           style="fill:#ffffff"
           id="path4247" />
      </g>
    </mask>
    <filter
       color-interpolation-filters="sRGB"
       height="1.3066252"
       y="-0.15331264"
       width="1.4297516"
       x="-0.2148758"
       id="filter4308">
      <feGaussianBlur
         id="feGaussianBlur4310"
         stdDeviation="37.799152"
         inkscape:collect="always" />
    </filter>
    <radialGradient
       cx="2417.0195"
       cy="886.03845"
       r="178.61993"
       fx="2417.0195"
       fy="886.03845"
       id="radialGradient3395"
       xlink:href="#linearGradient4094-7"
       gradientUnits="userSpaceOnUse"
       gradientTransform="matrix(0.632832,4.01805e-8,0,0.620699,887.452,302.33)" />
    <radialGradient
       cx="279.10239"
       cy="467.59592"
       r="196"
       fx="273.83722"
       fy="461.11938"
       id="radialGradient3404"
       xlink:href="#linearGradient3974"
       gradientUnits="userSpaceOnUse"
       gradientTransform="matrix(1.17657,0.836593,-1.27146,1.95502,510.57026,-815.42229)" />
    <radialGradient
       cx="339.69992"
       cy="345.81622"
       r="193.53571"
       fx="357.25946"
       fy="344.56613"
       id="radialGradient3407"
       xlink:href="#linearGradient3943"
       gradientUnits="userSpaceOnUse"
       gradientTransform="matrix(1.7136,0.362132,-0.452934,3.81786,-92.023136,-1199.0763)" />
    <linearGradient
       x1="2593.4536"
       y1="719.57947"
       x2="2642.927"
       y2="287.67145"
       id="linearGradient3412"
       xlink:href="#linearGradient4094-7"
       gradientUnits="userSpaceOnUse"
       gradientTransform="matrix(1.05232,0,0,-1.00938,-2457.0488,728.14289)" />
    <radialGradient
       cx="2540.5825"
       cy="236.37978"
       r="290.58035"
       fx="2540.5825"
       fy="236.37978"
       id="radialGradient3419"
       xlink:href="#linearGradient3473-4"
       gradientUnits="userSpaceOnUse"
       gradientTransform="matrix(0.887775,1.53767,-1.65556,0.955841,-1677.1987,-3976.2363)" />
    <radialGradient
       cx="-4.6531796"
       cy="-193.89471"
       r="300"
       fx="-4.6531796"
       fy="-193.89471"
       id="radialGradient3423"
       xlink:href="#linearGradient3746"
       gradientUnits="userSpaceOnUse"
       gradientTransform="matrix(1.0398771,0.331316,-0.4656304,1.461448,57.62615,505.44419)" />
    <radialGradient
       cx="-15.766444"
       cy="-286.37698"
       r="300"
       fx="-15.766444"
       fy="-286.37698"
       id="radialGradient3426"
       xlink:href="#linearGradient4282"
       gradientUnits="userSpaceOnUse"
       gradientTransform="matrix(0.9768205,1.6708552,-1.5926453,0.9311044,-250.95694,431.50195)" />
    <radialGradient
       cx="2531.002"
       cy="282.44876"
       r="290.58035"
       fx="2531.002"
       fy="282.44876"
       id="radialGradient6248"
       xlink:href="#linearGradient4094"
       gradientUnits="userSpaceOnUse"
       gradientTransform="matrix(1.64603,4.94919e-2,-5.74535e-2,1.91082,-4041.8883,-439.43402)" />
  </defs>
  <path
     d="M 647.93841,319.93097 C 647.93841,496.5715 504.83294,639.76697 328.30341,639.76697 C 151.77387,639.76697 8.668414,496.5715 8.668414,319.93097 C 8.668414,143.29042 151.77387,0.094965 328.30341,0.094965 C 504.83294,0.094965 647.93841,143.29042 647.93841,319.93097 L 647.93841,319.93097 z "
     style="fill:url(#radialGradient3426)"
     id="Océans" />
  <path
     d="M 647.93841,319.93097 C 647.93841,496.5715 504.83294,639.76697 328.30341,639.76697 C 151.77387,639.76697 8.668414,496.5715 8.668414,319.93097 C 8.668414,143.29042 151.77387,0.094965 328.30341,0.094965 C 504.83294,0.094965 647.93841,143.29042 647.93841,319.93097 L 647.93841,319.93097 z "
     style="fill:url(#radialGradient3423)"
     id="Ocean - noir" />
  <path
     d="M 329.74489,14.561346 C 323.64719,14.561346 317.31789,12.045546 311.27499,12.401746 L 308.81399,12.589746 C 308.81399,12.589846 299.54609,11.818146 296.39849,12.342746 C 297.16599,13.092146 296.42829,12.718546 296.44009,13.415846 C 296.51079,14.289246 295.62049,13.851746 296.70899,13.800546 C 299.97459,13.647446 300.91119,13.351346 300.12329,15.404846 C 299.71029,16.481046 297.97069,16.847446 293.48289,16.843246 C 286.91809,16.836846 279.10049,18.655246 279.10049,20.178746 C 279.10059,20.696346 280.42249,21.127446 282.03809,21.127446 C 284.81249,21.127346 284.97589,21.344746 284.97589,25.044246 C 284.97599,28.353546 285.28119,28.961146 286.99549,28.961146 C 288.11139,28.961046 290.86539,27.884646 293.11559,26.574246 C 295.36589,25.263546 299.74989,23.227746 302.84689,22.075946 C 305.94369,20.924146 308.47719,19.625846 308.47719,19.169046 C 308.47729,17.828146 313.88129,17.012546 317.87169,17.761246 L 321.54389,18.464946 L 318.42259,21.249946 C 316.70179,22.787246 314.63179,24.064946 313.83239,24.064946 C 313.03309,24.064846 312.39419,24.726146 312.39419,25.533846 C 312.39429,26.341746 313.23329,27.002846 314.29149,27.002846 C 316.70949,27.002746 318.89819,30.658346 317.38209,32.174247 C 316.80369,32.752547 313.78739,33.535047 310.68059,33.918447 C 304.36499,34.698147 301.62209,35.742347 296.91019,39.182047 C 295.13639,40.476547 290.50939,42.277447 286.62819,43.160047 C 279.23259,44.841547 268.55789,47.975147 264.41189,49.677947 C 262.01559,50.662247 262.00699,50.685547 263.92239,52.095547 C 265.32639,53.128947 267.24939,53.381347 270.77689,52.952447 C 279.72779,51.863147 286.38229,50.288847 290.05549,48.423347 C 294.81689,46.005047 298.65829,45.945847 298.04239,48.300947 C 297.72299,49.522347 298.44799,50.333547 300.52099,51.116247 C 302.80979,51.980147 303.59769,53.011347 304.13189,55.859347 C 304.67029,58.728847 305.46399,59.787947 307.92639,60.816747 C 311.14529,62.161447 316.31109,68.548747 316.31109,71.190447 C 316.31119,72.290547 315.54039,72.549047 313.37339,72.230847 C 310.19659,71.764547 309.69079,72.781347 311.47609,76.117151 C 312.41639,77.873751 312.30279,78.036851 310.49709,77.463751 C 309.37379,77.107051 307.63799,77.076251 306.61069,77.402451 C 302.35479,78.753251 303.67569,80.750947 313.95479,88.388047 C 321.04229,93.653647 323.71359,96.13515 322.49249,96.34435 C 322.49249,96.34435 274.81629,167.98124 274.81629,167.98124 C 271.35209,167.96464 258.00529,158.86124 259.02619,157.20974 C 259.35039,156.68535 262.86579,156.26114 266.82939,156.26114 C 273.95559,156.26114 274.05539,156.21744 276.07089,152.95624 C 277.19209,151.14225 278.12109,148.09674 278.12109,146.19344 C 278.12119,143.19195 277.70499,142.59674 275.03039,141.66434 C 187.80389,159.77911 219.50194,163.31446 175.27149,239.92384 C 176.45049,241.83114 178.06109,243.41235 178.85159,243.41235 C 181.40609,243.41235 185.51489,240.73774 187.84839,237.56754 C 189.58409,235.21025 190.74599,234.55204 192.74459,234.78305 C 202.69651,238.56993 210.02444,257.13932 196.78379,263.97645 C 195.02579,263.97645 193.90749,259.98055 193.90749,253.72494 C 191.25227,240.67694 178.94979,287.9873 160.21589,297.82074 L 157.40049,298.52485 L 158.10449,292.06795 C 158.78009,285.75934 158.73289,285.62275 156.02359,283.89735 C 152.36489,281.56765 152.08209,281.12694 149.93399,274.07454 C 148.92019,270.74624 146.71519,265.95625 145.00729,263.42534 L 141.88579,258.80484 L 143.84429,256.75455 C 147.82669,252.50264 148.78769,246.35024 145.46609,246.35024 C 143.62689,246.35024 143.61359,246.25535 145.37439,242.86145 C 147.59659,238.57815 146.10999,238.11554 142.00829,241.82135 C 142.00829,241.82135 113.61049,291.02754 113.61049,291.02754 C 113.61059,295.01315 114.68639,295.16784 121.53629,292.22095 C 127.06879,289.84094 130.25749,285.09994 130.25749,279.21544 C 130.25759,275.49405 131.98749,270.83094 133.37879,270.83094 C 133.85769,270.83094 135.55379,271.47805 137.14259,272.29964 C 141.15719,274.37594 141.23189,278.75894 137.26499,280.25605 C 134.88219,281.15555 134.22849,282.23894 132.82799,287.81425 C 131.85659,291.68144 131.43449,295.82675 131.78749,298.03514 C 132.22749,300.78544 131.99469,302.09434 130.83899,303.05365 C 128.75869,304.78024 128.85019,306.35154 130.99199,305.68536 C 134.73589,304.52105 154.25449,302.19464 155.90109,302.71695 C 157.47899,303.21785 157.49879,303.53485 156.26829,305.89954 C 155.51599,307.34575 153.82059,309.53785 152.47379,310.79568 C 150.51019,312.62977 149.63909,312.90582 148.09799,312.08101 C 145.81329,310.85825 144.94599,311.4975 144.94599,314.43725 C 144.94609,316.99421 141.06869,318.89871 136.62249,318.53776 C 134.02309,318.32673 133.64229,318.64283 133.34819,321.23064 C 133.34819,321.23064 143.69139,357.30908 143.69139,357.30908 L 141.48799,360.06326 L 135.15369,358.62498 C 131.67599,357.82153 128.70199,356.77834 128.54379,356.32986 C 127.44029,353.20218 126.48739,352.75948 123.55579,353.97364 C 120.30229,355.32133 117.94129,354.54178 113.82479,350.79113 L 111.59099,348.77148 L 109.41849,350.94407 C 109.41849,350.94407 125.51419,421.38752 125.51419,421.38752 C 123.93189,424.3542 123.65699,424.4807 121.87289,423.13171 C 117.65239,419.94081 114.59709,421.67199 109.32649,430.16994 C 106.42939,434.84116 106.07609,437.46492 108.16359,439.19716 C 109.87439,440.61685 111.63979,439.77256 111.68269,437.4835 C 111.73909,434.4903 114.58989,439.29176 114.58989,442.37966 C 114.58999,444.47228 113.61879,445.79618 110.51989,448.04088 C 108.28479,449.65994 105.87009,451.00921 105.16469,451.00921 C 104.45949,451.00912 103.34589,452.88189 102.68599,455.17095 C 102.68599,455.17095 308.96689,618.54923 308.96689,618.54923 C 311.65989,619.53053 315.18499,620.63637 316.80069,620.99732 C 319.34839,621.56635 321.64799,622.97996 322.64549,624.45527 C 322.64949,624.46127 322.64149,624.47977 322.64549,624.48587 C 326.53119,625.90801 330.70439,625.25263 336.03869,627.1539 C 399.02899,625.15011 444.78749,604.07812 497.45939,575.22336 C 493.97849,575.89418 493.12669,575.90592 490.30799,575.64679 C 488.06239,575.06474 485.19909,571.25011 485.21329,566.00497 C 485.22329,562.39444 487.95849,560.34651 497.25439,546.97377 C 503.05769,538.62573 510.33969,528.49081 513.44229,524.45149 C 521.84149,513.51614 529.35909,497.85552 530.21169,489.50513 C 530.58689,485.82988 531.52349,480.65515 532.29249,477.99919 C 534.32659,470.97368 533.94769,460.80156 531.64979,460.80156 C 531.18979,460.80147 523.49899,468.22726 514.57459,477.32605 C 505.64999,486.42487 497.59299,494.07628 496.67309,494.30953 C 493.92519,495.00606 488.76409,493.19007 487.67629,491.15769 C 486.82979,489.57565 487.17189,488.89655 489.72649,487.0265 C 492.79259,484.78222 514.17849,458.69045 523.81599,445.4398 C 526.63179,441.56869 529.15749,437.0432 529.41599,435.40269 C 529.89419,432.36914 532.78399,425.73487 541.99289,406.45432 L 547.13399,395.68279 L 547.68469,381.97357 C 547.99469,374.43352 548.03579,367.09165 547.74599,365.66325 C 546.98769,361.92444 543.27469,361.53479 536.30119,364.46985 C 529.94629,367.1447 527.76239,366.90186 523.72409,363.12342 C 517.88239,357.65726 517.81339,351.11786 523.63249,354.55514 L 526.47829,356.20751 L 533.27169,351.18896 C 540.65339,345.71184 545.73669,340.10897 553.98859,328.36075 C 562.00529,316.94714 563.98759,316.1008 573.84859,319.9149 C 583.80679,323.76652 585.16149,323.81811 589.14879,320.64931 C 591.11039,319.09078 593.09999,317.83404 593.58619,317.83404 C 595.51869,317.83404 600.77019,322.54687 605.06139,328.1465 C 609.41579,333.82848 624.77809,349.16938 626.11499,349.16938 C 626.98709,349.16938 628.67749,344.62302 629.48099,340.14207 C 633.15139,331.29129 634.80049,322.14814 632.57749,318.3492 C 629.11519,144.97215 502.51919,16.539446 329.74489,14.561346 z M 68.897094,148.44944 C 69.175794,150.59945 66.376494,153.29084 70.176494,151.24144 C 71.371194,150.62945 72.551794,150.68285 75.410594,147.31695 C 78.269294,143.95065 88.353094,135.36054 96.626994,127.19014 C 107.10099,116.84785 112.26169,111.02215 113.61049,107.97264 C 114.67619,105.56384 116.18779,103.33705 116.94609,103.04605 C 117.70459,102.75495 121.82039,99.85675 126.09579,96.58915 C 133.20609,91.155047 137.11209,89.346047 137.11209,91.478947 C 109.79497,120.94898 86.75304,153.84996 66.668694,188.63674 C 65.286894,193.69825 65.542194,198.52175 67.219494,199.07164 C 67.836594,199.27415 70.467294,196.71625 73.064394,193.41055 C 75.661694,190.10465 81.118394,184.92255 85.182394,181.87404 C 92.752494,176.19514 93.905394,175.58835 114.10009,166.97125 C 127.17249,161.39354 129.40729,159.73985 132.73619,153.20094 C 133.99929,150.71965 138.86439,144.55044 143.53829,139.49175 C 148.21249,134.43285 154.96339,126.59514 158.53279,122.04905 C 162.10199,117.50304 169.09619,109.40685 174.07809,104.08644 C 179.05989,98.76605 183.13589,93.786547 183.13589,93.008947 C 183.13599,92.231247 182.60399,90.775447 181.97319,89.765247 C 181.03419,88.261647 181.30909,86.906947 183.53359,82.359747 C 185.02869,79.304347 186.11179,76.644951 185.92069,76.453751 C 185.50139,76.034551 177.46299,77.510851 175.05729,78.442851 C 173.65249,78.987047 173.34349,78.560151 173.34349,76.086651 C 173.34359,73.724247 173.98139,72.746947 176.28129,71.557747 C 177.89699,70.721947 179.21889,69.595947 179.21889,69.079047 C 179.21899,68.562047 176.46489,66.757547 173.09879,65.070347 C 139.0294,57.91919 88.837266,123.47244 68.897094,148.44944 z M 241.64479,78.167551 C 239.46609,79.622947 239.45109,79.651447 241.30819,81.717247 C 243.29579,83.927847 244.68509,83.838847 250.21319,81.105247 C 255.17959,78.649151 260.49489,72.905347 260.49489,69.996947 C 260.49499,67.849847 259.94609,67.286147 257.43489,66.783747 C 241.27136,63.056387 247.24917,73.609419 241.64479,78.167551 z M 273.22509,81.961947 C 273.22519,86.937547 281.43499,106.41834 284.18009,107.94205 C 287.64049,109.86275 293.61189,109.51804 297.39989,107.17714 C 301.17199,104.84575 300.89529,104.20754 295.25779,102.55635 C 293.10349,101.92535 290.23909,100.54114 288.89269,99.49645 C 286.52349,97.65775 286.44459,97.22605 286.44459,85.879047 C 286.44469,79.430147 286.13079,73.875447 285.77139,73.516147 C 278.53955,69.835792 273.8821,74.337476 273.22509,81.961947 z M 221.84609,79.177247 C 220.94519,79.182247 219.80489,79.742147 218.57179,80.891047 C 215.80749,83.466047 216.67779,84.951847 220.68329,84.562947 C 223.24209,84.314647 223.77389,83.855347 223.77389,81.839747 C 223.77399,80.067847 223.00449,79.170947 221.84609,79.177247 z M 215.97059,91.234147 C 215.77429,91.227147 215.57199,91.238147 215.35869,91.264747 C 205.53046,94.292317 195.6592,100.33474 202.50629,110.78804 C 204.46969,113.70324 206.57849,116.11275 207.21889,116.11275 C 207.85919,116.11264 209.27489,114.61294 210.34009,112.80774 C 211.50059,110.84114 214.08619,108.67284 216.79689,107.36075 C 221.61369,105.02895 221.73569,104.68674 220.71389,97.23195 C 220.24059,93.778847 219.56469,92.549747 217.68439,91.693047 C 217.09429,91.424047 216.56019,91.255847 215.97059,91.234147 L 215.97059,91.234147 z M 113.05979,177.40635 C 112.29229,177.35104 111.66979,178.72414 110.27509,181.47625 C 108.24019,185.49214 107.73529,187.93814 107.73529,193.34945 C 107.73539,199.54655 107.95989,200.34764 110.30579,202.19295 C 111.72489,203.30925 113.44439,204.24324 114.13069,204.24324 C 114.81739,204.24324 118.15829,202.37044 121.56699,200.08155 C 124.97549,197.79264 128.33109,194.81815 129.00299,193.47174 C 130.31919,190.83335 130.73299,180.72254 129.52309,180.74185 C 129.11929,180.74785 126.36509,181.41014 123.40299,182.21064 C 118.41559,183.55804 117.91779,183.55054 116.82369,181.96574 C 114.75209,178.96455 113.82739,177.46154 113.05979,177.40635 L 113.05979,177.40635 z M 399.11719,255.34664 C 400.40319,255.31844 414.20459,263.49565 418.79359,267.03634 C 423.12819,270.38045 424.38599,270.89375 426.90289,270.34125 C 429.65769,269.73615 430.53599,270.31054 437.98049,277.71605 C 442.41959,282.13214 447.88809,287.25275 450.12909,289.09965 C 455.40199,293.44515 461.62679,302.47814 460.96179,304.79784 C 460.68339,305.76862 460.15619,307.34379 459.76829,308.28649 C 459.21529,309.63 459.54059,310.00016 461.32899,310.00016 L 463.62399,310.00016 L 461.42079,311.5301 C 460.07329,312.47408 456.13889,313.25549 451.16939,313.58042 C 446.73249,313.87056 442.14179,314.72562 440.94869,315.47766 C 438.11129,317.26664 438.33099,317.35847 435.37939,313.48856 C 433.05489,310.44099 432.83939,309.31009 432.83939,301.37054 C 432.83949,291.73825 432.64089,291.39465 426.47449,289.40555 C 417.07129,286.37264 407.41779,280.49674 401.99369,274.50304 C 397.16969,269.17214 396.60809,268.06525 396.60809,264.22114 C 396.60819,260.73685 397.56729,257.20094 399.02559,255.37754 C 399.04009,255.35915 399.07569,255.34764 399.11719,255.34664 L 399.11719,255.34664 z M 339.47599,287.47775 C 342.26859,287.36304 344.61349,288.80014 345.68819,291.39474 C 346.36729,293.03454 346.75199,294.51914 346.54489,294.66915 C 343.59679,296.80244 335.99239,301.14555 335.31419,301.09514 C 334.82299,301.05885 333.43519,300.57794 332.22359,299.99354 C 331.01199,299.40915 330.02039,298.58564 330.02039,298.18804 C 330.02049,296.50304 336.69989,287.93424 338.25199,287.63085 C 338.66729,287.54964 339.07719,287.49385 339.47599,287.47775 L 339.47599,287.47775 z M 345.53509,300.17725 C 347.59949,300.08454 349.90559,300.43014 352.54269,301.15634 C 354.42769,301.67554 360.58119,302.79224 366.22129,303.63515 C 377.49839,305.32025 380.31519,306.91001 381.49119,312.26452 C 382.06209,314.86439 381.71509,315.64718 378.85939,318.0788 C 377.04319,319.62529 374.18099,322.20898 372.52489,323.80111 C 369.93529,326.29149 368.39089,326.80727 361.47819,327.59564 C 357.05859,328.09974 352.99689,328.78825 352.45069,329.12568 C 351.90489,329.46314 350.35179,329.00621 348.99289,328.1159 C 347.05459,326.84573 346.20769,326.74311 345.10659,327.65684 C 344.33479,328.29744 343.72959,329.48467 343.72959,330.28852 C 343.72959,331.53634 343.33579,331.51099 341.18969,330.1049 C 338.31989,328.22449 336.46229,329.13851 335.52849,332.85899 C 335.22099,334.08459 333.82999,335.67996 332.46849,336.40872 C 331.10679,337.13745 329.16179,339.17746 328.12309,340.93763 C 325.58149,345.24527 321.04369,347.39429 313.34279,347.94529 L 306.91659,348.40427 L 304.13189,344.18135 C 301.35129,339.97947 301.32279,339.89348 301.89809,328.45245 C 302.31139,320.23406 303.03349,315.77006 304.37669,312.75414 C 305.41069,310.43297 306.53509,307.31941 306.88609,305.83844 C 307.46319,303.40344 307.93369,303.14555 311.84339,303.14555 C 317.15969,303.14555 321.20729,304.58605 321.20729,306.481 C 321.20739,308.43633 325.88809,311.9586 328.49019,311.9586 C 329.88569,311.9586 331.79869,310.40418 333.99839,307.46022 C 337.56939,302.68165 340.99369,300.38105 345.53509,300.17725 L 345.53509,300.17725 z M 214.68559,338.5813 C 215.50599,338.539 216.50819,339.06752 217.68439,340.17257 C 219.91539,342.26853 220.04259,342.31473 223.25389,342.31473 C 224.50229,342.31473 225.88249,343.62142 227.10949,345.98683 C 231.13639,353.74939 233.91489,355.8797 241.39999,357.00317 C 245.17029,357.56887 249.64829,358.49836 251.37599,359.0534 C 255.22129,360.28868 258.53659,365.27747 258.53659,369.8861 C 258.53669,372.84339 259.31939,373.92838 264.90159,378.54624 C 269.97769,382.74527 271.26649,384.36813 271.26649,386.56356 C 271.26659,388.66255 271.73409,389.31775 273.22509,389.31775 C 274.30059,389.31765 276.91259,390.88511 279.03919,392.80615 C 282.11869,395.58826 283.56179,396.2362 286.13869,395.98865 C 289.55609,395.66041 289.53659,395.74561 288.21949,389.07295 C 287.71839,386.5339 287.88229,386.38006 291.21859,386.38006 C 293.16469,386.37997 294.76539,386.71037 294.76809,387.11448 C 294.77109,387.51832 295.77779,389.1039 297.00199,390.63355 C 299.20089,393.38117 299.25679,393.3745 301.46969,391.58213 C 303.35589,390.05493 303.54259,389.35858 302.72439,387.20623 C 301.97369,385.23163 299.90009,383.88979 293.60519,381.26965 C 287.00829,378.5238 284.82409,377.06455 282.16049,373.58877 L 278.88609,369.27409 L 281.85449,368.50912 C 285.19179,367.64436 286.44459,366.25905 286.44459,363.36818 C 286.44469,361.88092 287.74959,360.98667 292.01389,359.54298 C 297.26129,357.76668 297.72559,357.74728 300.09259,359.2982 C 302.28069,360.73179 302.60199,361.64943 302.60199,366.30586 C 302.60209,371.21591 302.78989,371.69808 305.08059,372.27299 C 307.48169,372.87561 307.50189,372.95207 305.84559,374.78226 C 304.36559,376.41785 304.33989,376.81925 305.57009,377.59755 C 306.35679,378.09499 307.33889,378.50736 307.74289,378.51556 C 308.14689,378.52357 308.47719,379.42753 308.47719,380.50468 C 308.47729,382.07664 309.12709,382.46314 311.78219,382.46314 C 314.11279,382.46314 315.50879,383.10503 316.52539,384.63576 C 317.96259,386.80036 317.97929,386.78967 321.94179,385.00297 C 324.12939,384.01648 326.42839,383.51592 327.05209,383.90134 C 327.67579,384.28677 330.16379,384.32653 332.59099,383.96254 C 336.37519,383.39508 337.17559,382.85143 338.06839,380.29043 L 339.10889,377.3222 L 346.36139,377.78116 C 353.07179,378.21184 353.87719,378.04888 357.22449,375.60854 C 359.21599,374.15674 362.72499,370.92606 364.99719,368.44783 L 369.12849,363.94955 L 370.10749,367.56045 C 370.66009,369.54976 371.11439,372.22834 371.11739,373.49703 C 371.12039,374.76572 372.25369,377.12851 373.62679,378.76038 C 375.40079,380.86858 375.97289,382.48028 375.61569,384.29919 C 374.32709,390.86151 374.68169,394.86755 376.80909,397.85537 C 377.99359,399.5186 378.98189,401.99968 378.98189,403.3942 C 378.98199,407.12408 372.68939,411.3141 364.87479,412.78861 C 359.24899,413.8501 358.32779,413.77519 355.81699,412.1766 C 354.27839,411.19687 352.66729,409.83321 352.23659,409.14717 C 351.80609,408.46091 349.71279,407.92313 347.58519,407.92313 C 344.34469,407.92304 343.72959,408.23872 343.72959,409.91213 C 343.72959,411.01074 342.81899,413.67484 341.70989,415.84872 C 340.23429,418.74154 339.96079,420.15398 340.73069,421.08141 C 341.54449,422.06183 340.68609,422.83436 336.93609,424.44763 C 334.27009,425.59449 330.49799,426.52848 328.55149,426.52848 C 326.60499,426.52839 323.67129,427.21172 322.03349,428.05843 C 319.40929,429.41555 318.64339,429.44385 315.48489,428.2115 C 313.02529,427.25175 310.98329,427.08019 308.96689,427.66068 C 306.83449,428.27454 304.97359,428.04757 302.23479,426.83441 L 298.47069,425.15139 L 292.10579,428.51751 C 284.16149,432.73093 282.59839,434.9004 283.26209,440.78843 C 283.67339,444.43624 283.39489,445.60458 281.73209,447.15341 C 280.61539,448.19385 279.46399,448.96969 279.16169,448.89772 C 278.85939,448.82562 276.40749,447.98205 273.71469,447.00045 C 271.02189,446.01889 266.47059,445.1879 263.61649,445.1644 C 258.26509,445.12011 254.44179,443.68302 249.01959,439.62568 C 246.28979,437.58283 244.91279,437.29219 238.09529,437.39179 C 231.67519,437.48559 229.31069,437.05187 224.90609,435.03546 C 218.19249,431.96175 216.95529,429.18847 220.86679,426.06941 L 223.55959,423.92735 L 221.08119,421.99955 C 217.19439,418.9422 215.01359,414.0061 216.30729,411.16674 C 217.73299,408.03798 217.71029,407.92313 215.41999,407.92313 C 214.33559,407.92304 212.62579,407.41559 211.62529,406.79084 C 210.15099,405.86996 209.27739,406.02517 206.91279,407.70887 C 204.40249,409.49635 203.45699,409.6508 200.30299,408.77994 C 196.28259,407.6698 186.18539,408.0657 176.28129,409.72854 C 172.78059,410.31626 167.71619,411.08114 165.05069,411.41152 C 161.27689,411.87959 159.54419,412.71684 157.21679,415.20605 C 155.55969,416.97875 152.10429,419.12268 149.44429,420.01045 C 144.73199,421.58308 144.53079,421.54489 137.93829,418.97001 C 132.02579,416.66068 131.23689,416.05279 131.23689,413.79852 C 131.23699,410.3573 136.24369,408.36917 140.84549,409.97334 C 143.41139,410.86777 144.47289,410.73557 147.11869,409.20828 C 151.79739,406.50745 153.75719,401.88234 153.75909,393.44883 L 153.75909,386.34942 L 160.61359,379.52546 C 167.23389,372.9183 167.46819,372.52348 167.46819,367.89711 C 167.46829,363.98568 167.87189,362.82304 169.70209,361.62387 C 171.71849,360.3027 172.26379,360.32806 175.30209,361.89932 C 178.54639,363.57704 178.82269,363.56529 182.12609,361.86872 C 184.01769,360.89733 186.35019,358.77985 187.29759,357.15618 C 188.24499,355.53253 190.95029,353.1289 193.32599,351.80097 L 197.67149,349.38353 L 198.28339,351.95403 C 200.47989,360.88598 208.19389,367.32479 229.58809,378.05667 C 240.78589,383.67352 241.36429,384.10291 242.77709,388.09375 C 244.46849,392.87104 245.85109,392.97005 247.15299,388.43034 C 247.84199,386.02828 247.66769,384.44241 246.38809,381.75932 C 244.43099,377.65517 245.52329,376.2257 249.87659,377.13853 C 256.24779,378.4748 252.40769,372.64299 243.35849,367.25448 C 238.38259,364.29143 236.91389,363.84715 233.74989,364.37799 C 230.07829,364.99414 229.86319,364.88259 221.26479,356.17694 C 213.12599,347.93682 212.51279,347.01409 212.51279,343.29401 C 212.51289,340.26535 213.31779,338.65208 214.68559,338.58135 L 214.68559,338.5813 z M 516.37999,358.59442 C 517.51499,358.53312 517.98459,360.01585 518.00179,363.12336 C 518.01819,366.05703 512.21389,378.38925 509.92329,380.29043 C 507.69369,382.14098 503.23649,382.39117 498.01949,380.933 C 494.39869,379.92125 492.16739,379.84321 489.17579,380.59643 C 485.59469,381.4982 484.50609,381.28512 478.58779,378.51556 C 472.06919,375.46517 472.00849,375.38088 472.00849,371.53857 C 472.00859,366.53706 473.47189,363.83967 476.20089,363.85778 C 477.39399,363.86579 481.43729,365.38803 485.19779,367.22379 C 491.68989,370.39335 492.29509,370.49462 497.40749,369.54944 C 504.44209,368.24914 507.89389,366.41005 512.43239,361.53211 C 514.20349,359.62858 515.49729,358.64191 516.37999,358.59442 z M 198.03859,360.18567 C 196.30869,360.14787 193.90749,368.03224 193.90749,373.95598 C 193.90759,377.59501 193.23199,380.89452 192.01019,383.28933 C 190.15749,386.92088 190.15389,387.0709 191.94889,389.80737 C 193.77849,392.59611 197.26049,395.09677 199.44619,395.16248 C 200.08109,395.18158 201.31969,394.4823 202.16959,393.63243 C 205.57939,390.22265 205.66409,388.85086 203.05729,379.40305 C 201.66329,374.3512 200.24299,368.03663 199.90519,365.38774 C 199.56759,362.73901 198.78469,360.41316 198.19149,360.21623 C 198.13739,360.19822 198.09429,360.18673 198.03859,360.18563 L 198.03859,360.18567 z M 228.67009,395.31554 C 227.83149,395.35494 227.19349,395.77958 226.25269,396.63133 C 225.15599,397.62376 224.24999,398.03672 224.23289,397.54935 C 224.16139,395.51216 221.32599,400.6454 221.32599,402.81272 C 221.32599,404.95429 221.63239,405.14983 224.50839,404.61822 C 226.25879,404.29458 229.01279,404.4069 230.62849,404.89357 C 235.18939,406.26724 237.55539,406.11243 239.74759,404.25099 C 241.22759,402.99437 241.62329,401.81898 241.21639,399.84447 C 240.75679,397.61379 240.15079,397.15157 237.66659,397.15157 C 236.01769,397.15148 233.22369,396.62838 231.45479,395.98865 C 230.41379,395.61225 229.66009,395.36498 229.03739,395.31554 C 228.90769,395.30514 228.78989,395.30953 228.67009,395.31554 L 228.67009,395.31554 z M 307.62039,398.34496 C 306.38799,398.33596 305.36869,398.86964 304.07079,400.08927 C 302.35649,401.69972 301.03879,402.11001 299.20509,401.64988 C 297.15629,401.13558 296.72669,401.35591 296.72669,402.93511 C 296.72679,407.30836 305.60719,408.46001 310.03799,404.64875 C 313.17289,401.95236 312.72719,399.48001 308.93639,398.52859 C 308.46589,398.41048 308.03129,398.34791 307.62039,398.34496 z M 391.95659,430.59834 C 395.17229,430.63425 401.40069,433.91343 408.90969,439.56437 C 414.27749,443.60428 417.25469,445.08695 421.94559,446.08243 C 426.19319,446.98379 428.65749,448.12236 430.17709,449.87693 C 435.42729,455.93709 441.99939,461.78075 443.58039,461.78075 C 444.52599,461.78064 448.54059,462.88914 452.51589,464.25937 C 456.49109,465.62961 461.64099,467.21997 463.92989,467.77853 C 467.28179,468.59618 468.09169,469.19851 468.09169,470.96103 C 468.09179,472.471 469.22379,473.78688 471.76379,475.21449 C 475.28029,477.19076 479.84249,482.21591 479.84249,484.11932 C 479.84259,485.97201 477.17459,486.97377 470.72339,487.54663 C 464.40509,488.10782 464.05269,488.01911 463.04269,485.80244 C 461.65609,482.75907 458.69409,482.06997 455.08629,483.93583 C 452.28189,485.38596 452.07199,485.327 449.05789,482.40566 C 446.75989,480.17822 445.02259,479.40688 442.44809,479.40688 C 438.76399,479.40677 435.71449,476.72339 426.56639,465.45286 C 423.37789,461.52456 422.27209,460.80151 419.40549,460.80151 C 416.61249,460.80142 414.94779,459.77283 409.98049,455.07909 C 406.66119,451.94221 401.94469,448.23584 399.51509,446.84749 C 397.08549,445.45904 393.15819,442.61124 390.79379,440.51306 C 386.58789,436.78062 386.53539,436.63941 387.88669,433.8114 C 388.66079,432.19137 390.17369,430.79654 391.34459,430.6289 C 391.53179,430.60221 391.74229,430.59591 391.95659,430.5983 L 391.95659,430.59834 z M 98.983394,444.1546 C 98.481094,444.15449 97.790794,445.01927 97.453294,446.08243 C 97.115894,447.14556 95.843194,448.79791 94.638094,449.75453 C 93.432694,450.71105 92.110794,452.04946 91.700494,452.72287 C 90.482894,454.7201 96.990994,454.25311 98.524294,452.23325 C 100.01019,450.27589 100.36009,444.1546 98.983394,444.1546 L 98.983394,444.1546 z "
     style="display:inline"
     id="Continents - ombre" />
  <path
     d="M 328.26501,7.0599569 C 322.60488,7.0599569 317.0077,7.2001299 311.42126,7.4974569 C 310.4654,7.7196539 309.15015,8.0243109 307.39001,7.9662069 C 307.621,7.9503179 307.84648,7.9196789 308.07751,7.9037069 C 307.65013,7.8594529 307.20513,7.8217839 306.76501,7.7787069 C 304.82225,7.9109159 302.88541,8.0798869 300.95251,8.2474569 C 300.96309,8.2690859 300.97417,8.2877699 300.98376,8.3099569 C 300.4615,8.3525979 299.94238,8.3871009 299.42126,8.4349569 C 299.56365,8.8664569 299.55746,9.3793569 299.29626,10.059957 C 298.87435,11.158857 297.09821,11.533107 292.51501,11.528707 C 285.81102,11.522209 277.82751,13.378557 277.82751,14.934957 C 277.82732,15.463655 279.17741,15.903707 280.82751,15.903707 C 283.66062,15.903709 283.82751,16.125907 283.82751,19.903707 C 283.82732,23.283309 284.13951,23.903707 285.89001,23.903707 C 287.02962,23.903709 289.84201,22.804607 292.14001,21.466207 C 294.43802,20.127909 298.91491,18.048957 302.07751,16.872457 C 305.23982,15.696358 307.82751,14.370507 307.82751,13.903707 C 307.82732,12.534609 313.34636,11.701707 317.42126,12.466207 L 321.17126,13.184957 L 317.98376,16.028707 C 316.22606,17.599009 314.11296,18.903707 313.29626,18.903707 C 312.47975,18.903709 311.82751,19.578707 311.82751,20.403707 C 311.82732,21.228709 312.68441,21.903707 313.76501,21.903707 C 316.23432,21.903709 318.46946,25.636357 316.92126,27.184957 C 316.33035,27.775455 313.25011,28.574507 310.07751,28.966207 C 303.62762,29.762509 300.82711,30.828706 296.01501,34.341207 C 294.20352,35.663606 289.47851,37.502607 285.51501,38.403707 C 277.96252,40.120906 267.06131,43.320757 262.82751,45.059957 C 260.38002,46.06496 260.37151,46.088807 262.32751,47.528707 C 263.76112,48.584206 265.72501,48.842007 269.32751,48.403707 C 278.46792,47.291506 285.26371,45.683907 289.01501,43.778707 C 293.87752,41.309306 297.80046,41.248707 297.17126,43.653707 C 296.84485,44.901106 297.58551,45.729707 299.70251,46.528707 C 302.03952,47.410906 302.84441,48.464457 303.39001,51.372457 C 303.93982,54.302859 304.75031,55.383957 307.26501,56.434957 C 310.55202,57.80826 315.82751,64.331107 315.82751,67.028707 C 315.82732,68.152206 315.04031,68.416007 312.82751,68.091207 C 309.58292,67.615006 309.06691,68.653057 310.89001,72.059957 C 311.85012,73.85376 311.73431,74.019857 309.89001,73.434957 C 308.74292,73.07066 306.97046,73.039857 305.92126,73.372457 C 301.57495,74.751859 302.92406,76.792202 313.42126,84.591207 C 320.65875,89.968607 323.38721,92.502607 322.14001,92.716207 C 318.88292,93.274107 312.48146,96.00131 309.54626,98.09121 C 306.96955,99.92581 306.74651,100.52801 307.32751,103.9662 C 307.94792,107.63961 307.82001,107.87251 304.26501,109.5912 C 301.12942,111.10721 300.13961,112.43331 297.89001,118.1537 C 296.42472,121.88021 294.08471,126.0839 292.70251,127.4662 C 290.33212,129.83641 290.03121,129.90055 287.32751,128.49745 C 285.75042,127.67946 284.09201,127.21825 283.64001,127.49745 C 282.32232,128.31196 282.67641,132.74186 284.32751,135.93495 C 285.74522,138.67685 285.69361,139.16065 283.57751,143.12245 C 282.08372,145.91855 281.32751,149.1183 281.32751,152.4037 C 281.32732,157.3138 281.26891,157.4085 278.07751,157.7162 C 274.62442,158.0491 273.83851,159.8274 276.26501,161.8412 C 278.50622,163.70121 276.97171,165.88976 273.45251,165.87245 C 269.91452,165.85546 256.28491,156.55975 257.32751,154.87245 C 257.65832,154.33686 261.24886,153.9037 265.29626,153.9037 C 272.57325,153.9037 272.67536,153.8591 274.73376,150.5287 C 275.87836,148.67631 276.82751,145.56645 276.82751,143.62245 C 276.82732,140.55756 276.40266,139.94966 273.67126,138.99745 C 271.93905,138.39375 268.67686,137.87041 266.42126,137.8412 C 262.56425,137.7914 255.42216,136.6622 241.23376,133.9037 C 232.94516,132.2923 228.75246,133.59266 221.04626,140.12245 C 214.10526,146.00395 210.42996,150.87331 209.42126,155.4662 C 208.83886,158.11811 208.35791,158.46666 206.01501,158.12245 C 204.06032,157.83545 202.63461,158.45285 200.89001,160.30995 C 199.55842,161.72716 198.93591,162.9037 199.51501,162.9037 C 200.09422,162.9037 201.12786,164.22671 201.79626,165.8412 C 202.80346,168.2732 202.73746,169.2595 201.42126,171.5912 C 200.54756,173.13921 198.96446,176.42871 197.92126,178.9037 C 196.87796,181.3787 191.25016,189.92871 185.42126,197.9037 C 172.24406,215.9327 170.55431,219.30101 170.01501,228.5912 C 169.65962,234.71641 169.93676,236.33191 171.79626,239.3412 C 172.99996,241.28898 174.64491,242.9037 175.45251,242.9037 C 178.06072,242.90368 182.25701,240.17146 184.64001,236.93495 C 186.41232,234.52725 187.59901,233.85531 189.64001,234.0912 C 191.78142,234.33871 192.36841,234.98095 192.64001,237.37245 C 192.82682,239.01656 194.28921,242.1645 195.89001,244.3412 C 199.47232,249.21229 199.55686,251.35716 196.23376,256.24745 C 194.74246,258.44166 193.85221,260.8659 194.14001,261.9662 C 194.41542,263.01909 194.24421,263.9037 193.76501,263.9037 C 191.96962,263.90368 190.82751,259.82256 190.82751,253.43495 C 190.82732,245.00045 189.06206,243.87991 184.17126,249.2162 C 181.20206,252.45598 180.82751,253.48566 180.82751,258.49745 C 180.82732,261.60415 181.35671,265.9563 182.01501,268.1537 C 183.17562,272.02708 183.09836,272.2457 179.98376,275.0287 C 178.21646,276.60759 175.92196,277.9037 174.85876,277.9037 C 172.59216,277.90368 168.87741,282.55541 166.07751,288.9037 C 163.74112,294.20029 160.42186,297.4728 156.42126,298.4662 L 153.54626,299.18495 L 154.26501,292.5912 C 154.95502,286.14878 154.90681,286.00936 152.14001,284.24745 C 148.40392,281.86815 148.11516,281.4183 145.92126,274.2162 C 144.88586,270.81738 142.63441,265.92581 140.89001,263.3412 L 137.70251,258.62245 L 139.70251,256.5287 C 143.76912,252.18659 144.75026,245.9037 141.35876,245.9037 C 139.48016,245.90368 139.46701,245.80701 141.26501,242.3412 C 143.53452,237.96679 142.01611,237.49451 137.82751,241.2787 C 132.38982,246.19118 129.80351,247.45496 128.70251,245.74745 C 127.98002,244.62755 127.64221,244.66241 126.82751,245.9037 C 125.53712,247.86909 125.56451,249.5654 126.95251,253.4037 C 128.29082,257.10519 127.40691,263.16836 125.20251,265.37245 C 124.35962,266.21506 122.59546,266.9037 121.29626,266.9037 C 118.20306,266.90368 111.82751,274.5702 111.82751,278.2787 C 111.82731,279.75218 111.15241,282.58515 110.32751,284.55995 C 109.50231,286.53426 108.82751,289.67091 108.82751,291.5287 C 108.82731,295.59888 109.92616,295.75675 116.92126,292.74745 C 122.57086,290.31696 125.82751,285.4755 125.82751,279.4662 C 125.82732,275.66568 127.59431,270.9037 129.01501,270.9037 C 129.50412,270.90368 131.23576,271.56461 132.85876,272.4037 C 136.95806,274.52368 137.03436,278.9998 132.98376,280.5287 C 130.54986,281.44729 129.88261,282.55365 128.45251,288.24745 C 127.46032,292.19646 127.02951,296.42955 127.39001,298.68495 C 127.83922,301.49336 127.60186,302.82995 126.42126,303.80995 C 124.29656,305.57285 124.39021,307.17786 126.57751,306.49745 C 130.40062,305.30834 150.33371,302.9325 152.01501,303.4662 C 153.62642,303.97758 153.64661,304.30122 152.39001,306.7162 C 151.62172,308.19302 149.89041,310.4316 148.51501,311.7162 C 146.50982,313.58922 145.62046,313.8711 144.04626,313.0287 C 141.71296,311.78012 140.82751,312.43275 140.82751,315.43495 C 140.82732,318.04584 136.86791,319.99156 132.32751,319.62245 C 129.67262,319.40684 129.28366,319.73005 128.98376,322.37245 C 128.71226,324.76015 129.32606,325.96355 132.10876,328.37245 C 135.04866,330.91845 136.07581,333.05361 138.70251,342.0287 C 142.41042,354.69939 142.45896,355.57661 139.54626,359.2162 L 137.29626,362.0287 L 130.82751,360.55995 C 127.27572,359.73933 124.23891,358.6741 124.07751,358.2162 C 122.95022,355.02209 121.97726,354.56986 118.98376,355.80995 C 115.66086,357.18604 113.25016,356.38975 109.04626,352.55995 L 106.76501,350.49745 L 104.54626,352.7162 C 101.74826,355.514 101.76201,360.91636 104.57751,366.43495 C 106.37411,369.95684 106.47211,370.72341 105.26501,372.9037 C 104.51151,374.2649 103.87806,376.40445 103.85876,377.62245 C 103.83896,378.84055 102.92741,380.315 101.82751,380.9037 C 100.41381,381.66019 99.827514,382.9998 99.827514,385.4662 C 99.827314,388.52049 100.18406,389.0188 102.73376,389.5287 C 105.40966,390.06389 105.74086,390.61966 106.92126,396.55995 C 108.27366,403.36473 109.75811,405.13275 116.32751,407.74745 C 118.41161,408.57706 119.86151,410.23836 121.07751,413.18495 C 123.23871,418.42304 123.20796,420.4835 120.98376,424.6537 C 119.36756,427.68329 119.08721,427.81236 117.26501,426.43495 C 112.95511,423.17633 109.83471,424.94446 104.45251,433.62245 C 101.49371,438.39276 101.13331,441.07191 103.26501,442.8412 C 105.01191,444.29089 106.81456,443.4287 106.85876,441.0912 C 106.91596,438.03449 109.82751,442.93781 109.82751,446.0912 C 109.82731,448.22809 108.83606,449.58035 105.67126,451.87245 C 103.38856,453.52596 100.92281,454.9037 100.20251,454.9037 C 99.481914,454.90359 98.345364,456.81621 97.671264,459.1537 C 96.997464,461.4911 95.863414,464.28776 95.140014,465.37245 C 94.416714,466.45736 93.827514,468.77301 93.827514,470.5287 C 93.827314,472.28429 92.447414,477.34195 90.765014,481.74745 L 87.702514,489.74745 L 89.921264,494.05995 C 95.712264,505.36829 100.52086,517.89136 100.04626,520.37245 C 99.682064,522.27672 100.41891,524.03126 102.70251,526.87245 C 104.73931,529.40722 105.82546,531.93541 105.85876,534.0912 C 105.90366,537.03136 106.71096,537.97916 113.10876,542.55995 C 117.06806,545.3949 125.76606,552.37101 132.42126,558.0912 C 147.98176,571.46536 153.25831,575.30791 160.45251,578.4662 C 163.67422,579.88056 169.25241,582.32601 172.82751,583.9037 C 176.40232,585.48136 185.51646,588.38671 193.10876,590.3412 C 205.20386,593.45506 208.42166,593.89001 219.10876,593.9037 C 231.44266,593.91937 233.81311,594.33051 251.32751,599.4037 C 256.27732,600.83746 264.08721,602.65436 268.70251,603.43495 C 273.31752,604.2151 277.17641,604.97136 277.26501,605.12245 C 277.35382,605.27382 278.17506,606.62946 279.10876,608.12245 C 280.04206,609.61562 280.82751,612.36286 280.82751,614.24745 C 280.82732,617.27712 281.26171,617.84461 284.57751,619.1537 C 286.63982,619.96796 291.70241,621.43011 295.82751,622.4037 C 299.95232,623.37716 305.57751,624.99536 308.32751,625.99745 C 311.07732,626.99952 314.67741,628.12886 316.32751,628.49745 C 318.77182,629.04342 320.97391,630.37121 322.07751,631.7787 C 322.58142,631.96936 323.96431,632.45736 324.57751,632.68495 C 325.81048,632.69931 327.02889,632.7774 328.26501,632.7787 C 328.27548,632.77872 328.28579,632.7787 328.29626,632.7787 C 390.96069,632.7726 449.34393,614.30094 498.29626,582.5287 C 498.30513,582.49908 498.30716,582.44817 498.32751,582.43495 C 496.72412,582.36025 495.13461,582.42476 493.51501,582.18495 C 491.22182,581.59042 489.81281,577.94761 489.82751,572.5912 C 489.83752,568.90398 491.11546,566.56011 500.60876,552.9037 C 506.53466,544.37858 513.97161,534.02861 517.14001,529.9037 C 525.71742,518.73648 533.39451,502.74351 534.26501,494.2162 C 534.64822,490.46298 535.60471,485.17851 536.39001,482.4662 C 538.46722,475.29158 538.08046,464.9037 535.73376,464.9037 C 535.26356,464.90357 527.41046,472.48681 518.29626,481.7787 C 509.18218,491.07047 500.95461,498.88436 500.01501,499.12245 C 497.20902,499.83373 491.93821,497.9792 490.82751,495.9037 C 489.96272,494.28807 490.31236,493.59445 492.92126,491.68495 C 496.05205,489.39292 517.89166,462.7477 527.73376,449.2162 C 530.60886,445.26288 533.18851,440.6413 533.45251,438.9662 C 533.94052,435.86818 536.89246,429.0933 546.29626,409.4037 L 551.54626,398.4037 L 552.10876,384.4037 C 552.42496,376.70367 552.46756,369.20605 552.17126,367.74745 C 551.39668,363.92924 547.60496,363.5315 540.48376,366.5287 C 533.99356,369.26027 531.76381,369.01231 527.64001,365.1537 C 521.67432,359.57157 521.60406,352.89351 527.54626,356.4037 L 530.45251,358.0912 L 537.39001,352.9662 C 544.92832,347.3729 550.11946,341.6513 558.54626,329.6537 C 566.73278,317.99809 568.75731,317.1338 578.82751,321.0287 C 588.99672,324.96209 590.38041,325.0147 594.45251,321.7787 C 596.45502,320.18709 598.48716,318.9037 598.98376,318.9037 C 600.95696,318.9037 606.32011,323.71645 610.70251,329.43495 C 615.14892,335.23696 630.83721,350.9037 632.20251,350.9037 C 633.09302,350.9037 634.81941,346.26096 635.64001,341.68495 C 637.69742,339.84487 639.31146,337.8351 640.73376,335.7787 C 640.99694,330.52049 641.14001,325.2269 641.14001,319.9037 C 641.14001,147.20526 500.96346,7.0599569 328.26501,7.0599569 z M 160.32751,55.966207 C 121.98307,80.428017 89.320822,113.03136 64.765014,151.30995 C 64.76534,151.31034 64.827514,151.37245 64.827514,151.37245 C 65.998214,150.72665 68.321314,148.6046 70.827514,145.6537 C 73.746714,142.2162 83.033764,132.55981 91.483764,124.2162 C 102.17956,113.6545 107.45011,107.70511 108.82751,104.5912 C 109.91551,102.1313 111.45906,99.85706 112.23376,99.55996 C 113.00806,99.26256 117.21141,96.30301 121.57751,92.966207 C 128.83861,87.416807 132.82751,85.569557 132.82751,87.747457 C 132.82742,88.212257 131.88046,89.428307 130.73376,90.466207 C 129.58676,91.504107 127.01001,94.61266 125.01501,97.37246 C 123.01992,100.13236 115.95561,108.7037 109.32751,116.4037 C 102.69931,124.10371 95.489264,132.6559 93.296264,135.4037 C 91.103867,138.15151 88.075264,141.75151 86.546264,143.4037 C 79.065667,151.4874 63.252414,178.31401 60.890014,186.9662 C 59.478614,192.13501 59.739514,197.06106 61.452514,197.62245 C 62.082414,197.82906 64.769264,195.21721 67.421264,191.8412 C 70.073767,188.4652 75.646664,183.17275 79.796264,180.05995 C 87.527067,174.26046 88.704314,173.64101 109.32751,164.8412 C 122.67681,159.1451 124.95896,157.45631 128.35876,150.7787 C 129.64856,148.24481 134.61691,141.94481 139.39001,136.7787 C 144.16302,131.6126 151.05751,123.6087 154.70251,118.9662 C 158.34732,114.32371 165.49001,106.05595 170.57751,100.62245 C 175.66492,95.18916 179.82751,90.103657 179.82751,89.309957 C 179.82742,88.515657 179.28431,87.029357 178.64001,85.997457 C 177.68102,84.462157 177.96186,83.078057 180.23376,78.434957 C 181.76016,75.314556 182.86686,72.598907 182.67126,72.403707 C 182.24326,71.975606 174.03431,73.482857 171.57751,74.434957 C 170.14262,74.99076 169.82751,74.554907 169.82751,72.028707 C 169.82742,69.616406 170.47891,68.618207 172.82751,67.403707 C 174.47742,66.550506 175.82751,65.400657 175.82751,64.872457 C 175.82742,64.344559 173.01501,62.501807 169.57751,60.778707 C 166.13992,59.055606 163.11581,57.485207 162.89001,57.278707 C 162.82152,57.216106 162.78861,57.141057 162.76501,57.059957 C 161.59472,56.48556 161.37381,56.500157 160.39001,56.059957 C 160.39001,56.059957 160.32805,55.967084 160.32751,55.966207 z M 251.07751,61.934957 C 250.61242,61.92066 250.16386,61.947307 249.73376,61.966207 C 244.56936,62.193406 241.82751,64.753307 241.82751,69.466207 C 241.82742,71.661806 241.12631,73.119007 239.57751,74.153707 C 237.35222,75.64011 237.33696,75.669207 239.23376,77.778707 C 241.26326,80.036217 242.68211,79.945307 248.32751,77.153707 C 253.39912,74.645706 258.82751,68.779557 258.82751,65.809957 C 258.82742,63.61716 258.26691,63.041607 255.70251,62.528707 C 254.01992,62.192306 252.47251,61.977157 251.07751,61.934957 z M 277.82751,67.997457 C 276.07132,68.003259 275.44731,68.735107 273.95251,71.153707 C 272.76962,73.067406 271.82751,76.164807 271.82751,78.028707 C 271.82742,83.109917 280.21151,103.00375 283.01501,104.55995 C 286.54862,106.52125 292.64681,106.1694 296.51501,103.7787 C 300.36712,101.39791 300.08481,100.74586 294.32751,99.05996 C 292.12742,98.41546 289.20251,97.00186 287.82751,95.93496 C 285.40792,94.057257 285.32751,93.616607 285.32751,82.028707 C 285.32742,75.443202 285.00701,69.770807 284.64001,69.403707 C 284.27282,69.036606 282.20916,68.474757 280.04626,68.184957 C 279.13525,68.06266 278.41281,67.995657 277.82751,67.997457 z M 219.01501,75.184957 C 218.15842,75.313656 217.11691,75.908257 216.01501,76.934957 C 213.19202,79.564757 214.08106,81.081657 218.17126,80.684957 C 220.78446,80.431157 221.32751,79.962217 221.32751,77.903707 C 221.32742,76.09441 220.54156,75.178257 219.35876,75.184957 C 219.24356,75.185456 219.13741,75.166357 219.01501,75.184957 z M 213.35876,87.497457 C 213.15786,87.490457 212.95106,87.502407 212.73376,87.528707 C 211.28286,87.706007 209.31261,88.675907 205.39001,90.841207 C 199.28762,94.209707 197.98226,95.41681 197.04626,98.46621 C 196.01316,101.83281 196.21316,102.42471 199.60876,107.4662 C 201.61356,110.44321 203.76746,112.9037 204.42126,112.9037 C 205.07536,112.9037 206.52056,111.37251 207.60876,109.5287 C 208.79346,107.5204 211.43421,105.30631 214.20251,103.9662 C 219.12132,101.585 219.24601,101.23566 218.20251,93.622457 C 217.71912,90.096457 217.02876,88.841107 215.10876,87.966207 C 214.50596,87.691607 213.96056,87.519657 213.35876,87.497457 z M 108.26501,175.49745 C 107.48091,175.44106 106.84566,176.8434 105.42126,179.6537 C 103.34316,183.75481 102.82751,186.2528 102.82751,191.7787 C 102.82741,198.1073 103.05691,198.92525 105.45251,200.80995 C 106.90161,201.94966 108.65756,202.9037 109.35876,202.9037 C 110.05956,202.9037 113.47171,200.99121 116.95251,198.6537 C 120.43321,196.3162 123.86046,193.2787 124.54626,191.9037 C 125.89056,189.2093 126.31321,178.88411 125.07751,178.9037 C 124.66492,178.91071 121.85251,179.58641 118.82751,180.4037 C 113.73421,181.77981 113.22556,181.7723 112.10876,180.1537 C 109.99296,177.08871 109.04901,175.55385 108.26501,175.49745 z M 400.39001,255.0912 C 401.70332,255.06198 415.79696,263.41291 420.48376,267.0287 C 424.90986,270.44358 426.19471,270.9683 428.76501,270.4037 C 431.57832,269.78578 432.47511,270.37165 440.07751,277.93495 C 444.61062,282.44446 450.19526,287.67356 452.48376,289.55995 C 457.86826,293.99736 464.22586,303.22222 463.54626,305.5912 C 463.26185,306.58242 462.72361,308.19121 462.32751,309.1537 C 461.76252,310.52571 462.09516,310.9037 463.92126,310.9037 L 466.26501,310.9037 L 464.01501,312.4662 C 462.63882,313.43011 458.62156,314.22805 453.54626,314.55995 C 449.01495,314.85595 444.32676,315.72946 443.10876,316.49745 C 440.21086,318.32434 440.43576,318.4182 437.42126,314.4662 C 435.04725,311.35392 434.82751,310.19919 434.82751,302.0912 C 434.82732,292.25448 434.62461,291.90395 428.32751,289.87245 C 418.72452,286.77495 408.86651,280.7747 403.32751,274.6537 C 398.40082,269.20968 397.82751,268.0795 397.82751,264.1537 C 397.82732,260.59548 398.80746,256.98516 400.29626,255.12245 C 400.31105,255.10366 400.34771,255.09211 400.39001,255.0912 z M 345.67126,300.87245 C 347.77905,300.77785 350.13461,301.13076 352.82751,301.87245 C 354.75222,302.40265 361.03696,303.543 366.79626,304.4037 C 378.31235,306.12457 381.18901,307.74811 382.39001,313.2162 C 382.97332,315.87122 382.61871,316.6707 379.70251,319.1537 C 377.84742,320.73311 374.92466,323.37165 373.23376,324.99745 C 370.58876,327.54055 369.01171,328.06765 361.95251,328.87245 C 357.43902,329.38745 353.29116,330.08965 352.73376,330.43495 C 352.17596,330.77904 350.59011,330.3129 349.20251,329.4037 C 347.22282,328.10672 346.35806,328.00135 345.23376,328.93495 C 344.44526,329.58855 343.82751,330.80196 343.82751,331.62245 C 343.82732,332.89684 343.42526,332.87005 341.23376,331.43495 C 338.30266,329.51405 336.40601,330.44855 335.45251,334.24745 C 335.13822,335.49914 333.71801,337.12856 332.32751,337.87245 C 330.93672,338.61694 328.95061,340.70035 327.89001,342.49745 C 325.29472,346.89675 320.66106,349.091 312.79626,349.6537 L 306.23376,350.12245 L 303.39001,345.80995 C 300.55052,341.51844 300.52116,341.43156 301.10876,329.74745 C 301.53046,321.35485 302.26841,316.79591 303.64001,313.7162 C 304.69602,311.34571 305.84391,308.1662 306.20251,306.6537 C 306.79152,304.16733 307.27241,303.9037 311.26501,303.9037 C 316.69412,303.90368 320.82751,305.37435 320.82751,307.30995 C 320.82732,309.30635 325.60771,312.9037 328.26501,312.9037 C 329.69002,312.90371 331.64361,311.31626 333.89001,308.30995 C 337.53672,303.42975 341.03366,301.08096 345.67126,300.87245 z M 212.04626,340.0912 C 212.88406,340.04802 213.90746,340.5876 215.10876,341.7162 C 217.38676,343.85661 217.51746,343.9037 220.79626,343.9037 C 222.07116,343.90371 223.48066,345.23831 224.73376,347.6537 C 228.84586,355.581 231.68351,357.7566 239.32751,358.9037 C 243.17732,359.4814 247.75081,360.43065 249.51501,360.99745 C 253.44182,362.25885 256.82751,367.35325 256.82751,372.05995 C 256.82732,375.07974 257.62681,376.188 263.32751,380.9037 C 268.51102,385.1918 269.82751,386.849 269.82751,389.0912 C 269.82732,391.2346 270.30481,391.9037 271.82751,391.9037 C 272.92572,391.90359 275.59331,393.5041 277.76501,395.4662 C 280.90982,398.3073 282.38361,398.96891 285.01501,398.7162 C 288.50492,398.3809 288.48511,398.46801 287.14001,391.6537 C 286.62822,389.06079 286.79551,388.9037 290.20251,388.9037 C 292.18972,388.90359 293.82461,389.2412 293.82751,389.6537 C 293.82952,390.0661 294.85876,391.68536 296.10876,393.24745 C 298.35386,396.05336 298.41146,396.04631 300.67126,394.2162 C 302.59715,392.6565 302.78821,391.94556 301.95251,389.74745 C 301.18562,387.73095 299.06851,386.36066 292.64001,383.68495 C 285.90322,380.88063 283.67251,379.3906 280.95251,375.8412 L 277.60876,371.43495 L 280.64001,370.6537 C 284.04802,369.7706 285.32751,368.356 285.32751,365.4037 C 285.32732,363.885 286.66011,362.97206 291.01501,361.49745 C 296.37362,359.68336 296.84781,359.66355 299.26501,361.24745 C 301.49942,362.71145 301.82751,363.64871 301.82751,368.4037 C 301.82732,373.418 302.01916,373.91046 304.35876,374.49745 C 306.81046,375.11275 306.83151,375.19065 305.14001,377.05995 C 303.62852,378.73003 303.60206,379.13986 304.85876,379.93495 C 305.66166,380.44284 306.66491,380.86415 307.07751,380.87245 C 307.48982,380.88047 307.82751,381.8037 307.82751,382.9037 C 307.82732,384.509 308.49101,384.9037 311.20251,384.9037 C 313.58212,384.9037 315.00846,385.55946 316.04626,387.12245 C 317.51375,389.33296 317.53101,389.32216 321.57751,387.49745 C 323.81132,386.49016 326.15976,385.97906 326.79626,386.37245 C 327.43295,386.76596 329.97391,386.80626 332.45251,386.43495 C 336.31682,385.85523 337.13476,385.30005 338.04626,382.68495 L 339.10876,379.6537 L 346.51501,380.12245 C 353.36802,380.56216 354.19006,380.39591 357.60876,377.9037 C 359.64206,376.42109 363.22626,373.12191 365.54626,370.5912 L 369.76501,365.99745 L 370.76501,369.68495 C 371.32932,371.71623 371.79346,374.45216 371.79626,375.74745 C 371.79925,377.04305 372.95646,379.45605 374.35876,381.12245 C 376.16996,383.27526 376.75481,384.92131 376.39001,386.7787 C 375.07402,393.48019 375.43596,397.57146 377.60876,400.62245 C 378.81796,402.32105 379.82751,404.85451 379.82751,406.2787 C 379.82732,410.0878 373.40186,414.36685 365.42126,415.87245 C 359.67585,416.95655 358.73566,416.87995 356.17126,415.24745 C 354.59975,414.24696 352.95491,412.8544 352.51501,412.1537 C 352.07522,411.45299 349.93771,410.9037 347.76501,410.9037 C 344.45572,410.90359 343.82751,411.22575 343.82751,412.93495 C 343.82732,414.05674 342.89761,416.77745 341.76501,418.99745 C 340.25802,421.95166 339.97881,423.39391 340.76501,424.3412 C 341.59602,425.34229 340.71951,426.1313 336.89001,427.7787 C 334.16742,428.9499 330.31521,429.9037 328.32751,429.9037 C 326.33942,429.90359 323.34406,430.60131 321.67126,431.4662 C 318.99105,432.8521 318.20926,432.88126 314.98376,431.62245 C 312.47156,430.64236 310.38651,430.46726 308.32751,431.05995 C 306.14952,431.68673 304.24941,431.45481 301.45251,430.2162 L 297.60876,428.49745 L 291.10876,431.93495 C 282.99566,436.23773 281.39961,438.4531 282.07751,444.4662 C 282.49722,448.1913 282.21311,449.38421 280.51501,450.9662 C 279.37472,452.02859 278.19881,452.82096 277.89001,452.74745 C 277.58132,452.67397 275.07751,451.81216 272.32751,450.80995 C 269.57732,449.80743 264.92991,448.95896 262.01501,448.93495 C 256.55032,448.88977 252.64576,447.4221 247.10876,443.2787 C 244.32066,441.1925 242.91471,440.89576 235.95251,440.99745 C 229.39602,441.09326 226.98166,440.6504 222.48376,438.5912 C 215.62726,435.4522 214.36396,432.61986 218.35876,429.43495 L 221.10876,427.24745 L 218.57751,425.2787 C 214.60812,422.1565 212.38131,417.1157 213.70251,414.2162 C 215.15812,411.021 215.13566,410.9037 212.79626,410.9037 C 211.68866,410.90359 209.94306,410.38545 208.92126,409.74745 C 207.41526,408.80705 206.52326,408.96555 204.10876,410.68495 C 201.54486,412.51033 200.57946,412.66791 197.35876,411.7787 C 193.25276,410.64499 182.94161,411.04946 172.82751,412.74745 C 169.25232,413.34765 164.08046,414.1286 161.35876,414.4662 C 157.50456,414.9441 155.73506,415.7991 153.35876,418.3412 C 151.66606,420.15139 148.13796,422.34085 145.42126,423.24745 C 140.60876,424.85345 140.40396,424.81446 133.67126,422.18495 C 127.63316,419.82653 126.82751,419.2058 126.82751,416.9037 C 126.82732,413.3895 131.94071,411.35926 136.64001,412.99745 C 139.26042,413.91086 140.34486,413.77571 143.04626,412.2162 C 147.82406,409.45799 149.82551,404.73516 149.82751,396.12245 L 149.82751,388.87245 L 156.82751,381.9037 C 163.58792,375.15639 163.82751,374.7534 163.82751,370.0287 C 163.82732,366.0344 164.23946,364.84726 166.10876,363.62245 C 168.16766,362.27326 168.72461,362.29921 171.82751,363.9037 C 175.14042,365.61699 175.42326,365.6051 178.79626,363.87245 C 180.72756,362.88034 183.10991,360.71796 184.07751,359.05995 C 185.04472,357.40172 187.80716,354.94731 190.23376,353.5912 L 194.67126,351.12245 L 195.29626,353.74745 C 197.53906,362.86874 205.41721,369.4443 227.26501,380.4037 C 238.70022,386.13977 239.29066,386.5783 240.73376,390.6537 C 242.46076,395.53228 243.87281,395.63346 245.20251,390.99745 C 245.90582,388.54444 245.72826,386.92496 244.42126,384.18495 C 242.42246,379.99361 243.53796,378.53381 247.98376,379.4662 C 254.48976,380.83067 250.56841,374.87525 241.32751,369.37245 C 236.24582,366.34654 234.74611,365.89245 231.51501,366.43495 C 227.76572,367.06392 227.54601,366.95015 218.76501,358.05995 C 210.45372,349.6449 209.82751,348.70281 209.82751,344.9037 C 209.82732,341.8109 210.64986,340.1633 212.04626,340.0912 z M 520.14001,360.5287 C 521.29922,360.46621 521.77916,361.98041 521.79626,365.1537 C 521.81258,368.14959 515.88606,380.74336 513.54626,382.68495 C 511.26908,384.57454 506.71781,384.83011 501.39001,383.3412 C 497.69262,382.30789 495.41346,382.22836 492.35876,382.99745 C 488.70126,383.91836 487.59026,383.70085 481.54626,380.87245 C 474.88915,377.75725 474.82751,377.67115 474.82751,373.74745 C 474.82732,368.63986 476.32166,365.88531 479.10876,365.9037 C 480.32666,365.91172 484.45666,367.4665 488.29626,369.3412 C 494.92595,372.5779 495.54441,372.68131 500.76501,371.7162 C 507.94892,370.38819 511.47366,368.5102 516.10876,363.5287 C 517.91706,361.5849 519.23861,360.57731 520.14001,360.5287 z M 195.04626,362.1537 C 193.27976,362.11521 190.82751,370.1667 190.82751,376.2162 C 190.82742,379.9323 190.13761,383.30185 188.89001,385.74745 C 186.99792,389.45605 186.99441,389.60931 188.82751,392.4037 C 190.69562,395.2516 194.25156,397.80545 196.48376,397.87245 C 197.13176,397.89197 198.39711,397.17755 199.26501,396.30995 C 202.74692,392.82783 202.83386,391.4269 200.17126,381.7787 C 198.74786,376.61969 197.29751,370.1712 196.95251,367.4662 C 196.60742,364.76119 195.80821,362.38596 195.20251,362.18495 C 195.14692,362.16647 195.10346,362.15481 195.04626,362.1537 z M 226.32751,398.0287 C 225.47102,398.06892 224.81946,398.50295 223.85876,399.37245 C 222.73866,400.38596 221.81386,400.80746 221.79626,400.30995 C 221.72326,398.22953 218.82751,403.47165 218.82751,405.68495 C 218.82742,407.87183 219.14061,408.0716 222.07751,407.5287 C 223.86492,407.19819 226.67751,407.31275 228.32751,407.80995 C 232.98492,409.21263 235.40131,409.05451 237.64001,407.1537 C 239.15122,405.8704 239.55561,404.67021 239.14001,402.6537 C 238.67042,400.3757 238.05171,399.9037 235.51501,399.9037 C 233.83052,399.90359 230.97806,399.36941 229.17126,398.7162 C 228.10826,398.3317 227.33851,398.0792 226.70251,398.0287 C 226.56992,398.01812 226.44981,398.02271 226.32751,398.0287 z M 306.51501,401.12245 C 305.45432,401.23775 304.48741,401.81401 303.32751,402.9037 C 301.57672,404.54829 300.23096,404.96756 298.35876,404.49745 C 296.26606,403.97226 295.82751,404.19716 295.82751,405.80995 C 295.82742,410.27584 304.89656,411.45216 309.42126,407.55995 C 312.62255,404.80624 312.16786,402.28136 308.29626,401.30995 C 307.81585,401.18923 307.37211,401.12545 306.95251,401.12245 C 306.79502,401.12146 306.66651,401.10615 306.51501,401.12245 z M 393.07751,434.05995 C 396.36112,434.09667 402.72201,437.44531 410.39001,443.2162 C 415.87202,447.3417 418.91211,448.85606 423.70251,449.87245 C 428.04002,450.79305 430.55646,451.95576 432.10876,453.74745 C 437.46986,459.93626 444.18226,465.9037 445.79626,465.9037 C 446.76155,465.90359 450.86206,467.03535 454.92126,468.43495 C 458.98055,469.83414 464.23991,471.45841 466.57751,472.0287 C 470.00012,472.8637 470.82751,473.4787 470.82751,475.2787 C 470.82732,476.82079 471.98341,478.16456 474.57751,479.62245 C 478.16832,481.64076 482.82751,486.7722 482.82751,488.7162 C 482.82732,490.60809 480.10311,491.63101 473.51501,492.2162 C 467.06272,492.78915 466.70316,492.69846 465.67126,490.43495 C 464.25495,487.32693 461.23086,486.6234 457.54626,488.5287 C 454.68215,490.00959 454.46801,489.9495 451.39001,486.9662 C 449.04332,484.69139 447.26901,483.9037 444.64001,483.9037 C 440.87772,483.90359 437.76366,481.1633 428.42126,469.6537 C 425.16505,465.6422 424.03576,464.9037 421.10876,464.9037 C 418.25596,464.90359 416.55616,463.85305 411.48376,459.05995 C 408.09356,455.85643 403.27766,452.0715 400.79626,450.6537 C 398.31495,449.23579 394.30461,446.32776 391.89001,444.18495 C 387.59512,440.37333 387.54146,440.22911 388.92126,437.3412 C 389.71165,435.6868 391.25671,434.2624 392.45251,434.0912 C 392.64322,434.06381 392.85841,434.05736 393.07751,434.05995 z M 93.890014,447.9037 C 93.376914,447.90359 92.672014,448.78706 92.327514,449.87245 C 91.982814,450.95815 90.683314,452.64565 89.452514,453.62245 C 88.221514,454.59936 86.871614,455.9662 86.452514,456.6537 C 85.209014,458.69329 91.855564,458.2165 93.421264,456.1537 C 94.938664,454.15479 95.296014,447.9037 93.890014,447.9037 z "
     style="fill:url(#radialGradient3419)"
     id="Continents" />
  <path
     d="M 328.26501,7.0599569 C 322.60488,7.0599569 317.0077,7.2001299 311.42126,7.4974569 C 310.4654,7.7196539 309.15015,8.0243109 307.39001,7.9662069 C 307.621,7.9503179 307.84648,7.9196789 308.07751,7.9037069 C 307.65013,7.8594529 307.20513,7.8217839 306.76501,7.7787069 C 304.82225,7.9109159 302.88541,8.0798869 300.95251,8.2474569 C 300.96309,8.2690859 300.97417,8.2877699 300.98376,8.3099569 C 300.4615,8.3525979 299.94238,8.3871009 299.42126,8.4349569 C 299.56365,8.8664569 299.55746,9.3793569 299.29626,10.059957 C 298.87435,11.158857 297.09821,11.533107 292.51501,11.528707 C 285.81102,11.522209 277.82751,13.378557 277.82751,14.934957 C 277.82732,15.463655 279.17741,15.903707 280.82751,15.903707 C 283.66062,15.903709 283.82751,16.125907 283.82751,19.903707 C 283.82732,23.283309 284.13951,23.903707 285.89001,23.903707 C 287.02962,23.903709 289.84201,22.804607 292.14001,21.466207 C 294.43802,20.127909 298.91491,18.048957 302.07751,16.872457 C 305.23982,15.696358 307.82751,14.370507 307.82751,13.903707 C 307.82732,12.534609 313.34636,11.701707 317.42126,12.466207 L 321.17126,13.184957 L 317.98376,16.028707 C 316.22606,17.599009 314.11296,18.903707 313.29626,18.903707 C 312.47975,18.903709 311.82751,19.578707 311.82751,20.403707 C 311.82732,21.228709 312.68441,21.903707 313.76501,21.903707 C 316.23432,21.903709 318.46946,25.636357 316.92126,27.184957 C 316.33035,27.775455 313.25011,28.574507 310.07751,28.966207 C 303.62762,29.762509 300.82711,30.828706 296.01501,34.341207 C 294.20352,35.663606 289.47851,37.502607 285.51501,38.403707 C 277.96252,40.120906 267.06131,43.320757 262.82751,45.059957 C 260.38002,46.06496 260.37151,46.088807 262.32751,47.528707 C 263.76112,48.584206 265.72501,48.842007 269.32751,48.403707 C 278.46792,47.291506 285.26371,45.683907 289.01501,43.778707 C 293.87752,41.309306 297.80046,41.248707 297.17126,43.653707 C 296.84485,44.901106 297.58551,45.729707 299.70251,46.528707 C 302.03952,47.410906 302.84441,48.464457 303.39001,51.372457 C 303.93982,54.302859 304.75031,55.383957 307.26501,56.434957 C 310.55202,57.80826 315.82751,64.331107 315.82751,67.028707 C 315.82732,68.152206 315.04031,68.416007 312.82751,68.091207 C 309.58292,67.615006 309.06691,68.653057 310.89001,72.059957 C 311.85012,73.85376 311.73431,74.019857 309.89001,73.434957 C 308.74292,73.07066 306.97046,73.039857 305.92126,73.372457 C 301.57495,74.751859 302.92406,76.792202 313.42126,84.591207 C 320.65875,89.968607 323.38721,92.502607 322.14001,92.716207 C 318.88292,93.274107 312.48146,96.00131 309.54626,98.09121 C 306.96955,99.92581 306.74651,100.52801 307.32751,103.9662 C 307.94792,107.63961 307.82001,107.87251 304.26501,109.5912 C 301.12942,111.10721 300.13961,112.43331 297.89001,118.1537 C 296.42472,121.88021 294.08471,126.0839 292.70251,127.4662 C 290.33212,129.83641 290.03121,129.90055 287.32751,128.49745 C 285.75042,127.67946 284.09201,127.21825 283.64001,127.49745 C 282.32232,128.31196 282.67641,132.74186 284.32751,135.93495 C 285.74522,138.67685 285.69361,139.16065 283.57751,143.12245 C 282.08372,145.91855 281.32751,149.1183 281.32751,152.4037 C 281.32732,157.3138 281.26891,157.4085 278.07751,157.7162 C 274.62442,158.0491 273.83851,159.8274 276.26501,161.8412 C 278.50622,163.70121 276.97171,165.88976 273.45251,165.87245 C 269.91452,165.85546 256.28491,156.55975 257.32751,154.87245 C 257.65832,154.33686 261.24886,153.9037 265.29626,153.9037 C 272.57325,153.9037 272.67536,153.8591 274.73376,150.5287 C 275.87836,148.67631 276.82751,145.56645 276.82751,143.62245 C 276.82732,140.55756 276.40266,139.94966 273.67126,138.99745 C 271.93905,138.39375 268.67686,137.87041 266.42126,137.8412 C 262.56425,137.7914 255.42216,136.6622 241.23376,133.9037 C 232.94516,132.2923 228.75246,133.59266 221.04626,140.12245 C 214.10526,146.00395 210.42996,150.87331 209.42126,155.4662 C 208.83886,158.11811 208.35791,158.46666 206.01501,158.12245 C 204.06032,157.83545 202.63461,158.45285 200.89001,160.30995 C 199.55842,161.72716 198.93591,162.9037 199.51501,162.9037 C 200.09422,162.9037 201.12786,164.22671 201.79626,165.8412 C 202.80346,168.2732 202.73746,169.2595 201.42126,171.5912 C 200.54756,173.13921 198.96446,176.42871 197.92126,178.9037 C 196.87796,181.3787 191.25016,189.92871 185.42126,197.9037 C 172.24406,215.9327 170.55431,219.30101 170.01501,228.5912 C 169.65962,234.71641 169.93676,236.33191 171.79626,239.3412 C 172.99996,241.28898 174.64491,242.9037 175.45251,242.9037 C 178.06072,242.90368 182.25701,240.17146 184.64001,236.93495 C 186.41232,234.52725 187.59901,233.85531 189.64001,234.0912 C 191.78142,234.33871 192.36841,234.98095 192.64001,237.37245 C 192.82682,239.01656 194.28921,242.1645 195.89001,244.3412 C 199.47232,249.21229 199.55686,251.35716 196.23376,256.24745 C 194.74246,258.44166 193.85221,260.8659 194.14001,261.9662 C 194.41542,263.01909 194.24421,263.9037 193.76501,263.9037 C 191.96962,263.90368 190.82751,259.82256 190.82751,253.43495 C 190.82732,245.00045 189.06206,243.87991 184.17126,249.2162 C 181.20206,252.45598 180.82751,253.48566 180.82751,258.49745 C 180.82732,261.60415 181.35671,265.9563 182.01501,268.1537 C 183.17562,272.02708 183.09836,272.2457 179.98376,275.0287 C 178.21646,276.60759 175.92196,277.9037 174.85876,277.9037 C 172.59216,277.90368 168.87741,282.55541 166.07751,288.9037 C 163.74112,294.20029 160.42186,297.4728 156.42126,298.4662 L 153.54626,299.18495 L 154.26501,292.5912 C 154.95502,286.14878 154.90681,286.00936 152.14001,284.24745 C 148.40392,281.86815 148.11516,281.4183 145.92126,274.2162 C 144.88586,270.81738 142.63441,265.92581 140.89001,263.3412 L 137.70251,258.62245 L 139.70251,256.5287 C 143.76912,252.18659 144.75026,245.9037 141.35876,245.9037 C 139.48016,245.90368 139.46701,245.80701 141.26501,242.3412 C 143.53452,237.96679 142.01611,237.49451 137.82751,241.2787 C 132.38982,246.19118 129.80351,247.45496 128.70251,245.74745 C 127.98002,244.62755 127.64221,244.66241 126.82751,245.9037 C 125.53712,247.86909 125.56451,249.5654 126.95251,253.4037 C 128.29082,257.10519 127.40691,263.16836 125.20251,265.37245 C 124.35962,266.21506 122.59546,266.9037 121.29626,266.9037 C 118.20306,266.90368 111.82751,274.5702 111.82751,278.2787 C 111.82731,279.75218 111.15241,282.58515 110.32751,284.55995 C 109.50231,286.53426 108.82751,289.67091 108.82751,291.5287 C 108.82731,295.59888 109.92616,295.75675 116.92126,292.74745 C 122.57086,290.31696 125.82751,285.4755 125.82751,279.4662 C 125.82732,275.66568 127.59431,270.9037 129.01501,270.9037 C 129.50412,270.90368 131.23576,271.56461 132.85876,272.4037 C 136.95806,274.52368 137.03436,278.9998 132.98376,280.5287 C 130.54986,281.44729 129.88261,282.55365 128.45251,288.24745 C 127.46032,292.19646 127.02951,296.42955 127.39001,298.68495 C 127.83922,301.49336 127.60186,302.82995 126.42126,303.80995 C 124.29656,305.57285 124.39021,307.17786 126.57751,306.49745 C 130.40062,305.30834 150.33371,302.9325 152.01501,303.4662 C 153.62642,303.97758 153.64661,304.30122 152.39001,306.7162 C 151.62172,308.19302 149.89041,310.4316 148.51501,311.7162 C 146.50982,313.58922 145.62046,313.8711 144.04626,313.0287 C 141.71296,311.78012 140.82751,312.43275 140.82751,315.43495 C 140.82732,318.04584 136.86791,319.99156 132.32751,319.62245 C 129.67262,319.40684 129.28366,319.73005 128.98376,322.37245 C 128.71226,324.76015 129.32606,325.96355 132.10876,328.37245 C 135.04866,330.91845 136.07581,333.05361 138.70251,342.0287 C 142.41042,354.69939 142.45896,355.57661 139.54626,359.2162 L 137.29626,362.0287 L 130.82751,360.55995 C 127.27572,359.73933 124.23891,358.6741 124.07751,358.2162 C 122.95022,355.02209 121.97726,354.56986 118.98376,355.80995 C 115.66086,357.18604 113.25016,356.38975 109.04626,352.55995 L 106.76501,350.49745 L 104.54626,352.7162 C 101.74826,355.514 101.76201,360.91636 104.57751,366.43495 C 106.37411,369.95684 106.47211,370.72341 105.26501,372.9037 C 104.51151,374.2649 103.87806,376.40445 103.85876,377.62245 C 103.83896,378.84055 102.92741,380.315 101.82751,380.9037 C 100.41381,381.66019 99.827514,382.9998 99.827514,385.4662 C 99.827314,388.52049 100.18406,389.0188 102.73376,389.5287 C 105.40966,390.06389 105.74086,390.61966 106.92126,396.55995 C 108.27366,403.36473 109.75811,405.13275 116.32751,407.74745 C 118.41161,408.57706 119.86151,410.23836 121.07751,413.18495 C 123.23871,418.42304 123.20796,420.4835 120.98376,424.6537 C 119.36756,427.68329 119.08721,427.81236 117.26501,426.43495 C 112.95511,423.17633 109.83471,424.94446 104.45251,433.62245 C 101.49371,438.39276 101.13331,441.07191 103.26501,442.8412 C 105.01191,444.29089 106.81456,443.4287 106.85876,441.0912 C 106.91596,438.03449 109.82751,442.93781 109.82751,446.0912 C 109.82731,448.22809 108.83606,449.58035 105.67126,451.87245 C 103.38856,453.52596 100.92281,454.9037 100.20251,454.9037 C 99.481914,454.90359 98.345364,456.81621 97.671264,459.1537 C 96.997464,461.4911 95.863414,464.28776 95.140014,465.37245 C 94.416714,466.45736 93.827514,468.77301 93.827514,470.5287 C 93.827314,472.28429 92.447414,477.34195 90.765014,481.74745 L 87.702514,489.74745 L 89.921264,494.05995 C 95.712264,505.36829 100.52086,517.89136 100.04626,520.37245 C 99.682064,522.27672 100.41891,524.03126 102.70251,526.87245 C 104.73931,529.40722 105.82546,531.93541 105.85876,534.0912 C 105.90366,537.03136 106.71096,537.97916 113.10876,542.55995 C 117.06806,545.3949 125.76606,552.37101 132.42126,558.0912 C 147.98176,571.46536 153.25831,575.30791 160.45251,578.4662 C 163.67422,579.88056 169.25241,582.32601 172.82751,583.9037 C 176.40232,585.48136 185.51646,588.38671 193.10876,590.3412 C 205.20386,593.45506 208.42166,593.89001 219.10876,593.9037 C 231.44266,593.91937 233.81311,594.33051 251.32751,599.4037 C 256.27732,600.83746 264.08721,602.65436 268.70251,603.43495 C 273.31752,604.2151 277.17641,604.97136 277.26501,605.12245 C 277.35382,605.27382 278.17506,606.62946 279.10876,608.12245 C 280.04206,609.61562 280.82751,612.36286 280.82751,614.24745 C 280.82732,617.27712 281.26171,617.84461 284.57751,619.1537 C 286.63982,619.96796 291.70241,621.43011 295.82751,622.4037 C 299.95232,623.37716 305.57751,624.99536 308.32751,625.99745 C 311.07732,626.99952 314.67741,628.12886 316.32751,628.49745 C 318.77182,629.04342 320.97391,630.37121 322.07751,631.7787 C 322.58142,631.96936 323.96431,632.45736 324.57751,632.68495 C 324.59152,632.68512 324.62277,632.73177 324.64001,632.74745 C 325.85001,632.76126 327.05176,632.7787 328.26501,632.7787 C 390.93192,632.7787 449.30905,614.29752 498.26501,582.5287 C 498.28045,582.49422 498.30238,582.45128 498.32751,582.43495 C 496.72412,582.36025 495.13461,582.42476 493.51501,582.18495 C 491.22182,581.59042 489.81281,577.94761 489.82751,572.5912 C 489.83752,568.90398 491.11546,566.56011 500.60876,552.9037 C 506.53466,544.37858 513.97161,534.02861 517.14001,529.9037 C 525.71742,518.73648 533.39451,502.74351 534.26501,494.2162 C 534.64822,490.46298 535.60471,485.17851 536.39001,482.4662 C 538.46722,475.29158 538.08046,464.9037 535.73376,464.9037 C 535.26356,464.90357 527.41046,472.48681 518.29626,481.7787 C 509.18218,491.07047 500.95461,498.88436 500.01501,499.12245 C 497.20902,499.83373 491.93821,497.9792 490.82751,495.9037 C 489.96272,494.28807 490.31236,493.59445 492.92126,491.68495 C 496.05205,489.39292 517.89166,462.7477 527.73376,449.2162 C 530.60886,445.26288 533.18851,440.6413 533.45251,438.9662 C 533.94052,435.86818 536.89246,429.0933 546.29626,409.4037 L 551.54626,398.4037 L 552.10876,384.4037 C 552.42496,376.70367 552.46756,369.20605 552.17126,367.74745 C 551.39668,363.92924 547.60496,363.5315 540.48376,366.5287 C 533.99356,369.26027 531.76381,369.01231 527.64001,365.1537 C 521.67432,359.57157 521.60406,352.89351 527.54626,356.4037 L 530.45251,358.0912 L 537.39001,352.9662 C 544.92832,347.3729 550.11946,341.6513 558.54626,329.6537 C 566.73278,317.99809 568.75731,317.1338 578.82751,321.0287 C 588.99672,324.96209 590.38041,325.0147 594.45251,321.7787 C 596.45502,320.18709 598.48716,318.9037 598.98376,318.9037 C 600.95696,318.9037 606.32011,323.71645 610.70251,329.43495 C 615.14892,335.23696 630.83721,350.9037 632.20251,350.9037 C 633.09302,350.9037 634.81941,346.26096 635.64001,341.68495 C 637.69742,339.84487 639.31146,337.8351 640.73376,335.7787 C 640.99694,330.52049 641.14001,325.2269 641.14001,319.9037 C 641.14001,147.20526 500.96346,7.0599569 328.26501,7.0599569 z M 160.39001,56.059957 C 160.32458,56.101695 160.24189,56.103776 160.14001,56.091207 C 121.92148,80.511447 89.364389,113.02628 64.858764,151.18495 C 64.868219,151.26143 64.851475,151.3351 64.827514,151.37245 C 65.998214,150.72665 68.321314,148.6046 70.827514,145.6537 C 73.746714,142.2162 83.033764,132.55981 91.483764,124.2162 C 102.17956,113.6545 107.45011,107.70511 108.82751,104.5912 C 109.91551,102.1313 111.45906,99.85706 112.23376,99.55996 C 113.00806,99.26256 117.21141,96.30301 121.57751,92.966207 C 128.83861,87.416807 132.82751,85.569557 132.82751,87.747457 C 132.82742,88.212257 131.88046,89.428307 130.73376,90.466207 C 129.58676,91.504107 127.01001,94.61266 125.01501,97.37246 C 123.01992,100.13236 115.95561,108.7037 109.32751,116.4037 C 102.69931,124.10371 95.489264,132.6559 93.296264,135.4037 C 91.103867,138.15151 88.075264,141.75151 86.546264,143.4037 C 79.065667,151.4874 63.252414,178.31401 60.890014,186.9662 C 59.478614,192.13501 59.739514,197.06106 61.452514,197.62245 C 62.082414,197.82906 64.769264,195.21721 67.421264,191.8412 C 70.073767,188.4652 75.646664,183.17275 79.796264,180.05995 C 87.527067,174.26046 88.704314,173.64101 109.32751,164.8412 C 122.67681,159.1451 124.95896,157.45631 128.35876,150.7787 C 129.64856,148.24481 134.61691,141.94481 139.39001,136.7787 C 144.16302,131.6126 151.05751,123.6087 154.70251,118.9662 C 158.34732,114.32371 165.49001,106.05595 170.57751,100.62245 C 175.66492,95.18916 179.82751,90.103657 179.82751,89.309957 C 179.82742,88.515657 179.28431,87.029357 178.64001,85.997457 C 177.68102,84.462157 177.96186,83.078057 180.23376,78.434957 C 181.76016,75.314556 182.86686,72.598907 182.67126,72.403707 C 182.24326,71.975606 174.03431,73.482857 171.57751,74.434957 C 170.14262,74.99076 169.82751,74.554907 169.82751,72.028707 C 169.82742,69.616406 170.47891,68.618207 172.82751,67.403707 C 174.47742,66.550506 175.82751,65.400657 175.82751,64.872457 C 175.82742,64.344559 173.01501,62.501807 169.57751,60.778707 C 166.13992,59.055606 163.11581,57.485207 162.89001,57.278707 C 162.82152,57.216106 162.78861,57.141057 162.76501,57.059957 C 161.59472,56.48556 161.37381,56.500157 160.39001,56.059957 z M 251.07751,61.934957 C 250.61242,61.92066 250.16386,61.947307 249.73376,61.966207 C 244.56936,62.193406 241.82751,64.753307 241.82751,69.466207 C 241.82742,71.661806 241.12631,73.119007 239.57751,74.153707 C 237.35222,75.64011 237.33696,75.669207 239.23376,77.778707 C 241.26326,80.036217 242.68211,79.945307 248.32751,77.153707 C 253.39912,74.645706 258.82751,68.779557 258.82751,65.809957 C 258.82742,63.61716 258.26691,63.041607 255.70251,62.528707 C 254.01992,62.192306 252.47251,61.977157 251.07751,61.934957 z M 277.82751,67.997457 C 276.07132,68.003259 275.44731,68.735107 273.95251,71.153707 C 272.76962,73.067406 271.82751,76.164807 271.82751,78.028707 C 271.82742,83.109917 280.21151,103.00375 283.01501,104.55995 C 286.54862,106.52125 292.64681,106.1694 296.51501,103.7787 C 300.36712,101.39791 300.08481,100.74586 294.32751,99.05996 C 292.12742,98.41546 289.20251,97.00186 287.82751,95.93496 C 285.40792,94.057257 285.32751,93.616607 285.32751,82.028707 C 285.32742,75.443202 285.00701,69.770807 284.64001,69.403707 C 284.27282,69.036606 282.20916,68.474757 280.04626,68.184957 C 279.13525,68.06266 278.41281,67.995657 277.82751,67.997457 z M 219.01501,75.184957 C 218.15842,75.313656 217.11691,75.908257 216.01501,76.934957 C 213.19202,79.564757 214.08106,81.081657 218.17126,80.684957 C 220.78446,80.431157 221.32751,79.962217 221.32751,77.903707 C 221.32742,76.09441 220.54156,75.178257 219.35876,75.184957 C 219.24356,75.185456 219.13741,75.166357 219.01501,75.184957 z M 213.35876,87.497457 C 213.15786,87.490457 212.95106,87.502407 212.73376,87.528707 C 211.28286,87.706007 209.31261,88.675907 205.39001,90.841207 C 199.28762,94.209707 197.98226,95.41681 197.04626,98.46621 C 196.01316,101.83281 196.21316,102.42471 199.60876,107.4662 C 201.61356,110.44321 203.76746,112.9037 204.42126,112.9037 C 205.07536,112.9037 206.52056,111.37251 207.60876,109.5287 C 208.79346,107.5204 211.43421,105.30631 214.20251,103.9662 C 219.12132,101.585 219.24601,101.23566 218.20251,93.622457 C 217.71912,90.096457 217.02876,88.841107 215.10876,87.966207 C 214.50596,87.691607 213.96056,87.519657 213.35876,87.497457 z M 108.26501,175.49745 C 107.48091,175.44106 106.84566,176.8434 105.42126,179.6537 C 103.34316,183.75481 102.82751,186.2528 102.82751,191.7787 C 102.82741,198.1073 103.05691,198.92525 105.45251,200.80995 C 106.90161,201.94966 108.65756,202.9037 109.35876,202.9037 C 110.05956,202.9037 113.47171,200.99121 116.95251,198.6537 C 120.43321,196.3162 123.86046,193.2787 124.54626,191.9037 C 125.89056,189.2093 126.31321,178.88411 125.07751,178.9037 C 124.66492,178.91071 121.85251,179.58641 118.82751,180.4037 C 113.73421,181.77981 113.22556,181.7723 112.10876,180.1537 C 109.99296,177.08871 109.04901,175.55385 108.26501,175.49745 z M 402.14001,261.80995 C 409.86127,261.85057 435.25039,274.64632 452.48376,289.55995 C 457.86826,293.99736 464.22586,303.22222 463.54626,305.5912 C 463.26185,306.58242 462.72361,308.19121 462.32751,309.1537 C 461.76252,310.52571 462.09516,310.9037 463.92126,310.9037 L 466.26501,310.9037 L 464.01501,312.4662 C 462.63882,313.43011 458.62156,314.22805 453.54626,314.55995 C 449.01495,314.85595 444.32676,315.72946 443.10876,316.49745 C 440.21086,318.32434 440.43576,318.4182 437.42126,314.4662 C 435.04725,311.35392 434.82751,310.19919 434.82751,302.0912 C 434.82732,292.25448 434.62461,291.90395 428.32751,289.87245 C 400.81942,269.46188 396.13458,261.77835 402.14001,261.80995 z M 345.67126,300.87245 C 347.77905,300.77785 350.13461,301.13076 352.82751,301.87245 C 354.75222,302.40265 361.03696,303.543 366.79626,304.4037 C 378.31235,306.12457 381.18901,307.74811 382.39001,313.2162 C 382.97332,315.87122 382.61871,316.6707 379.70251,319.1537 C 377.84742,320.73311 374.92466,323.37165 373.23376,324.99745 C 370.58876,327.54055 369.01171,328.06765 361.95251,328.87245 C 357.43902,329.38745 353.29116,330.08965 352.73376,330.43495 C 352.17596,330.77904 350.59011,330.3129 349.20251,329.4037 C 347.22282,328.10672 346.35806,328.00135 345.23376,328.93495 C 344.44526,329.58855 343.82751,330.80196 343.82751,331.62245 C 343.82732,332.89684 343.42526,332.87005 341.23376,331.43495 C 338.30266,329.51405 336.40601,330.44855 335.45251,334.24745 C 335.13822,335.49914 333.71801,337.12856 332.32751,337.87245 C 330.93672,338.61694 328.95061,340.70035 327.89001,342.49745 C 325.29472,346.89675 320.66106,349.091 312.79626,349.6537 L 306.23376,350.12245 L 303.39001,345.80995 C 300.55052,341.51844 300.52116,341.43156 301.10876,329.74745 C 301.53046,321.35485 302.26841,316.79591 303.64001,313.7162 C 304.69602,311.34571 305.84391,308.1662 306.20251,306.6537 C 306.79152,304.16733 307.27241,303.9037 311.26501,303.9037 C 316.69412,303.90368 320.82751,305.37435 320.82751,307.30995 C 320.82732,309.30635 325.60771,312.9037 328.26501,312.9037 C 329.69002,312.90371 331.64361,311.31626 333.89001,308.30995 C 337.53672,303.42975 341.03366,301.08096 345.67126,300.87245 z M 212.04626,340.0912 C 212.88406,340.04802 213.90746,340.5876 215.10876,341.7162 C 217.38676,343.85661 217.51746,343.9037 220.79626,343.9037 C 222.07116,343.90371 223.48066,345.23831 224.73376,347.6537 C 228.84586,355.581 231.68351,357.7566 239.32751,358.9037 C 243.17732,359.4814 247.75081,360.43065 249.51501,360.99745 C 253.44182,362.25885 256.82751,367.35325 256.82751,372.05995 C 256.82732,375.07974 257.62681,376.188 263.32751,380.9037 C 268.51102,385.1918 269.82751,386.849 269.82751,389.0912 C 269.82732,391.2346 270.30481,391.9037 271.82751,391.9037 C 272.92572,391.90359 275.59331,393.5041 277.76501,395.4662 C 280.90982,398.3073 282.38361,398.96891 285.01501,398.7162 C 288.50492,398.3809 288.48511,398.46801 287.14001,391.6537 C 286.62822,389.06079 286.79551,388.9037 290.20251,388.9037 C 292.18972,388.90359 293.82461,389.2412 293.82751,389.6537 C 293.82952,390.0661 294.85876,391.68536 296.10876,393.24745 C 298.35386,396.05336 298.41146,396.04631 300.67126,394.2162 C 302.59715,392.6565 302.78821,391.94556 301.95251,389.74745 C 301.18562,387.73095 299.06851,386.36066 292.64001,383.68495 C 285.90322,380.88063 283.67251,379.3906 280.95251,375.8412 L 277.60876,371.43495 L 280.64001,370.6537 C 284.04802,369.7706 285.32751,368.356 285.32751,365.4037 C 285.32732,363.885 286.66011,362.97206 291.01501,361.49745 C 296.37362,359.68336 296.84781,359.66355 299.26501,361.24745 C 301.49942,362.71145 301.82751,363.64871 301.82751,368.4037 C 301.82732,373.418 302.01916,373.91046 304.35876,374.49745 C 306.81046,375.11275 306.83151,375.19065 305.14001,377.05995 C 303.62852,378.73003 303.60206,379.13986 304.85876,379.93495 C 305.66166,380.44284 306.66491,380.86415 307.07751,380.87245 C 307.48982,380.88047 307.82751,381.8037 307.82751,382.9037 C 307.82732,384.509 308.49101,384.9037 311.20251,384.9037 C 313.58212,384.9037 315.00846,385.55946 316.04626,387.12245 C 317.51375,389.33296 317.53101,389.32216 321.57751,387.49745 C 323.81132,386.49016 326.15976,385.97906 326.79626,386.37245 C 327.43295,386.76596 329.97391,386.80626 332.45251,386.43495 C 336.31682,385.85523 337.13476,385.30005 338.04626,382.68495 L 339.10876,379.6537 L 346.51501,380.12245 C 353.36802,380.56216 354.19006,380.39591 357.60876,377.9037 C 359.64206,376.42109 363.22626,373.12191 365.54626,370.5912 L 369.76501,365.99745 L 370.76501,369.68495 C 371.32932,371.71623 371.79346,374.45216 371.79626,375.74745 C 371.79925,377.04305 372.95646,379.45605 374.35876,381.12245 C 376.16996,383.27526 376.75481,384.92131 376.39001,386.7787 C 375.07402,393.48019 375.43596,397.57146 377.60876,400.62245 C 378.81796,402.32105 379.82751,404.85451 379.82751,406.2787 C 379.82732,410.0878 373.40186,414.36685 365.42126,415.87245 C 359.67585,416.95655 358.73566,416.87995 356.17126,415.24745 C 354.59975,414.24696 352.95491,412.8544 352.51501,412.1537 C 352.07522,411.45299 349.93771,410.9037 347.76501,410.9037 C 344.45572,410.90359 343.82751,411.22575 343.82751,412.93495 C 343.82732,414.05674 342.89761,416.77745 341.76501,418.99745 C 340.25802,421.95166 339.97881,423.39391 340.76501,424.3412 C 341.59602,425.34229 340.71951,426.1313 336.89001,427.7787 C 334.16742,428.9499 330.31521,429.9037 328.32751,429.9037 C 326.33942,429.90359 323.34406,430.60131 321.67126,431.4662 C 318.99105,432.8521 318.20926,432.88126 314.98376,431.62245 C 312.47156,430.64236 310.38651,430.46726 308.32751,431.05995 C 306.14952,431.68673 304.24941,431.45481 301.45251,430.2162 L 297.60876,428.49745 L 291.10876,431.93495 C 282.99566,436.23773 281.39961,438.4531 282.07751,444.4662 C 282.49722,448.1913 282.21311,449.38421 280.51501,450.9662 C 279.37472,452.02859 278.19881,452.82096 277.89001,452.74745 C 277.58132,452.67397 275.07751,451.81216 272.32751,450.80995 C 269.57732,449.80743 264.92991,448.95896 262.01501,448.93495 C 256.55032,448.88977 252.64576,447.4221 247.10876,443.2787 C 244.32066,441.1925 242.91471,440.89576 235.95251,440.99745 C 229.39602,441.09326 226.98166,440.6504 222.48376,438.5912 C 215.62726,435.4522 214.36396,432.61986 218.35876,429.43495 L 221.10876,427.24745 L 218.57751,425.2787 C 214.60812,422.1565 212.38131,417.1157 213.70251,414.2162 C 215.15812,411.021 215.13566,410.9037 212.79626,410.9037 C 211.68866,410.90359 209.94306,410.38545 208.92126,409.74745 C 207.41526,408.80705 206.52326,408.96555 204.10876,410.68495 C 201.54486,412.51033 200.57946,412.66791 197.35876,411.7787 C 193.25276,410.64499 182.94161,411.04946 172.82751,412.74745 C 169.25232,413.34765 164.08046,414.1286 161.35876,414.4662 C 157.50456,414.9441 155.73506,415.7991 153.35876,418.3412 C 151.66606,420.15139 148.13796,422.34085 145.42126,423.24745 C 140.60876,424.85345 140.40396,424.81446 133.67126,422.18495 C 127.63316,419.82653 126.82751,419.2058 126.82751,416.9037 C 126.82732,413.3895 131.94071,411.35926 136.64001,412.99745 C 139.26042,413.91086 140.34486,413.77571 143.04626,412.2162 C 147.82406,409.45799 149.82551,404.73516 149.82751,396.12245 L 149.82751,388.87245 L 156.82751,381.9037 C 163.58792,375.15639 163.82751,374.7534 163.82751,370.0287 C 163.82732,366.0344 164.23946,364.84726 166.10876,363.62245 C 168.16766,362.27326 168.72461,362.29921 171.82751,363.9037 C 175.14042,365.61699 175.42326,365.6051 178.79626,363.87245 C 180.72756,362.88034 183.10991,360.71796 184.07751,359.05995 C 185.04472,357.40172 187.80716,354.94731 190.23376,353.5912 L 194.67126,351.12245 L 195.29626,353.74745 C 197.53906,362.86874 205.41721,369.4443 227.26501,380.4037 C 238.70022,386.13977 239.29066,386.5783 240.73376,390.6537 C 242.46076,395.53228 243.87281,395.63346 245.20251,390.99745 C 245.90582,388.54444 245.72826,386.92496 244.42126,384.18495 C 242.42246,379.99361 243.53796,378.53381 247.98376,379.4662 C 254.48976,380.83067 250.56841,374.87525 241.32751,369.37245 C 236.24582,366.34654 234.74611,365.89245 231.51501,366.43495 C 227.76572,367.06392 227.54601,366.95015 218.76501,358.05995 C 210.45372,349.6449 209.82751,348.70281 209.82751,344.9037 C 209.82732,341.8109 210.64986,340.1633 212.04626,340.0912 z M 520.14001,360.5287 C 521.29922,360.46621 521.77916,361.98041 521.79626,365.1537 C 521.81258,368.14959 515.88606,380.74336 513.54626,382.68495 C 511.26908,384.57454 506.71781,384.83011 501.39001,383.3412 C 497.69262,382.30789 495.41346,382.22836 492.35876,382.99745 C 488.70126,383.91836 487.59026,383.70085 481.54626,380.87245 C 474.88915,377.75725 474.82751,377.67115 474.82751,373.74745 C 474.82732,368.63986 476.32166,365.88531 479.10876,365.9037 C 480.32666,365.91172 484.45666,367.4665 488.29626,369.3412 C 494.92595,372.5779 495.54441,372.68131 500.76501,371.7162 C 507.94892,370.38819 511.47366,368.5102 516.10876,363.5287 C 517.91706,361.5849 519.23861,360.57731 520.14001,360.5287 z M 195.04626,362.1537 C 193.27976,362.11521 190.82751,370.1667 190.82751,376.2162 C 190.82742,379.9323 190.13761,383.30185 188.89001,385.74745 C 186.99792,389.45605 186.99441,389.60931 188.82751,392.4037 C 190.69562,395.2516 194.25156,397.80545 196.48376,397.87245 C 197.13176,397.89197 198.39711,397.17755 199.26501,396.30995 C 202.74692,392.82783 202.83386,391.4269 200.17126,381.7787 C 198.74786,376.61969 197.29751,370.1712 196.95251,367.4662 C 196.60742,364.76119 195.80821,362.38596 195.20251,362.18495 C 195.14692,362.16647 195.10346,362.15481 195.04626,362.1537 z M 226.32751,398.0287 C 225.47102,398.06892 224.81946,398.50295 223.85876,399.37245 C 222.73866,400.38596 221.81386,400.80746 221.79626,400.30995 C 221.72326,398.22953 218.82751,403.47165 218.82751,405.68495 C 218.82742,407.87183 219.14061,408.0716 222.07751,407.5287 C 223.86492,407.19819 226.67751,407.31275 228.32751,407.80995 C 232.98492,409.21263 235.40131,409.05451 237.64001,407.1537 C 239.15122,405.8704 239.55561,404.67021 239.14001,402.6537 C 238.67042,400.3757 238.05171,399.9037 235.51501,399.9037 C 233.83052,399.90359 230.97806,399.36941 229.17126,398.7162 C 228.10826,398.3317 227.33851,398.0792 226.70251,398.0287 C 226.56992,398.01812 226.44981,398.02271 226.32751,398.0287 z M 306.51501,401.12245 C 305.45432,401.23775 304.48741,401.81401 303.32751,402.9037 C 301.57672,404.54829 300.23096,404.96756 298.35876,404.49745 C 296.26606,403.97226 295.82751,404.19716 295.82751,405.80995 C 295.82742,410.27584 304.89656,411.45216 309.42126,407.55995 C 312.62255,404.80624 312.16786,402.28136 308.29626,401.30995 C 307.81585,401.18923 307.37211,401.12545 306.95251,401.12245 C 306.79502,401.12146 306.66651,401.10615 306.51501,401.12245 z M 393.07751,434.05995 C 396.36112,434.09667 402.72201,437.44531 410.39001,443.2162 C 415.87202,447.3417 418.91211,448.85606 423.70251,449.87245 C 428.04002,450.79305 430.55646,451.95576 432.10876,453.74745 C 437.46986,459.93626 444.18226,465.9037 445.79626,465.9037 C 446.76155,465.90359 450.86206,467.03535 454.92126,468.43495 C 458.98055,469.83414 464.23991,471.45841 466.57751,472.0287 C 470.00012,472.8637 470.82751,473.4787 470.82751,475.2787 C 470.82732,476.82079 471.98341,478.16456 474.57751,479.62245 C 478.16832,481.64076 482.82751,486.7722 482.82751,488.7162 C 482.82732,490.60809 480.10311,491.63101 473.51501,492.2162 C 467.06272,492.78915 466.70316,492.69846 465.67126,490.43495 C 464.25495,487.32693 461.23086,486.6234 457.54626,488.5287 C 454.68215,490.00959 454.46801,489.9495 451.39001,486.9662 C 449.04332,484.69139 447.26901,483.9037 444.64001,483.9037 C 440.87772,483.90359 437.76366,481.1633 428.42126,469.6537 C 425.16505,465.6422 424.03576,464.9037 421.10876,464.9037 C 418.25596,464.90359 416.55616,463.85305 411.48376,459.05995 C 408.09356,455.85643 403.27766,452.0715 400.79626,450.6537 C 398.31495,449.23579 394.30461,446.32776 391.89001,444.18495 C 387.59512,440.37333 387.54146,440.22911 388.92126,437.3412 C 389.71165,435.6868 391.25671,434.2624 392.45251,434.0912 C 392.64322,434.06381 392.85841,434.05736 393.07751,434.05995 z M 93.890014,447.9037 C 93.376914,447.90359 92.672014,448.78706 92.327514,449.87245 C 91.982814,450.95815 90.683314,452.64565 89.452514,453.62245 C 88.221514,454.59936 86.871614,455.9662 86.452514,456.6537 C 85.209014,458.69329 91.855564,458.2165 93.421264,456.1537 C 94.938664,454.15479 95.296014,447.9037 93.890014,447.9037 z "
     style="fill:url(#radialGradient6248)"
     id="Continents - noir" />
  <path
     d="M 2471.3025,853.11951 C 2471.3025,886.55453 2446.9992,913.65897 2417.0196,913.65897 C 2387.0399,913.65897 2362.7366,886.55453 2362.7366,853.11951 C 2362.7366,819.68449 2387.0399,792.58005 2417.0196,792.58005 C 2446.9992,792.58005 2471.3025,819.68449 2471.3025,853.11951 z "
     transform="matrix(1.78947,0,0,1.13019,-4007.6987,-387.99329)"
     style="opacity:0.7;fill:url(#radialGradient3395);display:none;filter:url(#filter3943-5)"
     clip-path="url(#clipPath3957-1)"
     id="Éclairage 2" />
  <path
     d="M 326.3125,5.9375 C 161.02764,5.9375 27.5625,133.98155 27.5625,292.65625 C 27.562499,321.7626 32.361992,349.65765 40.78125,376.125 C 105.01004,436.38971 191.38675,473.3125 286.34375,473.3125 C 438.34463,473.3125 568.39619,378.69601 620.75,245.1875 C 620.74246,245.13112 620.65625,244.53125 620.65625,244.53125 C 596.80386,109.15429 474.46884,5.937501 326.3125,5.9375 z "
     style="opacity:0.09790213;fill:url(#linearGradient3412)"
     id="Éclairage 1" />
  <path
     d="M 497.19502,61.984106 C 510.0834,67.002769 530.44858,137.23737 538.01847,197.40998 C 519.98634,151.17667 491.24006,104.72118 489.58267,109.64359 C 474.2574,125.25498 463.63977,236.28563 503.22126,361.20042 C 481.86139,325.37433 443.03984,276.58102 436.09572,237.49758 C 374.20773,350.99202 426.55747,463.89377 461.97409,504.47001 C 448.99395,498.44987 383.12413,455.80366 368.40462,386.23333 C 352.15182,491.96071 430.21165,533.74853 425.55955,567.61837 C 458.60257,495.39768 379.87495,502.50575 353.68493,491.70358 C 383.35282,547.0681 368.14077,597.78092 362.33002,617.65014 C 322.09139,651.19985 312.31749,656.63672 286.66905,671.62742 C 309.79427,667.98554 328.87021,677.79846 336.09762,687.62742 C 356.18498,669.0245 414.72782,670.33649 434.84702,651.17412 C 493.28997,652.85352 482.42924,646.38344 501.03483,655.01484 C 490.92722,639.4706 461.56306,625.61265 445.62273,610.8006 C 517.83449,647.84446 539.61936,601.22524 591.51231,610.63321 C 553.3896,614.11281 530.87338,613.45403 498.63793,587.89936 C 564.51839,616.69486 604.59968,595.83521 636.9511,553.79868 C 627.23928,560.31868 536.08226,546.9008 523.86767,534.24545 C 595.85786,553.07941 629.79466,542.28435 649.95258,510.78262 C 641.3634,515.19929 590.65639,508.18359 579.84752,505.23048 C 610.05018,497.5272 703.42625,463.29096 708.66905,329.2263 C 697.71545,346.77371 658.71316,399.10372 645.77351,400.04618 C 646.94148,399.29215 694.68952,241.23002 646.73502,130.34438 C 648.12602,135.2606 646.80002,227.61024 628.87071,245.30879 C 637.93999,230.50011 598.12993,85.170649 497.19502,61.984106 z "
     transform="translate(-22.97829,-25.384348)"
     style="opacity:0.61254045;filter:url(#filter4308)"
     mask="url(#mask4241)"
     id="Ombre - Plume" />
  <path
     d="M 363.75516,530.27711 L 371.02805,567.10194 L 345.27035,540.18377 L 367.7776,576.52763 L 320.95868,582.01395 L 379.5429,589.62494 L 389.39762,640.45036 C 389.39762,640.45036 393.1064,609.59269 393.8299,609.71549 C 394.55343,609.83832 423.34714,630.40418 423.06434,628.62849 C 422.78152,626.85279 405.98463,604.26303 405.98463,604.26303 C 405.98463,604.26303 448.0448,616.41212 445.53078,614.992 C 443.01677,613.57187 386.63716,582.23379 386.63716,582.23379 L 363.75516,530.27711 L 363.75516,530.27711 z "
     style="fill:#ffff9f;fill-opacity:0.94117599"
     id="Duvet" />
  <path
     d="M 468.41274,0.1448389 C 619.48304,38.734803 612.56195,167.03063 609.02695,191.35923 C 613.49321,173.81063 619.34641,153.60215 615.06205,119.89331 C 704.66497,275.34262 611.3891,339.68156 604.03754,348.59247 C 620.53092,346.18155 662.49087,318.0971 663.40371,281.09388 C 681.75991,416.32198 609.28231,436.68401 571.80583,448.7221 C 588.75239,451.46593 645.28652,429.65436 652.45934,422.8752 C 640.81667,444.0113 604.87535,499.20351 506.93323,484.3096 C 526.06141,498.5928 624.65518,485.81261 624.47599,476.35019 C 590.95913,529.65176 539.91281,561.77759 448.81973,534.65657 C 495.08487,561.15275 538.19626,548.65997 586.65855,540.73811 C 555.67213,562.18023 543.25444,605.41741 443.36224,569.59476 C 466.64379,585.23101 511.1834,594.51575 527.08735,611.59678 C 499.31473,602.72645 458.05339,590.96286 366.66425,599.24784 C 374.32623,569.22141 382.54301,545.50861 321.18066,467.70391 C 322.66639,459.09726 385.2813,508.20484 397.38139,537.61909 C 397.09036,497.69365 340.39688,484.82459 341.71807,360.01851 C 373.58595,439.56392 429.51587,484.0344 447.35314,489.72974 C 399.71095,448.70832 327.39905,336.95141 415.05448,187.691 C 429.13016,238.8736 419.27509,252.94824 457.67699,298.87362 C 425.92114,176.46562 440.02954,145.65452 465.35569,55.944972 C 479.29916,93.508747 476.47433,106.09651 501.12385,149.11036 C 513.0827,80.375687 485.99157,4.5463009 468.41274,0.1448389 z "
     style="fill:url(#radialGradient3407)"
     id="Plume" />
  <path
     d="M 558.53205,163.56788 C 584.58436,405.21805 444.40349,537.58246 319.55553,669.57812 C 308.42202,658.86227 279.84456,668.41103 250.73142,675 C 342.1109,614.40423 561.5065,452.95506 558.53205,163.56788 z "
     style="fill:url(#radialGradient3404)"
     id="Rachis" />
</svg>