<svg xmlns="http://www.w3.org/2000/svg" viewBox="0 0 100 100">
<circle cy="50" cx="50" r="45" fill="rgb(244,116,33)"/>
<path id="circle-of-friends" d="m 62.295912,28.701087 c 2.873376,1.659372 6.546563,0.675122 8.204788,-2.197388 1.659075,-2.873664 0.675688,-6.546562 -2.197975,-8.205644 -2.873087,-1.658504 -6.545987,-0.674543 -8.205062,2.199121 -1.6585,2.872509 -0.67455,6.545408 2.19825,8.203911 z M 50,67.549813 c -2.641888,0 -5.145512,-0.587374 -7.392837,-1.632816 l -4.174551,7.480879 C 41.919625,75.124499 45.845375,76.10009 50,76.10009 c 2.416175,0 4.7524,-0.334819 6.9726,-0.949614 0.392825,-2.413 1.825625,-4.636944 4.109888,-5.956013 2.280224,-1.316469 4.919225,-1.446933 7.203499,-0.583622 4.4424,-4.368222 7.333101,-10.311246 7.753925,-16.929679 l -8.5624,-0.124687 C 66.689537,60.521517 59.168538,67.549813 50,67.549813 z m 0,-35.099916 c 9.168538,0 16.689537,7.029739 17.477512,15.993631 l 8.5624,-0.124975 C 75.6185,41.700699 72.727812,35.757675 68.284837,31.389741 66.00085,32.252475 63.362137,32.121722 61.081625,30.804963 58.797637,29.486472 57.365137,27.262817 56.972312,24.849528 54.7524,24.235311 52.416175,23.900204 50,23.900204 c -4.154625,0 -8.080075,0.975302 -11.566813,2.702502 l 4.174263,7.480012 C 44.854487,33.037277 47.358112,32.449902 50,32.449902 z M 32.450338,49.999856 c 0,-5.93754 2.950725,-11.181774 7.4624,-14.357351 l -4.392175,-7.357919 c -5.257513,3.512993 -9.168825,8.882784 -10.793275,15.172749 1.897787,1.546802 3.11035,3.902363 3.11035,6.543097 0,2.640447 -1.21285,4.996008 -3.110638,6.542522 1.624163,6.290252 5.535475,11.660045 10.793275,15.173037 l 4.392463,-7.358207 c -4.511675,-3.175289 -7.4624,-8.419523 -7.4624,-14.357928 z m 29.84645,21.298479 c -2.873675,1.659081 -3.857625,5.331691 -2.198838,8.2042 1.659088,2.873663 5.331688,3.858202 8.20535,2.199121 2.8728,-1.658794 3.85705,-5.331691 2.197975,-8.205066 -1.658512,-2.872221 -5.3317,-3.85676 -8.204487,-2.198255 z M 19.400513,43.992755 c -3.31875,0 -6.007975,2.688936 -6.007975,6.007677 0,3.317876 2.689225,6.007102 6.007975,6.007102 3.317587,0 6.0071,-2.689226 6.0071,-6.007102 0,-3.318741 -2.689513,-6.007677 -6.0071,-6.007677" fill="#fff"/>
</svg>
