<?xml version="1.0" encoding="UTF-8" standalone="no"?>
<!-- Created with Inkscape (http://www.inkscape.org/) -->

<svg
   xmlns:dc="http://purl.org/dc/elements/1.1/"
   xmlns:cc="http://creativecommons.org/ns#"
   xmlns:rdf="http://www.w3.org/1999/02/22-rdf-syntax-ns#"
   xmlns:svg="http://www.w3.org/2000/svg"
   xmlns="http://www.w3.org/2000/svg"
   xmlns:sodipodi="http://sodipodi.sourceforge.net/DTD/sodipodi-0.dtd"
   xmlns:inkscape="http://www.inkscape.org/namespaces/inkscape"
   width="240"
   height="180"
   id="svg2"
   version="1.1"
   inkscape:version="0.48.0 r9654"
   sodipodi:docname="ThirdsGrid.svg">
  <defs
     id="defs4" />
  <sodipodi:namedview
     id="base"
     pagecolor="#ffffff"
     bordercolor="#666666"
     borderopacity="1.0"
     inkscape:pageopacity="0.0"
     inkscape:pageshadow="2"
     inkscape:zoom="3.7444444"
     inkscape:cx="120"
     inkscape:cy="90"
     inkscape:document-units="px"
     inkscape:current-layer="layer3"
     showgrid="false"
     inkscape:window-width="1095"
     inkscape:window-height="902"
     inkscape:window-x="230"
     inkscape:window-y="92"
     inkscape:window-maximized="0" />
  <metadata
     id="metadata7">
    <rdf:RDF>
      <cc:Work
         rdf:about="">
        <dc:format>image/svg+xml</dc:format>
        <dc:type
           rdf:resource="http://purl.org/dc/dcmitype/StillImage" />
        <dc:title></dc:title>
      </cc:Work>
    </rdf:RDF>
  </metadata>
  <g
     inkscape:label="Layer 1"
     inkscape:groupmode="layer"
     id="layer1"
     transform="translate(0,-872.36218)">
    <path
       style="fill:none;stroke:#000000;stroke-width:1px;stroke-linecap:butt;stroke-linejoin:miter;stroke-opacity:1"
       d="m 80,0 0,180"
       id="path2985"
       inkscape:connector-curvature="0"
       transform="translate(0,872.36218)"
       sodipodi:nodetypes="cc" />
    <path
       style="fill:none;stroke:#000000;stroke-width:1px;stroke-linecap:butt;stroke-linejoin:miter;stroke-opacity:1"
       d="m 160,0 0,180"
       id="path2987"
       inkscape:connector-curvature="0"
       transform="translate(0,872.36218)"
       sodipodi:nodetypes="cc" />
    <path
       style="fill:none;stroke:#000000;stroke-width:1px;stroke-linecap:butt;stroke-linejoin:miter;stroke-opacity:1"
       d="m 0,120 240,0"
       id="path2989"
       inkscape:connector-curvature="0"
       transform="translate(0,872.36218)"
       sodipodi:nodetypes="cc" />
    <path
       style="fill:none;stroke:#000000;stroke-width:1px;stroke-linecap:butt;stroke-linejoin:miter;stroke-opacity:1"
       d="m 0,60 240,0"
       id="path2991"
       inkscape:connector-curvature="0"
       transform="translate(0,872.36218)"
       sodipodi:nodetypes="cc" />
  </g>
  <g
     inkscape:groupmode="layer"
     id="layer2"
     inkscape:label="Circles">
    <path
       sodipodi:type="arc"
       style="fill:#7d7d7d;fill-opacity:0.69911505;stroke:none"
       id="path3013"
       sodipodi:cx="79.985161"
       sodipodi:cy="59.821957"
       sodipodi:rx="2.506273"
       sodipodi:ry="2.1364985"
       d="m 82.491434,59.821957 a 2.506273,2.1364985 0 1 1 -5.012546,0 2.506273,2.1364985 0 1 1 5.012546,0 z"
       transform="matrix(1.9057392,0,0,2.1875,-72.420775,-70.842084)" />
    <path
       sodipodi:type="arc"
       style="fill:#7d7d7d;fill-opacity:0.69911505;stroke:none"
       id="path3013-7"
       sodipodi:cx="79.985161"
       sodipodi:cy="59.821957"
       sodipodi:rx="2.506273"
       sodipodi:ry="2.1364985"
       d="m 82.491434,59.821957 a 2.506273,2.1364985 0 1 1 -5.012546,0 2.506273,2.1364985 0 1 1 5.012546,0 z"
       transform="matrix(1.9057392,0,0,2.1875,7.5971886,-70.882454)" />
    <path
       sodipodi:type="arc"
       style="fill:#7d7d7d;fill-opacity:0.69911505;stroke:none"
       id="path3013-5"
       sodipodi:cx="79.985161"
       sodipodi:cy="59.821957"
       sodipodi:rx="2.506273"
       sodipodi:ry="2.1364985"
       d="m 82.491434,59.821957 a 2.506273,2.1364985 0 1 1 -5.012546,0 2.506273,2.1364985 0 1 1 5.012546,0 z"
       transform="matrix(1.9057392,0,0,2.1875,-72.431164,-10.90438)" />
    <path
       sodipodi:type="arc"
       style="fill:#7d7d7d;fill-opacity:0.69911505;stroke:none"
       id="path3013-50"
       sodipodi:cx="79.985161"
       sodipodi:cy="59.821957"
       sodipodi:rx="2.506273"
       sodipodi:ry="2.1364985"
       d="m 82.491434,59.821957 a 2.506273,2.1364985 0 1 1 -5.012546,0 2.506273,2.1364985 0 1 1 5.012546,0 z"
       transform="matrix(1.9057392,0,0,2.1875,7.5555839,-10.887342)" />
  </g>
  <g
     inkscape:groupmode="layer"
     id="layer3"
     inkscape:label="Border">
    <path
       style="fill:none;stroke:#000000;stroke-width:1px;stroke-linecap:butt;stroke-linejoin:miter;stroke-opacity:1"
       d="M 0,180 0,0 240.89021,0.26706231 240.35608,180.26706 z"
       id="path3848"
       inkscape:connector-curvature="0"
       sodipodi:nodetypes="cc" />
  </g>
</svg>
