<?xml version="1.0" encoding="utf-8"?>
<!-- Generator: Adobe Illustrator 12.0.1, SVG Export Plug-In . SVG Version: 6.00 Build 51448)  -->
<!DOCTYPE svg PUBLIC "-//W3C//DTD SVG 1.1//EN" "http://www.w3.org/Graphics/SVG/1.1/DTD/svg11.dtd" [
	<!ENTITY ns_svg "http://www.w3.org/2000/svg">
	<!ENTITY ns_xlink "http://www.w3.org/1999/xlink">
]>
<svg  version="1.1" id="Layer_1" xmlns="&ns_svg;" xmlns:xlink="&ns_xlink;" width="400" height="400" viewBox="0 0 400 400"
	 overflow="visible" enable-background="new 0 0 400 400" xml:space="preserve">
<rect width="400" height="400"/>
<path fill="#0000FF" d="M330.248,144.0928c33.5879,19.5713,58.0996,53.8916,63.6465,95.4014
	c9.5371,71.3516-40.5762,136.9219-111.9277,146.459c-29.8262,3.9863-58.6504-2.4551-82.7891-16.5098"/>
<path fill="#00FF00" d="M199.1758,369.4395c-14.2422,8.166-30.2764,13.7578-47.5547,16.0684
	C80.2705,395.0449,14.6992,344.9316,5.1641,273.584c-7.1514-53.5098,19.2471-103.7764,62.9951-129.585
	c0.4561-0.2695,0.915-0.5361,1.375-0.7998"/>
<path fill="#FF0000" d="M69.5352,143.2061c0.1367-64.1943,47.6924-120.0107,113.0908-128.751
	C253.9746,4.918,319.5449,55.0312,329.082,126.3809c0.7969,5.9512,1.1777,11.8643,1.166,17.7061"/>
<path fill="#FF00FF" d="M198.5078,144.4434c14.5801-8.6035,31.0938-14.4893,48.9316-16.874
	c29.8379-3.9893,58.666,2.457,82.8086,16.5234v-0.0059c-0.1016,47.2324-25.875,89.9287-65.5312,112.6768"/>
<path fill="#FFFF00" d="M134.3467,256.3145c-33.583-19.5684-58.0996-53.8926-63.6494-95.4014
	c-0.7939-5.9521-1.1719-11.8652-1.1621-17.707l-0.001-0.0068c14.2422-8.1689,30.2764-13.7646,47.5547-16.0742
	c29.8359-3.9873,58.6592,2.4541,82.8018,16.5156"/>
<path fill="#00FFFF" d="M264.709,256.7598c-0.0957,47.2363-25.8672,89.9316-65.5332,112.6797l0.002,0.0039
	c-33.5928-19.5684-58.1172-53.8965-63.667-95.4141c-0.7959-5.9551-1.1738-11.8672-1.1641-17.7109"/>
<path fill="#FFFFFF" d="M264.7168,256.7637c-14.248,8.168-30.2793,13.7656-47.5586,16.0762
	c-29.8379,3.9844-58.6689-2.4551-82.8115-16.5254v0.0039c0.1006-46.6816,25.2783-88.9365,64.1611-111.875l1.3828-0.8027
	c33.5898,19.5703,58.1113,53.8945,63.6602,95.4082c0.793,5.9551,1.1738,11.8672,1.1582,17.7109L264.7168,256.7637z"/>
<g>
	<g>
		<path d="M188.1982,53.27c2.9341-0.5391,7.2451-0.8979,12.1553-0.8979c5.9873,0,10.1787,0.8979,13.0537,3.2334
			c2.4551,1.916,3.7715,4.7305,3.7715,8.4429c0,5.0894-3.6523,8.6226-7.125,9.8799v0.1797c2.8145,1.1377,4.3711,3.772,5.3887,7.4849
			c1.2578,4.6104,2.4551,9.8799,3.2334,11.4365h-9.3408c-0.5986-1.1377-1.6162-4.4312-2.7539-9.4009
			c-1.1377-5.0898-2.874-6.4072-6.647-6.4668h-2.6943v15.8677h-9.0415V53.27z M197.2397,70.5747h3.5928
			c4.5503,0,7.2456-2.2754,7.2456-5.8081c0-3.6523-2.5156-5.5684-6.707-5.5684c-2.2153,0-3.4727,0.1196-4.1313,0.2993V70.5747z"/>
	</g>
	<g>
		<path d="M94.6821,316.4814c-2.8145,0.958-8.1436,2.2754-13.4727,2.2754c-7.3652,0-12.6943-1.8564-16.4067-5.3887
			c-3.6523-3.5332-5.6885-8.8027-5.6885-14.7305c0.0601-13.4121,9.8203-21.0771,23.0532-21.0771
			c5.2095,0,9.2212,1.0186,11.1973,1.916l-1.916,7.3652c-2.2158-1.0176-4.9102-1.7363-9.3413-1.7363
			c-7.6045,0-13.4126,4.3115-13.4126,13.0537c0,8.3828,5.2695,13.2324,12.7539,13.2324c2.0361,0,3.7124-0.2393,4.4312-0.5381
			v-8.5029h-6.2275v-7.126h15.0298V316.4814z"/>
	</g>
	<g>
		<path d="M313.0645,269.8252c2.3945-0.4795,7.1855-0.8984,11.7959-0.8984c5.5684,0,8.9814,0.5391,11.916,2.2754
			c2.8145,1.4971,4.79,4.251,4.79,7.9639c0,3.5322-2.0957,6.8262-6.5869,8.5625v0.1191c4.6113,1.1982,8.0244,4.7305,8.0244,9.9404
			c0,3.7119-1.6768,6.5869-4.1924,8.5625c-2.9336,2.335-7.8438,3.6523-15.8672,3.6523c-4.4912,0-7.8438-0.2988-9.8799-0.5986
			V269.8252z M322.1055,285.2139h2.9941c4.8506,0,7.3652-1.9766,7.3652-4.9707c0-3.0537-2.335-4.6699-6.4668-4.6699
			c-2.0361,0-3.1738,0.1191-3.8926,0.2988V285.2139z M322.1055,303.1172c0.8984,0.1797,1.9766,0.1797,3.5332,0.1797
			c4.1318,0,7.7842-1.6172,7.7842-5.8682c0-4.0713-3.6523-5.6885-8.2031-5.6885h-3.1143V303.1172z"/>
	</g>
</g>
</svg>
