<?xml version="1.0" encoding="utf-8"?>
<!-- Generator: Adobe Illustrator 12.0.1, SVG Export Plug-In . SVG Version: 6.00 Build 51448)  -->
<!DOCTYPE svg PUBLIC "-//W3C//DTD SVG 1.1//EN" "http://www.w3.org/Graphics/SVG/1.1/DTD/svg11.dtd" [
	<!ENTITY ns_svg "http://www.w3.org/2000/svg">
	<!ENTITY ns_xlink "http://www.w3.org/1999/xlink">
]>
<svg  version="1.1" id="Layer_1" xmlns="&ns_svg;" xmlns:xlink="&ns_xlink;" width="272.41" height="526.6"
	 viewBox="0 0 272.41 526.6" overflow="visible" enable-background="new 0 0 272.41 526.6" xml:space="preserve">
<g>
	<path fill="#DCDDDE" d="M223.337,21.147c0.815,1.265,2.461,1.7,3.602,2.64c-1.006,1.235-2.734,1.747-4.801,1.92
		c-6.524,2.676-14.307,4.093-20.641,6.96c-10.562,2.719-20.66,5.898-30.479,9.36c-18.54,4.581-34.942,11.298-53.041,16.32
		c-18.822,7.018-39.279,12.4-58.32,19.2c-5.392,1.328-10.816,2.624-15.12,5.04c-7.454-5.106-14.49-10.63-23.52-14.16
		c1.197,1.443,3.22,2.06,5.28,2.64c1.273,1.688,4.188,1.733,5.28,3.6c4.702,2.018,8.043,5.397,12.24,7.92
		c-4.591,3.249-8.984,6.696-10.32,13.2c-1.282,1.118-0.777,4.023-1.92,5.28c-0.049,0.751,0.162,1.762-0.24,2.16
		c-8.761-6.039-18.285-11.315-25.2-19.2c5.127-14.553,19.375-19.984,35.28-23.76c14.317-5.442,30.041-9.479,44.4-14.88
		c14.733-3.992,28.927-8.206,43.68-12.72c6.253-1.914,12.505-4.338,18.72-6.24c1.519-0.464,3.093-0.462,4.561-0.96
		c11.028-3.742,21.842-7.767,33.12-10.8c8.427-3.174,17.158-6.042,26.16-8.64c3.644-1.396,7.135-2.944,11.521-3.6
		c2.797-1.71,8.162-1.811,11.279-0.72c3.742,0.338,6.703,1.457,8.641,3.6c5.037,2.723,9.875,5.645,13.92,9.36
		c-9.961,2.759-19.385,6.055-28.801,9.36C226.6,23.325,225.41,21.797,223.337,21.147z M212.779,10.347
		c-11.104,2.562-23.387,8.53-34.32,11.04c-2.008,2.071-5.859,2.299-7.199,5.04c-0.885,4.173,1.683,5.666,5.039,6.24
		c14.643-4.559,29.068-9.333,43.921-13.68c2.297-1.482,1.653-5.121,0.721-7.68C218.359,9.927,215.958,9.613,212.779,10.347z
		 M150.378,32.187c-5.473-1.362-15.417,2.219-17.521,5.04c0.202,0.725-0.379,1.452-0.24,2.16c0.124,0.631,1.81,2.39,2.4,2.64
		c4.351,1.848,12.946-0.996,16.319-2.16c0.504-1.176,1.629-1.732,2.4-2.64C154.445,34.123,152.167,32.632,150.378,32.187z
		 M118.938,42.027c-7.081,0.754-14.847,3.998-21.6,5.52c-2.218,3.717,1.985,5.793,6,5.52c6.689-1.871,12.783-4.338,19.92-5.76
		c0.85-1.15,2.467-1.533,2.16-3.84C123.787,41.443,121.243,41.781,118.938,42.027z"/>
	<path fill="#DCDDDE" d="M220.218,13.467c-2.213,2.9-6.264,3.16-9.6,4.32c-5.69,1.979-11.521,4.502-17.521,5.76
		c-2.728,1.434-6.36,1.96-9.12,3.36c-2.385,0.305-3.68-0.481-5.521-0.72c0.076-1.036-0.908-1.011-0.72-2.16
		c0.606-1.713,2.897-1.743,4.32-2.64c5.481-1.157,9.771-3.509,15.358-4.56c2.871-1.814,8.045-2.651,12.48-4.32
		c2.475-0.931,5.846-2.457,8.88-1.2c0.39,0.161,0.906,1.041,1.438,1.44C220.218,12.987,220.218,13.227,220.218,13.467z"/>
	<path fill="#FFFFFF" d="M176.779,24.267c-0.367,3.487,1.336,4.904,4.32,5.04c-2.153,2.459-8.777,3.046-9.12-0.72
		C171.854,27.213,174.52,23.382,176.779,24.267z"/>
	<path fill="#FFFFFF" d="M183.257,27.867c0.248,0.807-0.745,0.374-1.198,0.48C181.812,27.541,182.805,27.973,183.257,27.867z"/>
	<path d="M153.739,37.227c-0.772,0.907-1.896,1.464-2.399,2.64c-3.373,1.165-11.969,4.008-16.32,2.16
		c-0.59-0.25-2.276-2.009-2.4-2.64c-0.139-0.708,0.442-1.435,0.24-2.16c2.102-2.821,12.047-6.402,17.52-5.04
		C152.167,32.632,154.445,34.123,153.739,37.227z M152.779,36.507c0.165-0.607-0.135-1.346,0-1.68
		c-1.045-1.275-3.275-1.364-5.039-1.92c-5.416,1.305-12.357,1.084-14.161,6C135.711,44.003,151.707,40.453,152.779,36.507z"/>
	<path fill="#FFFFFF" d="M133.579,38.907c1.804-4.916,8.745-4.695,14.16-6c1.765,0.556,3.995,0.645,5.04,1.92
		c-0.135,0.334,0.165,1.073,0,1.68C151.707,40.453,135.711,44.003,133.579,38.907z M151.337,34.827
		c-5.773-1.7-12.969-0.079-16.319,2.88c-0.4,2.8,2.596,2.205,4.319,2.88c-1.008-0.93-1.359-5.069,0.721-5.04
		c0.393,1.777-0.77,4.652,0.48,5.04c0.156-1.059-0.104-3.287,0-5.04c3.002-0.621,9.48-3.229,8.16,2.88
		c-1.994,1.208-5.445,0.956-7.441,2.16c4.209-0.911,9.371-0.869,10.801-4.56C151.649,35.796,151.533,35.273,151.337,34.827z"/>
	<path fill="#FFFFFF" d="M149.417,34.827c0.578-0.098,0.521,0.438,1.201,0.24c0,0.88,0,1.76,0,2.64
		c-0.565-0.005-0.707,0.414-1.44,0.24C149.276,36.924,148.946,35.475,149.417,34.827z"/>
	<path fill="#FFFFFF" d="M137.179,36.507c0.4,0,0.8,0,1.199,0c-0.154,1.045,0.313,2.713-0.239,3.36c-0.16,0-0.32,0-0.479,0
		C136.614,39.632,137.444,37.521,137.179,36.507z"/>
	<path fill="#FFFFFF" d="M135.739,39.387c-0.331-0.309-0.238-1.042-0.24-1.68c0.95,0.31,0.49-0.79,1.44-0.479c0,0.64,0,1.28,0,1.92
		C136.36,39.048,136.417,39.585,135.739,39.387z"/>
	<path fill="#FFFFFF" d="M117.739,43.227c1.045,0.235,0.214,2.346,0.48,3.36c-4.833,1.087-8.798,3.042-13.92,3.84
		c0-0.96,0-1.92,0-2.88C108.848,46.176,113.585,44.993,117.739,43.227z"/>
	<path fill="#FFFFFF" d="M119.659,43.227c0.24,0,0.48,0,0.72,0c-0.152,0.808,0.31,2.229-0.24,2.64
		C119.128,45.837,119.9,44.025,119.659,43.227z"/>
	<path fill="#FFFFFF" d="M121.099,43.227c1.061-0.021,1.484,0.596,2.16,0.96c0.015,1.214-1.551,0.849-1.92,1.68
		C120.236,45.402,120.706,44.09,121.099,43.227z"/>
	<path fill="#FFFFFF" d="M118.938,43.707c0.545,0.255,0.091,1.509,0.24,2.16c-0.361,0.423-0.149-1.757-0.72-1.92
		C118.738,43.986,118.886,43.894,118.938,43.707z"/>
	<path fill="#FFFFFF" d="M102.858,48.027c0.24,0,0.48,0,0.72,0c0.293,1.03,0.42,2.178-0.24,2.88
		C102.314,50.811,103.11,48.896,102.858,48.027z"/>
	<path fill="#FFFFFF" d="M100.938,48.747c0.842-0.186,0.559,1.979,0.24,2.16C100.263,51.019,100.724,49.032,100.938,48.747z"/>
	<path fill="#FFFFFF" d="M101.659,48.747c1.138-0.206,0.933,2.304,0,2.16C101.659,50.187,101.659,49.467,101.659,48.747z"/>
	<path fill="#FFFFFF" d="M98.779,50.187c0.014-0.866,0.48-1.279,1.44-1.2c0,0.48,0,0.96,0,1.44
		C99.484,50.601,99.513,50.013,98.779,50.187z"/>
	<path d="M243.5,54.027c0.793,0.769,0.793,4.751,0,5.52C243.583,57.15,243.14,55.759,243.5,54.027z"/>
	<path d="M159.5,61.947c0.278-0.039,0.426,0.053,0.479,0.24c-0.317,5.203,0.635,11.675-0.479,16.08
		C159.5,72.827,159.5,67.387,159.5,61.947z"/>
	<path d="M157.337,62.667c0.24,0,0.48,0,0.722,0c-0.16,6.64,0.319,13.919-0.24,20.16c-1.014-3.743-0.457-10.96,0-13.44
		C156.833,66.578,158.064,65.737,157.337,62.667z"/>
	<path d="M153.019,65.547c0.797,2.416,0.797,8.144,0,10.56C153.019,72.587,153.019,69.067,153.019,65.547z"/>
	<path d="M151.337,80.667c-1.221-3.571-0.086-11.145-0.238-13.68c0.295-0.268,0.492-0.209,0.479,0.24
		C151.419,71.627,151.898,76.667,151.337,80.667z"/>
	<path d="M149.417,68.187c0.279-0.039,0.429,0.053,0.48,0.24c0,7.2,0,14.4,0,21.6c-1.107-6.027-0.17-14.163-0.48-21.12
		C149.417,68.667,149.417,68.427,149.417,68.187z"/>
	<path d="M147.739,70.587c0.558,5.043,0.082,13.197,0.24,19.44C147.421,84.983,147.897,76.829,147.739,70.587z"/>
	<path d="M145.58,76.347c0.239,0,0.479,0,0.719,0c0,2.8,0,5.6,0,8.4C144.744,82.986,146.083,78.585,145.58,76.347z"/>
	<path d="M268.218,78.987c0.279-0.039,0.428,0.053,0.48,0.24c-0.318,35.355,0.637,72.111-0.48,107.04
		C268.218,150.506,268.218,114.747,268.218,78.987z"/>
	<path d="M93.739,81.867c1.109,2.491,0.167,7.032,0.48,10.32C93.244,89.539,93.833,83.946,93.739,81.867z"/>
	<path d="M91.579,82.587c0.279-0.039,0.427,0.053,0.48,0.24c0,6.56,0,13.12,0,19.68c-1.105-5.387-0.171-12.888-0.48-19.2
		C91.579,83.067,91.579,82.827,91.579,82.587z"/>
	<path d="M89.898,83.787c0.557,5.124,0.083,13.358,0.24,19.68c0.077,0.294-0.039,1.482-0.24,0.72c0-0.48,0-0.96,0-1.44
		c0.205-0.765-0.209-0.911-0.48-1.2C90.363,96.9,89.676,90.256,89.898,83.787z"/>
	<path fill="#DCDDDE" d="M31.338,103.947c-1.151,1.685-2.581-1.654-4.32-1.68c0.843,1.478,2.926,1.714,3.84,3.12
		c-1.825,9.996-1.44,21.53-1.44,34.08c0,54.56,0.332,111.088-0.24,160.32c-0.624,53.753,0,109.553,0,164.4
		c0,7.831-0.653,15.891,0,23.52c0.974,11.376,6.185,19.976,11.52,27.12c-5.487-1.677-10.136-4.72-14.88-7.199
		c-4.785-2.501-9.312-5.21-14.16-7.681c-1.862-1.338-2.835-3.564-4.8-4.8c-2.597-5.361-4.653-10.053-5.28-16.561
		c-0.718-7.453,0-15.725,0-23.761c0-50.466-0.417-101.513,0.24-152.64c0.432-33.601,0.674-73.555,0.48-109.44
		c-0.136-25.14-0.301-53.311,0.24-81.84c0.031-1.618,0.439-3.093,0.48-4.56c0.035-1.252-0.542-2.491-0.48-3.6
		c0.245-4.399,1.139-13.522,3.36-17.76c1.708,1.083,4.188,3.723,6.48,5.52C18.208,95.078,25.009,99.583,31.338,103.947z"/>
	<path fill="#FFFFFF" d="M239.178,89.787c0.993-0.034,0.25,1.67,0.479,2.4C238.666,92.221,239.41,90.517,239.178,89.787z"/>
	<path fill="#FFFFFF" d="M239.178,94.587c0.868-0.228,0.335,0.945,0.479,1.44C238.792,96.254,239.324,95.082,239.178,94.587z"/>
	<path fill="#FFFFFF" d="M239.178,96.747c0.737-0.367,0.737,1.567,0,1.2C239.178,97.547,239.178,97.147,239.178,96.747z"/>
	<path d="M43.099,138.747c0.24,0,0.48,0,0.72,0c-0.344,49.927-0.225,105.134-0.24,159.602c-1.12-51.488-0.158-107.726-0.48-158.881
		C43.099,139.227,43.099,138.987,43.099,138.747z"/>
	<path d="M255.979,151.707c0.278-0.039,0.427,0.053,0.479,0.24c-0.314,7.987,0.629,17.402-0.479,24.96
		C255.947,168.371,255.99,160.591,255.979,151.707z"/>
	<path d="M262.218,154.587c0.52,0.28-0.032,1.632,0.721,1.68c-1.037,2.403-0.221,6.659-0.48,9.84c0,1.36,0,2.72,0,4.08
		c0,0.72,0,1.44,0,2.16c-0.33,0.764-0.236-0.848-0.24-1.2C262.218,165.627,262.218,160.107,262.218,154.587z"/>
	<path d="M258.138,155.067c0.279-0.039,0.428,0.053,0.48,0.24c0,11.84,0,23.68,0,35.52c-1.229-9.826-0.104-22.991-0.48-35.04
		C258.138,155.547,258.138,155.307,258.138,155.067z"/>
	<path d="M260.059,158.187c0.549,6.664,0.088,16.729,0.239,24.72C259.75,176.243,260.21,166.177,260.059,158.187z"/>
	<path d="M264.378,162.027c0.553,2.488,0.086,8.074,0.24,11.76C264.066,171.298,264.533,165.713,264.378,162.027z"/>
	<path d="M266.059,169.707c1.114,3.925,0.164,9.916,0.479,14.64c-0.906-0.188-0.707-1.493-0.721-2.16
		C265.748,178.659,266.321,173.634,266.059,169.707z"/>
	<path d="M268.218,187.707c1.054,0.307,0.209,2.511,0.48,3.6C267.574,190.547,268.373,189.19,268.218,187.707z"/>
	<path d="M267.979,192.267c1.521,0.746-0.087,1.785,0.72,3.36C267.587,195.378,268.105,193.5,267.979,192.267z"/>
	<path d="M268.218,195.867c0.16,0,0.32,0,0.48,0c0,0.64,0,1.28,0,1.92c-0.16,0-0.32,0-0.48,0
		C268.218,197.147,268.218,196.507,268.218,195.867z"/>
	<path d="M48.858,208.587c0.24,0,0.48,0,0.72,0c-0.269,1.922,0.344,3.862-0.72,4.56C48.558,210.868,49.609,210.105,48.858,208.587z"
		/>
	<path d="M267.979,208.587c0.192,0.127,0.39,0.25,0.72,0.24c0.348,0.908-0.658,0.461-0.48,1.2
		C267.689,209.997,268.117,209.009,267.979,208.587z"/>
	<path d="M48.858,215.307c0.24,0,0.48,0,0.72,0c-0.4,12.755-0.105,24.202-0.24,36.72c-1.11-10.997-0.167-24.078-0.48-36
		C48.858,215.787,48.858,215.547,48.858,215.307z"/>
	<path d="M267.979,222.747c0.608,13.211,0.058,29.056,0.239,44.641c0,15.438,0,30.879,0,46.318c0,30.88,0,61.761,0,92.641
		c0.175,0.868-0.414,0.868-0.239,0c0-0.479,0-0.96,0-1.439c0-0.96,0-1.92,0-2.88c0-1.92,0-3.841,0-5.761c0-3.84,0-7.68,0-11.521
		c0-7.68,0-15.359,0-23.04c0-15.439,0-30.88,0-46.319C267.979,284.507,267.979,253.627,267.979,222.747z"/>
	<path d="M216.859,240.027c1.206,1.491,0.824,6.632,0,8.4C216.859,245.627,216.859,242.827,216.859,240.027z"/>
	<path d="M216.859,249.147c0.279-0.039,0.428,0.053,0.479,0.24c0.08,7.382,0,14.49,0,22.799c0,2.209-0.784,5.342,1.44,6.24
		c0.872-6.98-0.549-16.552,0.72-23.521c0.156,8.084-0.313,16.795,0.24,24.479c14.854,10.906,24.321,27.198,27.84,49.439
		c0.166,2.395-0.076,5.196,0.721,6.96c1.148,32.771-10.397,56.359-24.239,76.08c-5.06,7.206-11.117,13.709-17.761,19.2
		c-3.457,2.855-6.596,5.916-10.08,8.399c-3.678,2.62-7.68,4.479-11.76,6.72c-1.457,0.802-2.735,1.953-4.32,2.641
		c-6.146,2.665-12.865,4.366-18.96,6.479c-3.228,0.212-6.054,0.826-8.88,1.439c-4.977-0.26-9.799,0.514-14.641,0
		c-11.032-1.17-20.333-5.128-28.08-9.359c-0.56,4.562-0.08,10.159-0.24,15.12c-0.866-2.033-0.479-5.521-0.479-8.641
		c0-3.042,0.863-6.747-1.2-7.92c-1.436,6.164,0.476,15.676-0.96,21.84c0-5.736,0-12.547,0-18.72c0-1.825,0.528-4.172-1.2-5.04
		c-0.785,8.717-0.528,19.452-0.48,27.359c0.007,1.128,0.83,2.831-0.48,3.601c0-7.857,0-16.888,0-25.2c0-2.503,0.859-5.812-1.2-7.199
		c-0.833,12.48-0.443,27.506-0.48,40.319c-0.005,1.701,0.599,3.671-0.48,5.04c0-13.486,0-28.305,0-42.24
		c0-1.498,0.707-4.146-1.2-4.8c-1.109,9.233-0.168,20.558-0.48,30.721c-1.109-9.542-0.168-21.213-0.48-31.681
		c-0.354-0.688-1.222-0.857-1.44-1.681c-0.56,5.761-0.081,12.561-0.24,18.721c-1.105-5.302-0.171-12.733-0.48-18.96
		c-2.692-3.775-6.123-7.01-8.64-10.801c-1.271-1.915-2.001-4.193-3.12-6.479c-1.026-2.096-2.558-4.073-3.36-6.239
		c-2.31-6.231-4.122-13.938-5.04-21.12c-1.162-9.091-0.552-18.324,0.72-27.12c2.753-19.042,10.547-33.71,18-47.521
		c2.351-2.129,3.887-5.073,5.52-7.92c2.172-2.229,4.416-4.384,6-7.2c15.25-16.109,32.62-30.1,59.04-35.04
		c0.777,0.297,0.184-0.776,0.96-0.479c12.827-1.75,26.841-0.941,37.921,3.601c2.703,1.108,3.173,1.389,6,2.88
		c1.641,0.866,0.96-2.006,0.96-4.561c0-2.353,0-4.155,0-5.279c0-1.76,0-3.52,0-5.28c0-0.88,0-1.76,0-2.64
		c-0.188-1.071,0.368-1.628,0.239-0.24c0,3.44,0,6.88,0,10.32c0.477,2.964-1.137,8.018,1.199,9.119
		c0.562-8.239,0.08-17.52,0.24-26.159c0.93,5.118,0.479,13.689,0.479,21.12c0,2.029-0.953,5.514,1.44,6
		C217.178,268.187,216.699,258.347,216.859,249.147z M219.019,279.867c-9.73-6.388-23.122-12.203-38.4-11.28
		c-3.594-0.152-6.675,0.206-10.08,0.24c-0.894,0.785-2.781,0.579-4.32,0.721c-3.752,0.807-6.86,2.258-10.799,2.881
		c-7.262,2.817-14.082,6.078-20.641,9.6c-0.695,1.146-1.814,1.865-3.36,2.16c-4.117,3.643-9.1,6.42-12.72,10.56
		c-0.325,0.076-0.458,0.342-0.96,0.239c-2.859,3.222-5.487,6.675-8.88,9.361c-0.806,1.834-2.119,3.16-3.6,4.318
		c0.098,0.579-0.438,0.522-0.24,1.2c-2.248,1.201-3.103,3.92-4.32,5.76c-1.21,1.831-3.024,3.459-4.08,5.28
		c-0.238,0.411-0.022,1.014-0.24,1.439c-0.423,0.828-1.476,1.362-1.92,2.16c-1.241,2.229-2.024,4.833-3.12,7.199
		c-1.034-0.314-0.297,1.143-1.2,0.96c-4.235,10.99-9.03,22.138-10.8,35.761c-0.931,7.169-0.94,13.588-0.72,21.601
		c0.021,0.378,0.612,0.188,0.48,0.72c1.007,13.521,4.435,24.749,10.08,33.36c0.916,1.396,1.48,2.367,2.16,3.359
		c0.24,0.351,0.018,0.819,0.24,1.199c0.351,0.603,1.457,1.186,1.92,1.921c1.094,1.736,2.407,2.942,3.6,4.319
		c1.521,1.757,2.846,3.772,4.56,5.279c0.253,0.224,0.906,0.033,1.2,0.24c0.412,0.289,0.526,1.104,0.96,1.439
		c1.114,0.862,2.208,1.244,3.12,1.92c0.524,0.389,1.071,0.542,1.68,0.96c1.054,0.724,2.023,2.008,3.12,2.641
		c1.265,0.73,2.973,0.872,4.32,1.681c0.454,0.271,0.508,0.979,0.96,1.199c0.45,0.221,1.283-0.011,1.92,0.24
		c0.542,0.213,0.94,0.994,1.44,1.199c1.382,0.568,3.182,0.52,4.56,0.96c0.979,0.312,1.73,0.972,2.64,1.2
		c7.837,1.97,17.27,1.916,27.12,1.439c0.895-0.786,2.781-0.578,4.32-0.72c0.585-0.694,1.916-0.644,3.119-0.721
		c8.479-2.194,16.279-5.629,22.801-9.12c3.014-1.613,5.012-2.6,7.439-4.319c0.304-0.216,0.93-0.587,1.199-0.721
		c1.53-0.755,1.873-1.193,3.12-2.159c2.841-2.201,5.851-4.296,8.16-6.48c0.404-0.383,1.103-0.408,1.438-0.72
		c0.357-0.33,0.347-1.061,0.722-1.439c0.163-0.165,0.788-0.104,0.96-0.24c1.277-1.025,2.861-2.861,4.318-4.319
		c1.473-1.472,3.203-3.048,4.32-4.319c0.274-0.312-0.016-0.82,0.24-1.2c0.799-1.188,2.568-2.179,3.6-3.359
		c1.133-1.298,1.658-2.144,2.4-3.359c2.038-3.342,4.57-6.451,6.721-9.601c0.553-0.811,0.494-1.873,0.959-2.641
		c0.256-0.421,0.971-0.549,1.2-0.96c0.478-0.853,0.532-2.061,0.96-2.88c1.049-2.013,2.569-3.562,3.36-5.521
		c0.19-0.476,0.046-1.188,0.239-1.681c0.979-2.486,2.502-4.382,3.359-6.479c0.512-1.254,0.477-2.7,0.961-4.08
		c1.43-4.073,3.182-7.824,3.6-12.479c2.605-6.733,2.367-15.655,3.359-23.521c-0.838-0.913,0.166-0.758,0-2.16
		c-0.89-2.31-0.39-6.011-0.72-8.88c-2.896-22.863-12.526-38.994-26.642-50.641c-0.818-0.18-0.305,0.977-1.198,0.721
		C219.019,280.827,219.019,280.347,219.019,279.867z"/>
	<path d="M210.859,259.947c0.191,0.127,0.391,0.25,0.721,0.24c-0.82,1.93-0.263,7.531-0.479,11.759
		c0.009-0.187-0.009,2.916-0.24,0.721c-0.344-3.258,0.236-5.895,0-12C210.859,260.427,210.859,260.187,210.859,259.947z"/>
	<path fill="#DCDDDE" d="M219.019,281.308c0.895,0.254,0.38-0.9,1.199-0.722c14.113,11.646,23.744,27.776,26.641,50.641
		c0.33,2.869-0.17,6.57,0.721,8.881c0.164,1.401-0.838,1.246,0,2.159c-0.992,7.864-0.754,16.786-3.36,23.521
		c-0.417,4.655-2.171,8.406-3.601,12.479c-0.484,1.381-0.447,2.826-0.959,4.08c-0.857,2.099-2.381,3.993-3.361,6.479
		c-0.192,0.491-0.047,1.205-0.238,1.681c-0.791,1.957-2.312,3.508-3.359,5.521c-0.429,0.819-0.482,2.027-0.961,2.88
		c-0.23,0.411-0.943,0.539-1.199,0.96c-0.465,0.768-0.408,1.83-0.961,2.641c-2.147,3.148-4.682,6.259-6.72,9.601
		c-0.741,1.217-1.269,2.062-2.399,3.359c-1.031,1.183-2.801,2.172-3.601,3.359c-0.256,0.38,0.034,0.888-0.239,1.2
		c-1.119,1.271-2.85,2.849-4.32,4.319c-1.459,1.458-3.043,3.294-4.319,4.319c-0.172,0.138-0.797,0.075-0.96,0.24
		c-0.375,0.38-0.363,1.109-0.721,1.439c-0.338,0.312-1.035,0.337-1.439,0.721c-2.311,2.185-5.318,4.278-8.16,6.479
		c-1.248,0.966-1.59,1.404-3.119,2.159c-0.271,0.134-0.896,0.505-1.201,0.721c-2.428,1.722-4.426,2.706-7.438,4.319
		c-6.521,3.491-14.321,6.926-22.801,9.12c-1.203,0.077-2.534,0.025-3.119,0.721c-1.539,0.142-3.427-0.066-4.319,0.72
		c-9.852,0.477-19.284,0.529-27.121-1.439c-0.91-0.229-1.661-0.888-2.64-1.2c-1.378-0.44-3.178-0.392-4.56-0.96
		c-0.5-0.205-0.897-0.986-1.44-1.199c-0.637-0.251-1.47-0.021-1.92-0.24c-0.452-0.221-0.506-0.928-0.96-1.199
		c-1.347-0.809-3.055-0.949-4.32-1.681c-1.097-0.633-2.066-1.917-3.12-2.641c-0.609-0.418-1.156-0.571-1.68-0.96
		c-0.912-0.676-2.006-1.058-3.12-1.92c-0.434-0.336-0.548-1.15-0.96-1.439c-0.294-0.207-0.946-0.018-1.2-0.239
		c-1.714-1.508-3.039-3.523-4.56-5.28c-1.193-1.377-2.506-2.583-3.6-4.319c-0.463-0.734-1.569-1.318-1.92-1.921
		c-0.222-0.38,0-0.85-0.24-1.199c-0.68-0.992-1.244-1.963-2.16-3.359c-5.646-8.611-9.073-19.839-10.08-33.36
		c0.132-0.532-0.458-0.342-0.48-0.72c-0.221-8.013-0.211-14.432,0.72-21.601c1.77-13.623,6.565-24.771,10.8-35.761
		c0.903,0.183,0.166-1.274,1.2-0.96c1.096-2.366,1.879-4.971,3.12-7.199c0.444-0.798,1.497-1.332,1.92-2.16
		c0.218-0.427,0.002-1.028,0.24-1.439c1.056-1.821,2.87-3.449,4.08-5.28c1.217-1.84,2.072-4.559,4.32-5.76
		c-0.198-0.678,0.338-0.621,0.24-1.2c1.481-1.158,2.794-2.483,3.6-4.319c3.393-2.687,6.021-6.14,8.88-9.359
		c0.501,0.102,0.635-0.164,0.96-0.24c3.62-4.141,8.603-6.917,12.72-10.561c1.546-0.293,2.666-1.015,3.36-2.159
		c6.56-3.521,13.38-6.781,20.64-9.601c3.938-0.621,7.049-2.072,10.801-2.88c1.539-0.142,3.427,0.065,4.32-0.721
		c3.404-0.034,6.485-0.394,10.08-0.24c15.277-0.923,28.668,4.894,38.399,11.28C219.019,280.347,219.019,280.827,219.019,281.308z
		 M168.138,328.827c-4.025,0.447-5.77,0.718-9.359,1.681c-15.164,8.036-26.637,19.764-26.64,42.96
		c2.479,14.081,10.144,22.977,26.399,23.279c0.379-0.021,0.188-0.612,0.721-0.479c4.928,0.39,8.017-1.659,10.801-2.88
		c1.471-0.646,3.003-0.992,4.079-1.681c3.202-2.047,5.329-4.368,7.921-6.96c1.645-1.645,3.652-3.047,4.8-4.561
		c0.292-0.386,0.324-1.309,0.72-1.92c4.537-7.021,8.824-16.544,7.2-28.8C192.22,337.219,182.347,327.25,168.138,328.827z"/>
	<path d="M194.779,349.467c1.624,12.256-2.664,21.779-7.199,28.8c-0.396,0.611-0.429,1.534-0.721,1.921
		c-1.146,1.513-3.156,2.915-4.8,4.56c-2.593,2.592-4.72,4.913-7.921,6.96c-1.076,0.688-2.608,1.035-4.079,1.681
		c-2.784,1.221-5.873,3.27-10.802,2.88c-0.531-0.133-0.34,0.458-0.719,0.479c-16.256-0.304-23.921-9.198-26.4-23.279
		c0.003-23.196,11.477-34.924,26.64-42.96c3.591-0.963,5.334-1.232,9.359-1.681C182.347,327.25,192.22,337.219,194.779,349.467z
		 M165.5,329.787c-4.184,1.178-7.859,2.859-11.761,4.32c-1.581,1.776-3.517,3.203-5.76,4.319c-5.681,5.999-11.24,12.12-13.2,21.84
		c-1.57,4.053-1.688,10.215-1.2,15.601c3.035,12.726,11.674,20.854,28.081,19.439c0.592-0.825,2.278-0.439,3.359-0.72
		c1.665-0.432,2.812-1.445,4.08-1.921c0.492-0.185,1.033-0.048,1.439-0.239c1.821-0.861,2.621-1.992,3.84-2.641
		c1.104-0.588,1.309-0.958,2.16-1.439c2.834-1.604,5.809-4.726,7.68-6.96c0.615-0.734,0.877-1.688,1.439-2.399
		c0.303-0.382,0.955-0.356,1.2-0.721c0.259-0.386-0.022-0.992,0.24-1.439c0.21-0.356,0.952-0.55,1.198-0.96
		c1.134-1.883,1.688-3.95,2.4-5.76c0.274-0.694,0.999-1.155,1.2-1.681c1.785-4.665,1.993-10.602,2.16-16.801
		c-0.022-0.378-0.612-0.188-0.479-0.72c-0.558-3.562-0.863-6.109-2.4-9.12c-1.062-2.085-3.233-3.62-4.319-5.04
		c-0.327-0.427-0.165-0.891-0.479-1.199c-0.864-0.849-2.719-1.48-4.319-2.399c-1.013-0.58-1.575-1.562-2.399-1.921
		c-1.662-0.722-3.402-0.812-5.281-0.96C172.083,328.91,168.718,330.046,165.5,329.787z"/>
	<path fill="#FFFFFF" d="M174.378,330.267c1.877,0.146,3.617,0.238,5.279,0.96c0.825,0.357,1.389,1.341,2.4,1.921
		c1.602,0.919,3.455,1.552,4.318,2.399c0.315,0.31,0.153,0.772,0.48,1.199c1.086,1.42,3.256,2.955,4.318,5.04
		c1.537,3.011,1.845,5.56,2.4,9.12c-0.132,0.532,0.459,0.342,0.48,0.72c-0.167,6.199-0.375,12.136-2.16,16.801
		c-0.201,0.524-0.926,0.985-1.2,1.681c-0.714,1.81-1.269,3.877-2.399,5.76c-0.246,0.41-0.989,0.604-1.199,0.96
		c-0.264,0.447,0.02,1.055-0.24,1.439c-0.245,0.363-0.898,0.339-1.199,0.721c-0.564,0.713-0.824,1.665-1.441,2.399
		c-1.87,2.234-4.846,5.356-7.68,6.96c-0.852,0.481-1.056,0.853-2.16,1.439c-1.217,0.647-2.018,1.778-3.84,2.641
		c-0.404,0.191-0.947,0.056-1.438,0.239c-1.269,0.476-2.415,1.489-4.08,1.921c-1.081,0.279-2.769-0.105-3.36,0.72
		c-16.404,1.413-25.045-6.715-28.08-19.439c-0.487-5.386-0.37-11.548,1.2-15.601c1.96-9.72,7.519-15.841,13.2-21.84
		c2.243-1.116,4.178-2.543,5.76-4.319c3.9-1.461,7.577-3.144,11.76-4.32C168.718,330.046,172.083,328.91,174.378,330.267z"/>
	<path d="M267.979,408.267c0.399,1.844,0.399,5.357,0,7.2C267.188,413.586,268.041,412.068,267.979,408.267z"/>
	<path d="M268.699,430.347c0.666-0.415-0.299,2.852,0.721,2.88c0.18,0.739-0.828,0.292-0.479,1.2
		C268.382,433.542,268.855,431.63,268.699,430.347z"/>
	<path d="M268.699,436.827c0.53,0.354,0.102,3.733,0.24,5.28C268.41,441.751,268.835,438.373,268.699,436.827z"/>
	<path d="M270.138,23.547c0.604,2.596,1.515,4.886,2.16,7.44c0.248,40.192,0,75.961,0,124.32c0,39.617,0,81.007,0,121.201
		c0,5.515-0.027,10.998,0,16.319c-0.041,3.652,0.056,6.902,0,10.08c-0.174,9.857-0.092,14.593-0.479,22.319
		c-0.957,19.079,0,39.952,0,60.479c0,10.104,0,20.363,0,30.24c0,12.656,1.302,26.357-0.96,36.72c-1.4,6.416-5.258,10.498-9.602,14.4
		c-1.088,0.271-1.928,0.792-2.639,1.439c-31.459,9.343-62.842,18.757-93.601,28.8c-15.12,4.589-30.574,9.642-46.32,14.88
		c-7.435,2.475-15.363,4.756-23.28,7.2c-3.739,1.155-7.834,2.345-11.76,3.601c-3.902,1.248-7.879,3.128-11.52,3.601
		c-0.23,0.029-0.488-0.002-0.72,0c-12.796,0.081-23.545-6.18-33.36-11.04c-0.902-0.447-1.502-1.088-2.4-1.439
		c-0.88-0.347-1.938-0.323-2.88-0.721c-1.637-0.688-2.938-2.212-4.32-3.12c-2.704-1.774-5.821-2.956-8.64-4.561
		c-2.825-1.607-5.546-3.418-8.64-4.56c-1.706-1.734-2.998-3.884-5.04-5.28c-2.892-5.603-5.094-11.318-5.76-18.72
		c-0.851-9.459,0-20.089,0-30.24c0-44.173,0.108-94.34,0.72-134.399c0.268-17.544,0-35.535,0-52.8c0-15.984-0.31-35.385,0.48-48.48
		c-0.631-1.687-0.804-5.308,0-6.96c-0.533-1.508-0.413-1.716,0-3.84c-0.509-1.498,0.082-1.878-0.48-2.64
		c0.833-5.043,0.298-11.474,0.48-17.52c0.633-21.009,0.078-40.48,0-58.32c-0.037-8.358-0.518-17.338,0.24-25.2
		c0.844-8.758,4.244-15.483,7.92-21.84c5.996-6.244,13.264-11.216,23.52-13.2c27.242-9.318,54.881-18.238,83.52-26.16
		c13.406-4.526,27.542-8.945,41.521-13.44c13.479-4.334,27.93-8.589,41.521-13.44c6.876-2.455,13.563-4.567,20.64-6.72
		c5.182-1.576,9.047-2.618,15.602-1.44c2.005,0.361,4.24,1.062,5.76,1.92c7.188,4.059,14.801,10.386,22.08,15.12
		c0.812,0.529,1.536,0.45,2.16,0.96C267.605,19.771,268.484,21.906,270.138,23.547z M12.378,90.507
		c-2.292-1.797-4.772-4.437-6.48-5.52c-2.221,4.237-3.115,13.36-3.36,17.76c-0.062,1.109,0.515,2.348,0.48,3.6
		c-0.041,1.467-0.449,2.942-0.48,4.56c-0.542,28.53-0.376,56.7-0.24,81.84c0.194,35.886-0.048,75.84-0.48,109.439
		c-0.657,51.128-0.24,102.175-0.24,152.641c0,8.036-0.718,16.308,0,23.761c0.627,6.508,2.683,11.198,5.28,16.561
		c1.965,1.234,2.938,3.462,4.8,4.8c4.848,2.471,9.375,5.18,14.16,7.681c4.744,2.479,9.393,5.522,14.88,7.199
		c-5.335-7.146-10.546-15.744-11.52-27.12c-0.653-7.629,0-15.688,0-23.52c0-54.849-0.624-110.647,0-164.4
		c0.571-49.232,0.24-105.76,0.24-160.32c0-12.55-0.385-24.084,1.44-34.08c-0.914-1.406-2.997-1.643-3.84-3.12
		c1.739,0.026,3.168,3.365,4.32,1.68C25.009,99.583,18.208,95.078,12.378,90.507z M228.619,24.027
		c9.416-3.305,18.84-6.601,28.801-9.36c-4.045-3.715-8.883-6.637-13.92-9.36c-1.938-2.143-4.897-3.262-8.641-3.6
		c-3.117-1.091-8.482-0.99-11.279,0.72c-4.386,0.656-7.877,2.204-11.521,3.6c-9.002,2.599-17.733,5.466-26.16,8.64
		c-11.278,3.033-22.092,7.058-33.12,10.8c-1.468,0.498-3.042,0.496-4.561,0.96c-6.215,1.902-12.467,4.327-18.72,6.24
		c-14.753,4.514-28.947,8.728-43.68,12.72c-14.359,5.401-30.083,9.438-44.4,14.88c-15.904,3.776-30.153,9.208-35.28,23.76
		c6.915,7.885,16.438,13.161,25.2,19.2c0.402-0.398,0.191-1.409,0.24-2.16c1.143-1.257,0.638-4.163,1.92-5.28
		c1.336-6.504,5.729-9.951,10.32-13.2c-4.197-2.523-7.539-5.902-12.24-7.92c-1.093-1.867-4.007-1.913-5.28-3.6
		c-2.06-0.58-4.083-1.197-5.28-2.64c9.03,3.53,16.066,9.054,23.52,14.16c4.304-2.416,9.728-3.712,15.12-5.04
		c19.041-6.8,39.498-12.182,58.32-19.2c18.098-5.022,34.5-11.739,53.041-16.32c9.818-3.461,19.918-6.641,30.479-9.36
		c6.334-2.867,14.115-4.285,20.641-6.96c2.066-0.173,3.795-0.685,4.801-1.92c-1.141-0.94-2.785-1.375-3.602-2.64
		C225.41,21.797,226.6,23.325,228.619,24.027z M228.138,24.987c-13.719,4.521-27.428,9.052-41.76,12.96
		c-10.684,4.117-23.108,6.491-33.601,10.8c-10.134,2.586-18.958,6.483-29.28,8.88c-0.097,0.863-1.546,0.373-1.68,1.2
		c-25.496,7.705-50.272,16.128-75.84,23.76c-0.333,0.147-0.036,0.924-0.48,0.96c-8.479,2.641-11.486,10.754-13.2,20.16
		c2.932,2.588,7.092,3.948,11.28,5.28c-4.84-0.44-7.827-2.732-11.28-4.56c0.378,3.282,5.629,3.607,7.92,5.76
		c2.087-0.167,2.812,1.027,4.8,0.96c0.73-1.732-0.533-1.334-1.2-2.16c1.217,0.178,1.895-0.185,2.16-0.96
		c0.244,1.363-0.312,1.928-0.72,2.64c-0.297,0.776,0.776,0.183,0.48,0.96c-1.647,2.113-0.283,7.237-1.92,9.36
		c0.65-2.709,0.626-6.093,0.72-9.36c-4.993-1.007-8.741-3.259-12.48-5.52c-0.296,2.397-1.284,6.266-1.44,9.12
		c-0.769,14.025,0,31.346,0,48.48c0,7.919,0,16.294,0,24.24c0,8.645,1.062,17.489,0,24.24c-0.237,1.505-0.284,8.246-0.24,8.64
		c0.036,0.323-0.01,0.91-0.24,1.44c0.613,1.136-0.175,0.906,0,2.64c-0.041,0.681,0.812,0.469,0.48,1.44
		c-0.71,0.747-0.71,3.333,0,4.08c-0.887,1.17-0.665,5.273,0,6.48c-1.321,2.909-0.106,6.039,0,8.4c0.017,0.383-0.523,0.174-0.48,0.72
		c0.132,1.666-0.124,5.107,0.48,7.2c-0.862,5.413-0.48,13.725-0.48,21.12c0,20.414,0,40.812,0,60.721
		c0,27.843-0.842,55.718-0.24,80.159c0.5,20.322-0.509,52.737,0.24,73.2c2.228,10.893,5.86,20.38,12.72,26.641
		c2.022-0.155,3.782,0.213,5.52,0c3.976-0.486,6.899-2.562,9.6-3.36c-3.319,2.681-7.981,4.02-14.16,3.841
		c2.085,5.323,10.155,1.15,13.68,0.479c-2.576,1.504-5.708,2.452-9.6,2.641c5.826,4.494,14.132,6.508,24,6.96
		c59.783-18.303,117.76-38.397,178.561-55.681c6.852-3.39,12.766-7.714,15.601-15.12c-1.767,6.714-6.804,10.156-11.761,13.681
		c10.195-2.594,15.297-10.347,16.561-21.359c0.807-7.023,0-15.178,0-23.28c0-29.556-0.02-57.336,0-83.279
		c0.032-44.107,0.24-93.307,0.24-139.44c0-15.64-0.369-36.966,0.479-49.44c-0.551-2.322,0.239-5.342-0.479-8.4
		c1.247-1.05,0.003-2.922,0-4.08c0,0.206,0.465-0.812,0.479-0.96c0.807-8.057,0-17.151,0-26.16c0-25.907,0-53.806,0-78.72
		c-0.918-8.441-4.533-14.186-11.039-17.04c-1.631,0.11-2.701-0.339-3.84-0.72c-8.513,3.568-18.562,5.598-26.881,9.36
		c5.911,3.929,13.176,6.504,14.16,15.36c-0.314,3.846,0.632,8.952-0.48,12c-0.018-4.783,0.112-9.712-0.24-14.16
		c-0.629-1.691-1.586-3.054-2.158-4.8c-1.249,0.031-2.003,0.558-2.881,0.96c1.336,1.946,2.185,5.654,1.439,8.88
		c-0.234-2.505-0.104-6.702-1.92-8.88c-25.188,7.292-49.883,15.078-74.88,22.56c-13.942,5.098-28.728,9.353-43.44,13.68
		c-5.889,2.591-13.16,3.8-19.2,6.24c-14.747,4.773-31.46,7.581-42.72,15.84c0.265,1.259,1.666,2.648,0.96,4.08
		c-0.473-1.367-0.577-3.103-1.68-3.84c-1.917,1.062,0.999,3.871,0.48,5.04c-0.801-1.04-0.917-2.763-1.92-3.6
		c-4.581,2.939-7.142,7.898-9.36,13.2c1.309-6.532,5.626-10.054,9.12-14.4c-0.643-1.757-2.006-2.794-2.64-4.56
		c-2.045-1.636-5.522-3.116-6.48-5.04c2.529,2.031,5.567,3.553,7.68,6c0.637,1.363,0.986,3.014,2.64,3.36
		c0.979-2.505-2.449-4.41-3.84-5.76c-1.659-1.61-3.068-2.863-4.56-4.32c3.847,2.233,6.775,5.385,9.36,8.88
		c1.347,0.067,1.661-0.899,2.4-1.44c0.763-0.037,1.056-0.544,1.92-0.48c6.169-4.63,15.459-6.141,23.28-9.12
		c3.337-0.743,6.471-1.689,9.36-2.88c26.609-7.471,51.961-16.199,78.241-24c1.217-1.103,3.726-0.915,5.039-1.92
		c5.201-1.59,10.317-2.943,15.602-4.56c6.857-2.098,14.242-4.559,20.64-6.48c4.345-1.304,8.491-2.482,12.24-3.6
		c3.505-1.045,8.258-1.788,10.8-3.6c-1.332-1.469-3.516-2.085-4.8-3.6c2.914,0.548,5.244,5.351,8.399,2.64
		C236.621,29.785,232.857,26.908,228.138,24.987z"/>
	<path fill="#FFFFFF" d="M220.218,15.627c-0.44,1.879-3.166,1.474-4.801,2.16C216.889,16.937,218.626,16.355,220.218,15.627z"/>
	<path fill="#FFFFFF" d="M240.378,32.667c-3.155,2.711-5.485-2.092-8.399-2.64c1.284,1.515,3.468,2.131,4.8,3.6
		c-2.542,1.812-7.295,2.555-10.8,3.6c-3.749,1.117-7.896,2.295-12.24,3.6c-6.396,1.921-13.782,4.382-20.64,6.48
		c-5.283,1.617-10.398,2.97-15.602,4.56c-1.313,1.005-3.822,0.817-5.039,1.92c-26.278,7.801-51.631,16.529-78.241,24
		c-2.89,1.191-6.023,2.137-9.36,2.88c-7.821,2.979-17.11,4.489-23.28,9.12c-0.864-0.064-1.157,0.443-1.92,0.48
		c-0.739,0.541-1.053,1.507-2.4,1.44c-2.585-3.495-5.513-6.647-9.36-8.88c1.492,1.458,2.901,2.71,4.56,4.32
		c1.392,1.35,4.819,3.254,3.84,5.76c-1.654-0.346-2.003-1.997-2.64-3.36c-2.113-2.447-5.151-3.969-7.68-6
		c0.958,1.924,4.435,3.404,6.48,5.04c0.634,1.766,1.998,2.803,2.64,4.56c-3.494,4.346-7.812,7.868-9.12,14.4
		c2.218-5.302,4.779-10.261,9.36-13.2c1.003,0.837,1.12,2.561,1.92,3.6c0.519-1.169-2.397-3.979-0.48-5.04
		c1.103,0.737,1.207,2.473,1.68,3.84c0.706-1.431-0.695-2.82-0.96-4.08c11.26-8.26,27.973-11.067,42.72-15.84
		c6.04-2.439,13.311-3.648,19.2-6.24c14.713-4.328,29.498-8.583,43.44-13.68c24.997-7.482,49.692-15.268,74.88-22.56
		c1.814,2.179,1.686,6.375,1.92,8.88c0.744-3.226-0.104-6.935-1.439-8.88c0.878-0.402,1.632-0.929,2.881-0.96
		c0.572,1.746,1.529,3.109,2.158,4.8c0.354,4.447,0.224,9.377,0.24,14.16c1.112-3.048,0.166-8.154,0.48-12
		c-0.984-8.855-8.249-11.431-14.16-15.36c8.318-3.762,18.368-5.792,26.881-9.36c1.139,0.381,2.209,0.83,3.84,0.72
		c6.506,2.854,10.121,8.599,11.039,17.04c0,24.915,0,52.813,0,78.72c0,9.009,0.807,18.103,0,26.16
		c-0.015,0.148-0.479,1.166-0.479,0.96c0.003,1.158,1.247,3.03,0,4.08c0.719,3.058-0.071,6.079,0.479,8.4
		c-0.849,12.474-0.479,33.8-0.479,49.44c0,46.134-0.208,95.333-0.24,139.44c-0.02,25.943,0,53.724,0,83.279
		c0,8.104,0.807,16.257,0,23.28c-1.264,11.014-6.365,18.767-16.561,21.359c4.957-3.523,9.994-6.967,11.761-13.681
		c-2.835,7.406-8.749,11.73-15.601,15.12c-60.801,17.281-118.777,37.378-178.561,55.681c-9.868-0.452-18.174-2.466-24-6.96
		c3.892-0.188,7.024-1.137,9.6-2.641c-3.524,0.671-11.594,4.844-13.68-0.479c6.179,0.179,10.84-1.16,14.16-3.841
		c-2.701,0.798-5.624,2.874-9.6,3.359c-1.738,0.214-3.498-0.154-5.52,0c-6.86-6.26-10.492-15.747-12.72-26.64
		c-0.749-20.463,0.26-52.878-0.24-73.2c-0.602-24.441,0.24-52.316,0.24-80.16c0-19.906,0-40.306,0-60.72
		c0-7.396-0.382-15.707,0.48-21.12c-0.604-2.093-0.348-5.535-0.48-7.2c-0.043-0.545,0.497-0.336,0.48-0.72
		c-0.106-2.361-1.321-5.491,0-8.4c-0.665-1.207-0.887-5.31,0-6.48c-0.71-0.747-0.71-3.333,0-4.08c0.332-0.971-0.521-0.759-0.48-1.44
		c-0.175-1.733,0.613-1.503,0-2.64c0.229-0.53,0.276-1.117,0.24-1.44c-0.043-0.394,0.003-7.134,0.24-8.64
		c1.062-6.751,0-15.596,0-24.24c0-7.945,0-16.321,0-24.24c0-17.134-0.769-34.455,0-48.48c0.156-2.854,1.144-6.723,1.44-9.12
		c3.739,2.261,7.487,4.513,12.48,5.52c-0.093,3.267-0.069,6.651-0.72,9.36c1.637-2.123,0.273-7.247,1.92-9.36
		c0.296-0.777-0.777-0.184-0.48-0.96c0.408-0.712,0.963-1.277,0.72-2.64c-0.265,0.775-0.942,1.138-2.16,0.96
		c0.667,0.826,1.93,0.428,1.2,2.16c-1.988,0.067-2.712-1.127-4.8-0.96c-2.292-2.153-7.542-2.479-7.92-5.76
		c3.453,1.828,6.44,4.12,11.28,4.56c-4.188-1.332-8.349-2.691-11.28-5.28c1.714-9.406,4.722-17.519,13.2-20.16
		c0.444-0.036,0.147-0.813,0.48-0.96c25.568-7.632,50.345-16.056,75.84-23.76c0.133-0.827,1.583-0.337,1.68-1.2
		c10.323-2.397,19.146-6.294,29.28-8.88c10.491-4.309,22.917-6.683,33.601-10.8c14.332-3.908,28.041-8.439,41.76-12.96
		C232.857,26.908,236.621,29.785,240.378,32.667z M266.539,32.427c1.896,3.945,1.795,9.886,1.68,15.84
		c1.111-2.49,0.169-7.032,0.48-10.32c-1.373-6.387-4.353-11.167-13.199-10.08c-2.306,1.215-6.158,0.882-7.92,2.64
		C253.865,28.633,263.404,26.315,266.539,32.427z M243.5,59.547c0.793-0.769,0.793-4.751,0-5.52
		C243.14,55.759,243.583,57.15,243.5,59.547z M159.5,78.267c1.114-4.404,0.162-10.876,0.479-16.08
		c-0.054-0.187-0.201-0.279-0.479-0.24C159.5,67.387,159.5,72.827,159.5,78.267z M157.819,69.387c-0.457,2.48-1.014,9.697,0,13.44
		c0.56-6.24,0.08-13.52,0.24-20.16c-0.24,0-0.479,0-0.722,0C158.064,65.737,156.833,66.578,157.819,69.387z M153.019,76.107
		c0.797-2.416,0.797-8.144,0-10.56C153.019,69.067,153.019,72.587,153.019,76.107z M71.418,119.547c-0.827,4.483,0,10.564,0,15.84
		c0,28.39-0.24,53.551-0.24,81.6c0,10.884-0.188,23.901,0.24,33.6c1.979,2.021,3.594,4.406,7.68,4.32
		c52.733-15.503,104.297-32.185,156.96-47.76c1.695-1.503,3.718-2.682,4.561-5.04c-0.283-5.451,0.535-10.178,0-13.44
		c0.551-3.904,0.476-11.479,0.479-19.44c-0.858-6.167-0.479-15.414-0.479-24c0-8.71-0.367-18.498,0.479-24.24
		c-1.19-4.754-0.126-12.224,0-14.64c-2.478-9.272,2.935-34.965-3.601-39.36c-1.705-1.147-4.119-1.054-6.721-0.72
		c-46.507,14.771-94.197,28.365-140.64,43.2c0-1.6,0-3.2,0-4.8c-0.557,1.124-0.083,3.277-0.24,4.8
		C84.437,112.569,72.799,112.062,71.418,119.547z M151.58,67.227c0.012-0.449-0.186-0.508-0.479-0.24
		c0.151,2.535-0.981,10.109,0.239,13.68C151.898,76.667,151.419,71.627,151.58,67.227z M149.417,68.907
		c0.312,6.958-0.627,15.093,0.48,21.12c0-7.2,0-14.4,0-21.6c-0.053-0.187-0.201-0.279-0.48-0.24
		C149.417,68.427,149.417,68.667,149.417,68.907z M155.417,82.827c0.358-3.806,0.11-10.604,0.24-14.4
		C154.646,70.894,154.566,78.758,155.417,82.827z M147.979,90.027c-0.158-6.243,0.315-14.396-0.24-19.44
		C147.897,76.829,147.421,84.983,147.979,90.027z M146.298,84.747c0-2.8,0-5.6,0-8.4c-0.239,0-0.479,0-0.719,0
		C146.083,78.585,144.744,82.986,146.298,84.747z M268.218,186.267c1.117-34.929,0.162-71.685,0.48-107.04
		c-0.054-0.188-0.201-0.279-0.48-0.24C268.218,114.747,268.218,150.506,268.218,186.267z M94.219,92.187
		c-0.312-3.288,0.629-7.83-0.48-10.32C93.833,83.946,93.244,89.539,94.219,92.187z M91.579,83.307
		c0.309,6.312-0.625,13.813,0.48,19.2c0-6.56,0-13.12,0-19.68c-0.053-0.187-0.201-0.279-0.48-0.24
		C91.579,82.827,91.579,83.067,91.579,83.307z M89.418,101.547c0.271,0.289,0.685,0.435,0.48,1.2c0,0.48,0,0.96,0,1.44
		c0.202,0.762,0.317-0.426,0.24-0.72c-0.158-6.322,0.317-14.557-0.24-19.68C89.676,90.256,90.363,96.9,89.418,101.547z
		 M43.099,139.467c0.322,51.155-0.64,107.394,0.48,158.88c0.015-54.466-0.104-109.674,0.24-159.601c-0.24,0-0.48,0-0.72,0
		C43.099,138.987,43.099,139.227,43.099,139.467z M255.979,176.907c1.108-7.558,0.165-16.973,0.479-24.96
		c-0.054-0.187-0.201-0.279-0.479-0.24C255.99,160.591,255.947,168.371,255.979,176.907z M262.218,171.147
		c0.003,0.352-0.09,1.964,0.24,1.2c0-0.72,0-1.44,0-2.16c0-1.36,0-2.72,0-4.08c0.26-3.181-0.558-7.437,0.479-9.84
		c-0.753-0.048-0.201-1.4-0.722-1.68C262.218,160.107,262.218,165.627,262.218,171.147z M258.138,155.787
		c0.376,12.049-0.747,25.214,0.48,35.04c0-11.84,0-23.68,0-35.52c-0.054-0.187-0.201-0.279-0.48-0.24
		C258.138,155.307,258.138,155.547,258.138,155.787z M260.298,182.907c-0.151-7.99,0.31-18.056-0.239-24.72
		C260.21,166.177,259.75,176.243,260.298,182.907z M264.619,173.787c-0.154-3.686,0.312-9.271-0.24-11.76
		C264.533,165.713,264.066,171.298,264.619,173.787z M265.819,182.187c0.015,0.667-0.187,1.972,0.72,2.16
		c-0.314-4.724,0.635-10.714-0.479-14.64C266.321,173.634,265.748,178.659,265.819,182.187z M268.699,191.307
		c-0.271-1.088,0.573-3.293-0.48-3.6C268.373,189.19,267.574,190.547,268.699,191.307z M268.699,195.627
		c-0.807-1.575,0.803-2.614-0.72-3.36C268.105,193.5,267.587,195.378,268.699,195.627z M268.218,197.787c0.16,0,0.32,0,0.48,0
		c0-0.64,0-1.28,0-1.92c-0.16,0-0.32,0-0.48,0C268.218,196.507,268.218,197.147,268.218,197.787z M268.218,208.107
		c-0.348-0.908,0.66-0.46,0.48-1.2c-0.738-0.332,0.895-6.177-0.48-8.4C268.143,201.134,267.809,205.599,268.218,208.107z
		 M48.858,213.147c1.064-0.698,0.452-2.638,0.72-4.56c-0.24,0-0.48,0-0.72,0C49.609,210.105,48.558,210.868,48.858,213.147z
		 M268.218,210.027c-0.18-0.739,0.828-0.292,0.48-1.2c-0.33,0.011-0.527-0.113-0.721-0.24
		C268.117,209.009,267.689,209.997,268.218,210.027z M48.858,213.867c0.006,0.634-0.224,1.504,0.72,1.2
		c-0.396-0.534,0.051-1.301-0.24-1.44C49.286,213.814,49.138,213.906,48.858,213.867z M268.218,218.907c0-0.96,0-1.92,0-2.88
		c0-0.48,0-0.96,0-1.44c0.174-0.521-0.245-1.527-0.239-0.48c-0.146,2.043,0.089,4.703,0.239,6.48c0.044,0.509-0.896,1.942,0.48,1.68
		c-0.548-0.696-0.548-1.224,0-1.92c-1.005,0.091-0.263-0.872,0-0.96C268.406,219.36,268.13,219.315,268.218,218.907z
		 M48.858,216.027c0.313,11.922-0.63,25.003,0.48,36c0.135-12.518-0.16-23.964,0.24-36.72c-0.24,0-0.48,0-0.72,0
		C48.858,215.547,48.858,215.787,48.858,216.027z M267.979,315.387c0,15.439,0,30.88,0,46.319c0,7.681,0,15.36,0,23.04
		c0,3.841,0,7.681,0,11.521c0,1.921,0,3.841,0,5.761c0,0.96,0,1.92,0,2.88c0,0.479,0,0.96,0,1.439c-0.175,0.868,0.414,0.868,0.239,0
		c0-30.88,0-61.761,0-92.641c0-15.439,0-30.88,0-46.318c-0.182-15.584,0.369-31.43-0.239-44.641
		C267.979,253.627,267.979,284.507,267.979,315.387z M216.859,248.427c0.824-1.768,1.206-6.909,0-8.4
		C216.859,242.827,216.859,245.627,216.859,248.427z M216.619,276.987c-2.394-0.486-1.439-3.971-1.439-6
		c0-7.431,0.449-16.002-0.479-21.12c-0.16,8.64,0.319,17.92-0.24,26.159c-2.338-1.103-0.725-6.155-1.201-9.119
		c0-3.44,0-6.88,0-10.32c0.13-1.389-0.428-0.832-0.238,0.24c0,0.88,0,1.76,0,2.64c0,1.76,0,3.52,0,5.28c0,1.124,0,2.928,0,5.279
		c0,2.555,0.682,5.427-0.96,4.561c-2.827-1.49-3.297-1.771-6-2.88c-11.08-4.542-25.093-5.351-37.921-3.601
		c-0.776-0.297-0.184,0.776-0.96,0.479c-26.419,4.94-43.79,18.931-59.04,35.04c-1.584,2.816-3.828,4.973-6,7.2
		c-1.633,2.847-3.169,5.791-5.52,7.92c-7.453,13.811-15.247,28.479-18,47.521c-1.272,8.797-1.882,18.029-0.72,27.12
		c0.918,7.184,2.73,14.889,5.04,21.12c0.803,2.166,2.334,4.145,3.36,6.239c1.118,2.286,1.848,4.564,3.12,6.479
		c2.518,3.791,5.948,7.024,8.64,10.801c0.309,6.227-0.625,13.658,0.48,18.96c0.16-6.16-0.32-12.96,0.24-18.721
		c0.218,0.822,1.086,0.993,1.44,1.681c0.312,10.468-0.629,22.139,0.48,31.681c0.312-10.163-0.629-21.486,0.48-30.721
		c1.906,0.654,1.2,3.302,1.2,4.8c0,13.937,0,28.754,0,42.24c1.079-1.369,0.475-3.338,0.48-5.04
		c0.037-12.813-0.354-27.839,0.48-40.319c2.06,1.387,1.2,4.696,1.2,7.199c0,8.312,0,17.343,0,25.2c1.31-0.77,0.487-2.473,0.48-3.601
		c-0.048-7.907-0.305-18.644,0.48-27.359c1.728,0.868,1.2,3.215,1.2,5.04c0,6.173,0,12.982,0,18.72
		c1.436-6.164-0.476-15.676,0.96-21.84c2.063,1.173,1.2,4.878,1.2,7.92c0,3.12-0.387,6.606,0.479,8.641
		c0.16-4.961-0.319-10.56,0.24-15.12c7.746,4.231,17.048,8.189,28.081,9.359c4.84,0.514,9.663-0.26,14.639,0
		c2.826-0.613,5.652-1.229,8.881-1.439c6.095-2.113,12.814-3.814,18.96-6.479c1.585-0.688,2.862-1.839,4.319-2.64
		c4.08-2.242,8.084-4.101,11.76-6.721c3.486-2.483,6.625-5.544,10.08-8.399c6.645-5.491,12.703-11.994,17.762-19.2
		c13.842-19.72,25.389-43.311,24.238-76.08c-0.795-1.764-0.553-4.565-0.719-6.96c-3.52-22.241-12.986-38.533-27.841-49.439
		c-0.555-7.686-0.084-16.396-0.239-24.479c-1.27,6.969,0.151,16.538-0.721,23.521c-2.227-0.898-1.439-4.031-1.439-6.24
		c0-8.31,0.078-15.417,0-22.799c-0.053-0.187-0.2-0.279-0.479-0.24C216.699,258.347,217.178,268.187,216.619,276.987z
		 M210.859,260.667c0.236,6.105-0.344,8.742,0,12c0.23,2.195,0.249-0.906,0.24-0.721c0.218-4.229-0.342-9.829,0.479-11.759
		c-0.33,0.01-0.527-0.113-0.72-0.24C210.859,260.187,210.859,260.427,210.859,260.667z M42.858,381.867c0,7.681,0,15.359,0,23.04
		s0,15.359,0,23.04c0,3.84,0,7.68,0,11.521c0,0.96,0,1.92,0,2.88c-0.177,0.96,0.27,2.528,0.24,0.721c0-1.92,0-3.84,0-5.761
		c0-7.681,0-15.359,0-23.04c0.316-15.044-0.635-31.354,0.48-45.601c-0.354-7.468-0.478-17.146,0-24.479
		c0.053-0.81-0.509-4.031-0.48-4.561c0.023-0.43,0.577-2.059,0.48-3.119c-0.994-10.843,1.13-25.519-0.48-37.92
		C42.862,324.556,42.835,352.133,42.858,381.867z M267.979,415.467c0.399-1.843,0.399-5.356,0-7.2
		C268.041,412.068,267.188,413.586,267.979,415.467z M268.939,434.427c-0.348-0.908,0.659-0.461,0.479-1.2
		c-1.019-0.028-0.053-3.295-0.719-2.88C268.855,431.63,268.382,433.542,268.939,434.427z M268.939,442.107
		c-0.139-1.547,0.29-4.926-0.24-5.28C268.835,438.373,268.41,441.751,268.939,442.107z M266.059,454.587
		c1.532-2.875,3.146-8.204,2.159-12C268.425,447.513,267.056,450.865,266.059,454.587z M243.5,470.907
		c0.864-0.095,2.008,0.089,2.16-0.72C244.685,470.173,244.272,470.72,243.5,470.907z M223.099,477.147
		c6.771-2.029,13.845-3.756,20.158-6.24C236.455,472.902,229.388,474.636,223.099,477.147z M217.819,478.587
		c-1.829,0.229,0.677,0.258,1.681,0c0.933-0.241,2.662-1.381,3.119-1.439C220.841,477.45,219.105,477.793,217.819,478.587z
		 M203.899,482.427c-1.095,1.146-3.706,0.774-4.8,1.92c-25.739,7.142-50.125,15.637-75.36,23.28
		c-6.636,2.804-14.419,4.46-21.12,7.199c-2.361,0.358-4.593,0.847-6,2.16c19.967-6.354,40.059-12.581,59.52-19.439
		c5.688-1.353,11.086-2.995,16.079-5.04c5.855-1.347,11.367-3.035,16.562-5.04c9.599-2.562,18.982-5.338,27.841-8.641
		C212.141,479.789,208.535,481.623,203.899,482.427z M48.139,492.747c1.129,3.844,2.809,6.733,4.8,10.08
		c0.574,0.965,0.761,2.269,1.44,3.12c0.385,0.481,1.109,0.71,1.44,1.2c0.91,1.347,1.917,3.013,3.6,3.359
		c2.008,2.552,5.48,4.919,9.12,5.04c-11.76-4.001-18.308-14.492-20.64-27.12C47.716,490.129,48.197,491.168,48.139,492.747z"/>
	<path d="M247.58,30.507c1.762-1.758,5.614-1.425,7.92-2.64c8.848-1.087,11.826,3.693,13.199,10.08
		c-0.312,3.288,0.631,7.83-0.48,10.32c0.115-5.954,0.217-11.895-1.68-15.84C263.404,26.315,253.865,28.633,247.58,30.507z"/>
	<path d="M152.059,36.027c-1.431,3.691-6.591,3.649-10.8,4.56c1.996-1.205,5.447-0.953,7.439-2.16c1.321-6.109-5.156-3.5-8.16-2.88
		c-0.103,1.753,0.157,3.981,0,5.04c-1.248-0.388-0.088-3.263-0.479-5.04c-2.081-0.029-1.729,4.11-0.72,5.04
		c-1.725-0.676-4.72-0.08-4.32-2.88c3.352-2.958,10.545-4.58,16.32-2.88C151.533,35.273,151.649,35.796,152.059,36.027z
		 M136.938,39.147c0-0.64,0-1.28,0-1.92c-0.95-0.31-0.49,0.79-1.44,0.479c0.002,0.638-0.091,1.371,0.24,1.68
		C136.417,39.585,136.36,39.048,136.938,39.147z M149.178,37.947c0.733,0.173,0.875-0.245,1.44-0.24c0-0.88,0-1.76,0-2.64
		c-0.68,0.198-0.623-0.338-1.201-0.24C148.946,35.475,149.276,36.924,149.178,37.947z M137.66,39.867c0.159,0,0.319,0,0.479,0
		c0.553-0.647,0.085-2.314,0.239-3.36c-0.399,0-0.799,0-1.199,0C137.444,37.521,136.614,39.632,137.66,39.867z"/>
	<path fill="#FFFFFF" d="M123.259,43.227c1.834,0.104,0.682,2.69-0.48,2.64C123.34,45.284,123.827,44.256,123.259,43.227z"/>
	<path fill="#FFFFFF" d="M100.699,48.027c-1.305,0.405-3.293,1.787-1.2,2.88c-0.836,0.506-1.968-0.745-1.68-2.16
		C98.734,48.462,99.556,48.083,100.699,48.027z"/>
	<path d="M125.418,43.467c0.307,2.307-1.31,2.69-2.16,3.84c-7.138,1.422-13.231,3.889-19.92,5.76c-4.015,0.273-8.218-1.803-6-5.52
		c6.753-1.522,14.52-4.766,21.6-5.52C121.243,41.781,123.787,41.443,125.418,43.467z M104.299,47.547c0,0.96,0,1.92,0,2.88
		c5.122-0.798,9.087-2.752,13.92-3.84c-0.266-1.014,0.565-3.125-0.48-3.36C113.585,44.993,108.848,46.176,104.299,47.547z
		 M120.139,45.867c0.549-0.411,0.088-1.832,0.24-2.64c-0.24,0-0.48,0-0.72,0C119.9,44.025,119.128,45.837,120.139,45.867z
		 M121.338,45.867c0.37-0.831,1.935-0.465,1.92-1.68c-0.676-0.364-1.1-0.981-2.16-0.96C120.706,44.09,120.236,45.402,121.338,45.867
		z M122.779,45.867c1.162,0.051,2.314-2.536,0.48-2.64C123.827,44.256,123.34,45.284,122.779,45.867z M118.458,43.947
		c0.571,0.163,0.359,2.343,0.72,1.92c-0.149-0.651,0.305-1.905-0.24-2.16C118.886,43.894,118.738,43.986,118.458,43.947z
		 M97.819,48.747c-0.288,1.415,0.844,2.667,1.68,2.16c-2.093-1.093-0.105-2.475,1.2-2.88C99.556,48.083,98.734,48.462,97.819,48.747
		z M100.219,50.427c0-0.479,0-0.96,0-1.44c-0.959-0.079-1.426,0.334-1.44,1.2C99.513,50.013,99.484,50.601,100.219,50.427z
		 M103.338,50.907c0.661-0.702,0.533-1.85,0.24-2.88c-0.24,0-0.48,0-0.72,0C103.11,48.896,102.314,50.811,103.338,50.907z
		 M101.179,50.907c0.319-0.181,0.602-2.346-0.24-2.16C100.724,49.032,100.263,51.019,101.179,50.907z M101.659,50.907
		c0.933,0.144,1.138-2.366,0-2.16C101.659,49.467,101.659,50.187,101.659,50.907z"/>
	<path d="M89.898,109.467c0.158-1.522-0.316-3.676,0.24-4.8c0,1.6,0,3.2,0,4.8c46.443-14.835,94.133-28.429,140.64-43.2
		c2.603-0.333,5.015-0.427,6.72,0.72c6.535,4.395,1.123,30.088,3.602,39.36c-0.126,2.417-1.191,9.886,0,14.64
		c-0.848,5.743-0.48,15.53-0.48,24.24c0,8.586-0.377,17.833,0.48,24c-0.006,7.96,0.07,15.536-0.48,19.44
		c0.536,3.262-0.283,7.989,0,13.44c-0.842,2.358-2.863,3.537-4.56,5.04c-52.663,15.575-104.228,32.256-156.96,47.76
		c-4.086,0.086-5.702-2.298-7.68-4.32c-0.427-9.699-0.24-22.716-0.24-33.6c0-28.049,0.24-53.21,0.24-81.6
		c0-5.275-0.827-11.357,0-15.84C72.799,112.062,84.437,112.569,89.898,109.467z M76.699,252.027c-1.725-1.075-2.92-2.68-3.84-4.56
		c-0.002-30.203,0-63.095,0-94.32c0-10.798-0.534-25.106,0.72-34.08c1.114-0.806,1.81-2.03,2.88-2.88
		c12.604-3.978,25.355-7.873,38.16-12.24c12.62-4.305,25.778-7.586,38.64-11.76c23.812-7.727,48.732-14.925,72.24-22.32
		c2.905-0.914,6.215-1.93,9.359-1.44c1.65,1.23,3.337,2.423,4.08,4.56c0.79,0.73-0.471,3.509,0.721,3.84
		c0.676-5.224-1.645-9.615-6-9.84c-1.343-0.069-3.16,0.677-5.041,1.2c-4.91,1.365-10.012,3.214-14.64,4.56
		c-19.767,5.748-40.776,12.525-59.04,18c-13.555,3.485-25.937,8.144-39.36,11.76c-6.278,2.529-12.953,4.195-19.44,6.24
		c-6.529,2.058-12.902,4.481-19.68,6c-4.862,1.765-3.84,7.816-3.84,14.88c0,13.045-0.188,29.993,0,39.84
		c0.05,2.613-1.055,5.255,0,7.68c-0.858,10.382-0.48,23.646-0.48,37.68c0,9.241-0.041,18.08,0,25.68c0.017,3.148-0.553,6.728,0,8.88
		c0.312,1.216,2.769,3.751,3.6,4.08c2.146,0.851,4.708-0.077,6.96-0.72c5.352-1.53,10.777-3.378,15.36-4.8
		c21.032-5.688,40.628-12.812,61.68-18.48c21.022-7.224,45.103-13.852,66.96-20.64c3.291-1.022,6.805-1.819,9.6-3.12
		c1.77-0.822,3.422-3.277,3.602-5.52c0.719-8.969,0.277-19.504,0-29.52c-0.727-26.109,0.473-48.492-0.24-72.48
		c-1.275,31.96,0.156,68.037-0.72,99.36c-0.183-6.083,0-18.03,0-28.08c-0.001-32.115,0-64.741,0-96
		c-1.265-2.577-3.253-4.428-6.479-5.04c-52.217,15.864-104.468,31.691-156,48.24c-0.637,1.521-2.385,1.895-2.88,3.12
		c-1.298,3.212-0.24,10.996-0.24,15.84c0,37.57-0.196,77.521,0.24,113.04c2.001,2.097,3.838,3.956,7.92,3.36
		c3.106-0.454,6.688-2.342,10.32-3.36c3.898-1.093,7.678-2.178,10.56-2.64C93.918,247.971,86.884,252.605,76.699,252.027z
		 M239.66,92.187c-0.23-0.73,0.514-2.434-0.48-2.4C239.41,90.517,238.666,92.221,239.66,92.187z M239.66,96.027
		c-0.146-0.495,0.387-1.667-0.48-1.44C239.324,95.082,238.792,96.254,239.66,96.027z M239.178,97.947c0.737,0.367,0.737-1.567,0-1.2
		C239.178,97.147,239.178,97.547,239.178,97.947z"/>
	<path d="M155.66,68.427c-0.131,3.795,0.117,10.594-0.24,14.4C154.566,78.758,154.646,70.894,155.66,68.427z"/>
	<path d="M176.779,100.107c-3.914,5.97-7.557,12.004-11.521,18c-1.322,2.002-3.342,3.777-4.318,5.76
		c-0.578,1.174-0.68,2.546-2.16,3.12c-1.095,2.505-2.601,4.6-4.32,6.48c-0.306,1.934-2.014,2.466-2.398,4.32
		c-1.479,0.361-1.047,2.634-2.641,2.88C158.723,127.332,167.208,113.175,176.779,100.107z"/>
	<path d="M230.298,111.867c-1.062,3.898-4.942,7.057-6.479,11.28c-4.829,5.331-8.06,12.261-12.72,17.76
		C217.306,131.034,224.071,121.719,230.298,111.867z"/>
	<path d="M163.819,114.027c-1.771,5.189-6.663,9.337-8.88,14.88c-5.329,5.952-8.88,13.681-14.16,19.68
		c-1.302,2.858-3.072,5.247-5.04,7.44c-1.648,3.872-4.07,6.97-6.48,10.08c-0.371,0.91-0.434,2.126-1.68,2.16
		C139.479,150.007,151.943,132.311,163.819,114.027z"/>
	<path d="M221.66,120.267c-0.755,2.367-2.937,5.383-4.801,7.44c-0.166,1.034-0.576,1.823-1.439,2.16
		c-1.625,2.896-3.478,5.879-5.28,8.64c-0.279,0.428-0.942,0.506-1.199,0.96c-0.728,1.284-0.739,2.988-2.399,3.6
		c-2.996,5.563-6.896,10.224-10.08,15.6c-0.51-0.683,0.477-1.915,1.199-2.16c2.016-4.465,5.358-7.602,7.44-12
		c0.862-0.337,1.272-1.126,1.438-2.16c1.203,0.002,0.799-1.602,1.92-1.68C212.251,133.259,217.417,127.226,221.66,120.267z"/>
	<path d="M164.539,121.707c-1.636,2.429-2.746,5.198-4.56,7.92c-0.276,0.414-0.981,0.561-1.2,0.96
		c-1.585,2.887-3.789,5.332-5.76,8.16c-0.451,0.647-0.398,1.795-0.96,2.64c-0.956,1.439-3.334,2.968-3.601,5.28
		c-6.351,7.49-10.736,16.943-17.041,24.48C142.18,154.388,153.298,137.988,164.539,121.707z"/>
	<path d="M222.378,127.947c-0.414,2.875-4.422,6.292-5.76,9.84c-1.66,1.3-2.812,3.108-3.601,5.28
		c-3.401,4.039-6.388,8.494-8.881,13.44c-0.942,0.257-1.353,1.046-1.438,2.16c-1.695,0.865-1.887,3.235-3.361,4.32
		C206.346,150.635,214.822,139.75,222.378,127.947z"/>
	<path d="M165.257,167.547c-8.383,14.016-17.887,26.911-26.639,40.56c-0.431-1.156,0.941-2.573,1.92-3.12
		c1.477-4.523,5.227-6.773,6.719-11.28c4.939-5.221,7.82-12.5,12.721-17.76C161.237,172.645,163.248,170.095,165.257,167.547z"/>
	<path d="M152.779,181.707c-12.242,17.918-23.969,36.351-36.48,54c4.398-7.597,9.906-14.573,14.88-22.08
		c1.085-1.638,1.658-2.954,2.4-4.8c4.874-5.207,7.861-12.298,12.719-17.52c0.121-2.28,2.201-2.6,2.4-4.8
		C150.58,185.428,150.773,182.661,152.779,181.707z"/>
	<path d="M153.5,189.147c-11.228,16.613-22.227,33.455-33.601,49.92c3.595-6.965,8.659-12.462,12.24-19.44
		c1.729-0.671,1.551-3.249,3.36-3.84c2.002-5.197,6.165-8.236,8.161-13.44C147.613,198.621,149.583,192.913,153.5,189.147z"/>
	<path d="M268.218,198.507c1.375,2.223-0.258,8.068,0.48,8.4c0.18,0.74-0.828,0.292-0.48,1.2
		C267.809,205.599,268.143,201.134,268.218,198.507z"/>
	<path d="M238.458,199.227c1.24,0.312,0.013,1.795,0,2.4C237.878,201.186,238.789,200.212,238.458,199.227z"/>
	<path d="M237.5,202.827c-0.944,2.977-6.539,3.381-9.601,5.04c-22.403,6.076-43.383,13.578-65.761,19.68
		c-0.245,0.234-0.485,0.475-0.721,0.72c-20.022,5.336-38.529,12.189-58.56,17.52c28.419-9.021,56.962-17.917,85.92-26.4
		c11.24-4.2,23.888-6.993,35.04-11.28C228.89,206.859,234.375,206.024,237.5,202.827z"/>
	<path d="M49.338,213.627c0.291,0.139-0.156,0.906,0.24,1.44c-0.944,0.304-0.714-0.566-0.72-1.2
		C49.138,213.906,49.286,213.814,49.338,213.627z"/>
	<path d="M268.699,219.387c-0.262,0.088-1.004,1.051,0,0.96c-0.547,0.696-0.547,1.224,0,1.92c-1.375,0.262-0.437-1.171-0.48-1.68
		c-0.149-1.777-0.383-4.437-0.238-6.48c-0.006-1.047,0.413-0.041,0.238,0.48c0,0.48,0,0.96,0,1.44c0,0.96,0,1.92,0,2.88
		C268.13,219.315,268.406,219.36,268.699,219.387z"/>
	<path d="M43.099,298.587c1.61,12.401-0.514,27.077,0.48,37.92c0.097,1.062-0.457,2.689-0.48,3.119
		c-0.029,0.528,0.533,3.751,0.48,4.562c-0.478,7.332-0.354,17.012,0,24.479c-1.115,14.245-0.164,30.557-0.48,45.601
		c0,7.681,0,15.359,0,23.04c0,1.92,0,3.841,0,5.761c0.03,1.809-0.417,0.239-0.24-0.721c0-0.96,0-1.92,0-2.88
		c0-3.841,0-7.681,0-11.521c0-7.681,0-15.359,0-23.04s0-15.359,0-23.04C42.835,352.133,42.862,324.556,43.099,298.587z"/>
	<path d="M268.218,442.587c0.986,3.796-0.627,9.125-2.159,12C267.056,450.865,268.425,447.513,268.218,442.587z"/>
	<path d="M245.66,470.188c-0.152,0.809-1.296,0.625-2.16,0.72C244.272,470.72,244.685,470.173,245.66,470.188z"/>
	<path d="M243.257,470.907c-6.313,2.484-13.389,4.211-20.158,6.24C229.388,474.636,236.455,472.902,243.257,470.907z"/>
	<path d="M222.619,477.147c-0.457,0.06-2.188,1.198-3.119,1.439c-1.004,0.258-3.51,0.229-1.681,0
		C219.105,477.793,220.841,477.45,222.619,477.147z"/>
	<path d="M216.619,478.827c-8.856,3.303-18.242,6.079-27.84,8.641c-5.193,2.005-10.707,3.693-16.561,5.04
		c-4.994,2.045-10.393,3.688-16.08,5.04c-19.461,6.858-39.552,13.087-59.52,19.439c1.407-1.313,3.639-1.802,6-2.16
		c6.701-2.739,14.484-4.396,21.12-7.199c25.235-7.645,49.621-16.14,75.36-23.28c1.094-1.146,3.705-0.773,4.8-1.92
		C208.535,481.623,212.141,479.789,216.619,478.827z"/>
	<path d="M47.898,488.427c2.333,12.628,8.88,23.119,20.64,27.12c-3.64-0.121-7.112-2.488-9.12-5.04
		c-1.682-0.348-2.69-2.014-3.6-3.359c-0.332-0.49-1.056-0.719-1.44-1.2c-0.679-0.853-0.866-2.155-1.44-3.12
		c-1.991-3.347-3.671-6.236-4.8-10.08C48.197,491.168,47.716,490.129,47.898,488.427z"/>
	<path d="M220.939,11.307c0.934,2.56,1.576,6.198-0.721,7.68c-14.854,4.347-29.278,9.121-43.92,13.68
		c-3.357-0.575-5.924-2.067-5.041-6.24c1.341-2.741,5.191-2.969,7.201-5.04c10.934-2.51,23.217-8.478,34.319-11.04
		C215.958,9.613,218.359,9.927,220.939,11.307z M220.218,12.747c-0.533-0.399-1.051-1.279-1.439-1.44
		c-3.035-1.256-6.404,0.269-8.88,1.2c-4.437,1.669-9.608,2.505-12.479,4.32c-5.59,1.051-9.877,3.403-15.359,4.56
		c-1.423,0.897-3.713,0.927-4.32,2.64c-0.189,1.149,0.795,1.125,0.721,2.16c1.84,0.239,3.136,1.024,5.521,0.72
		c2.761-1.4,6.394-1.926,9.12-3.36c5.998-1.258,11.829-3.781,17.52-5.76c3.336-1.16,7.389-1.419,9.601-4.32
		C220.218,13.227,220.218,12.987,220.218,12.747z M215.417,17.787c1.635-0.686,4.359-0.28,4.801-2.16
		C218.626,16.355,216.889,16.937,215.417,17.787z M171.979,28.587c0.343,3.766,6.967,3.179,9.12,0.72
		c-2.984-0.136-4.688-1.553-4.32-5.04C174.52,23.382,171.854,27.213,171.979,28.587z M182.059,28.347
		c0.453-0.106,1.446,0.327,1.198-0.48C182.805,27.973,181.812,27.541,182.059,28.347z"/>
	<path fill="#A4A4A4" d="M102.378,246.027c-2.881,0.462-6.662,1.547-10.56,2.64c-3.632,1.018-7.214,2.906-10.32,3.36
		c-4.082,0.596-5.918-1.263-7.92-3.36c-0.437-35.52-0.24-75.47-0.24-113.04c0-4.844-1.058-12.628,0.24-15.84
		c0.495-1.225,2.243-1.598,2.88-3.12c51.532-16.549,103.784-32.376,156-48.24c3.228,0.612,5.217,2.463,6.479,5.04
		c0,31.259-0.001,63.885,0,96c0,10.05-0.183,21.997,0,28.08c0.876-31.323-0.556-67.4,0.72-99.36
		c0.713,23.988-0.486,46.371,0.24,72.48c0.277,10.016,0.719,20.551,0,29.52c-0.18,2.243-1.832,4.698-3.602,5.52
		c-2.795,1.3-6.309,2.098-9.6,3.12c-21.857,6.789-45.938,13.416-66.96,20.64c-21.052,5.668-40.648,12.792-61.68,18.48
		c-4.583,1.422-10.008,3.271-15.36,4.8c-2.252,0.643-4.813,1.57-6.96,0.72c-0.831-0.329-3.288-2.864-3.6-4.08
		c-0.553-2.152,0.017-5.732,0-8.88c-0.041-7.6,0-16.439,0-25.68c0-14.033-0.378-27.298,0.48-37.68c-1.055-2.425,0.05-5.067,0-7.68
		c-0.188-9.847,0-26.795,0-39.84c0-7.064-1.022-13.115,3.84-14.88c6.778-1.519,13.151-3.942,19.68-6
		c6.487-2.044,13.162-3.711,19.44-6.24c13.423-3.617,25.805-8.275,39.36-11.76c18.264-5.475,39.273-12.252,59.04-18
		c4.628-1.346,9.729-3.194,14.64-4.56c1.881-0.523,3.698-1.27,5.041-1.2c4.355,0.225,6.676,4.616,6,9.84
		c-1.189-0.331,0.069-3.11-0.721-3.84c-0.743-2.137-2.43-3.33-4.08-4.561c-3.145-0.49-6.454,0.526-9.359,1.44
		c-23.508,7.396-48.428,14.593-72.24,22.32c-12.862,4.173-26.021,7.455-38.64,11.76c-12.805,4.368-25.556,8.262-38.16,12.24
		c-1.07,0.85-1.766,2.074-2.88,2.88c-1.254,8.974-0.72,23.282-0.72,34.08c0,31.225-0.002,64.117,0,94.32
		c0.92,1.88,2.116,3.485,3.84,4.56C86.884,252.605,93.918,247.971,102.378,246.027z M149.417,140.667
		c1.595-0.246,1.162-2.519,2.642-2.88c0.386-1.854,2.094-2.386,2.399-4.32c1.72-1.88,3.226-3.975,4.319-6.48
		c1.481-0.574,1.582-1.946,2.16-3.12c0.978-1.982,2.996-3.757,4.319-5.76c3.964-5.996,7.605-12.03,11.521-18
		C167.208,113.175,158.723,127.332,149.417,140.667z M211.099,140.907c4.66-5.499,7.891-12.429,12.72-17.76
		c1.537-4.224,5.417-7.382,6.479-11.28C224.071,121.719,217.306,131.034,211.099,140.907z M127.579,168.267
		c1.247-0.034,1.31-1.25,1.68-2.16c2.41-3.11,4.832-6.208,6.48-10.08c1.968-2.193,3.738-4.582,5.04-7.44
		c5.28-6,8.831-13.729,14.16-19.68c2.217-5.542,7.107-9.691,8.88-14.88C151.943,132.311,139.479,150.007,127.579,168.267z
		 M208.458,140.667c-1.123,0.078-0.719,1.682-1.92,1.68c-0.166,1.034-0.578,1.823-1.439,2.16c-2.082,4.398-5.426,7.535-7.439,12
		c-0.725,0.245-1.711,1.478-1.201,2.16c3.185-5.376,7.084-10.037,10.08-15.6c1.66-0.612,1.674-2.316,2.4-3.6
		c0.257-0.454,0.92-0.532,1.199-0.96c1.804-2.761,3.654-5.745,5.279-8.64c0.863-0.337,1.274-1.126,1.44-2.16
		c1.864-2.057,4.046-5.073,4.8-7.44C217.417,127.226,212.251,133.259,208.458,140.667z M131.418,171.147
		c6.304-7.537,10.69-16.99,17.041-24.48c0.267-2.312,2.645-3.841,3.601-5.28c0.562-0.845,0.509-1.993,0.96-2.64
		c1.971-2.828,4.175-5.273,5.76-8.16c0.219-0.399,0.924-0.546,1.2-0.96c1.813-2.722,2.924-5.491,4.56-7.92
		C153.298,137.988,142.18,154.388,131.418,171.147z M199.337,162.987c1.476-1.085,1.666-3.455,3.361-4.32
		c0.086-1.114,0.496-1.903,1.438-2.16c2.493-4.946,5.479-9.401,8.881-13.44c0.787-2.172,1.938-3.98,3.601-5.28
		c1.338-3.548,5.346-6.965,5.76-9.84C214.822,139.75,206.346,150.635,199.337,162.987z M159.979,175.947
		c-4.899,5.26-7.78,12.539-12.72,17.76c-1.493,4.507-5.243,6.757-6.721,11.28c-0.978,0.547-2.35,1.964-1.92,3.12
		c8.752-13.649,18.256-26.544,26.641-40.56C163.248,170.095,161.237,172.645,159.979,175.947z M148.699,186.507
		c-0.199,2.2-2.279,2.52-2.4,4.8c-4.858,5.222-7.848,12.313-12.719,17.52c-0.742,1.847-1.315,3.163-2.4,4.8
		c-4.974,7.507-10.481,14.483-14.88,22.08c12.511-17.649,24.238-36.082,36.48-54C150.773,182.661,150.58,185.428,148.699,186.507z
		 M143.66,202.347c-1.996,5.204-6.158,8.243-8.161,13.44c-1.809,0.591-1.631,3.169-3.36,3.84c-3.582,6.978-8.645,12.475-12.24,19.44
		c11.375-16.465,22.374-33.307,33.601-49.92C149.583,192.913,147.613,198.621,143.66,202.347z M238.458,201.627
		c0.013-0.605,1.24-2.087,0-2.4C238.789,200.212,237.878,201.186,238.458,201.627z M223.819,208.107
		c-11.153,4.287-23.8,7.08-35.04,11.28c-28.958,8.483-57.501,17.378-85.92,26.4c20.03-5.33,38.537-12.183,58.561-17.52
		c0.233-0.246,0.475-0.486,0.72-0.72c22.378-6.103,43.356-13.604,65.761-19.68c3.062-1.659,8.655-2.063,9.6-5.04
		C234.375,206.024,228.89,206.859,223.819,208.107z"/>
</g>
</svg>
