<?xml version="1.0" encoding="UTF-8" standalone="no"?>
<!-- Created with Inkscape (http://www.inkscape.org/) -->

<svg
   xmlns:dc="http://purl.org/dc/elements/1.1/"
   xmlns:cc="http://creativecommons.org/ns#"
   xmlns:rdf="http://www.w3.org/1999/02/22-rdf-syntax-ns#"
   xmlns:svg="http://www.w3.org/2000/svg"
   xmlns="http://www.w3.org/2000/svg"
   xmlns:sodipodi="http://sodipodi.sourceforge.net/DTD/sodipodi-0.dtd"
   xmlns:inkscape="http://www.inkscape.org/namespaces/inkscape"
   width="786.45459"
   height="624.52869"
   id="svg2"
   version="1.1"
   inkscape:version="0.47 r22583"
   sodipodi:docname="New document 1">
  <defs
     id="defs4">
    <inkscape:perspective
       sodipodi:type="inkscape:persp3d"
       inkscape:vp_x="0 : 526.18109 : 1"
       inkscape:vp_y="0 : 1000 : 0"
       inkscape:vp_z="744.09448 : 526.18109 : 1"
       inkscape:persp3d-origin="372.04724 : 350.78739 : 1"
       id="perspective10" />
    <inkscape:perspective
       id="perspective2848"
       inkscape:persp3d-origin="0.5 : 0.33333333 : 1"
       inkscape:vp_z="1 : 0.5 : 1"
       inkscape:vp_y="0 : 1000 : 0"
       inkscape:vp_x="0 : 0.5 : 1"
       sodipodi:type="inkscape:persp3d" />
    <inkscape:perspective
       id="perspective2870"
       inkscape:persp3d-origin="0.5 : 0.33333333 : 1"
       inkscape:vp_z="1 : 0.5 : 1"
       inkscape:vp_y="0 : 1000 : 0"
       inkscape:vp_x="0 : 0.5 : 1"
       sodipodi:type="inkscape:persp3d" />
    <inkscape:perspective
       id="perspective2892"
       inkscape:persp3d-origin="0.5 : 0.33333333 : 1"
       inkscape:vp_z="1 : 0.5 : 1"
       inkscape:vp_y="0 : 1000 : 0"
       inkscape:vp_x="0 : 0.5 : 1"
       sodipodi:type="inkscape:persp3d" />
    <inkscape:perspective
       id="perspective2914"
       inkscape:persp3d-origin="0.5 : 0.33333333 : 1"
       inkscape:vp_z="1 : 0.5 : 1"
       inkscape:vp_y="0 : 1000 : 0"
       inkscape:vp_x="0 : 0.5 : 1"
       sodipodi:type="inkscape:persp3d" />
    <inkscape:perspective
       id="perspective2914-1"
       inkscape:persp3d-origin="0.5 : 0.33333333 : 1"
       inkscape:vp_z="1 : 0.5 : 1"
       inkscape:vp_y="0 : 1000 : 0"
       inkscape:vp_x="0 : 0.5 : 1"
       sodipodi:type="inkscape:persp3d" />
    <inkscape:perspective
       id="perspective2945"
       inkscape:persp3d-origin="0.5 : 0.33333333 : 1"
       inkscape:vp_z="1 : 0.5 : 1"
       inkscape:vp_y="0 : 1000 : 0"
       inkscape:vp_x="0 : 0.5 : 1"
       sodipodi:type="inkscape:persp3d" />
    <inkscape:perspective
       id="perspective2967"
       inkscape:persp3d-origin="0.5 : 0.33333333 : 1"
       inkscape:vp_z="1 : 0.5 : 1"
       inkscape:vp_y="0 : 1000 : 0"
       inkscape:vp_x="0 : 0.5 : 1"
       sodipodi:type="inkscape:persp3d" />
    <inkscape:perspective
       id="perspective3021"
       inkscape:persp3d-origin="0.5 : 0.33333333 : 1"
       inkscape:vp_z="1 : 0.5 : 1"
       inkscape:vp_y="0 : 1000 : 0"
       inkscape:vp_x="0 : 0.5 : 1"
       sodipodi:type="inkscape:persp3d" />
    <inkscape:perspective
       id="perspective3048"
       inkscape:persp3d-origin="0.5 : 0.33333333 : 1"
       inkscape:vp_z="1 : 0.5 : 1"
       inkscape:vp_y="0 : 1000 : 0"
       inkscape:vp_x="0 : 0.5 : 1"
       sodipodi:type="inkscape:persp3d" />
    <inkscape:perspective
       id="perspective3073"
       inkscape:persp3d-origin="0.5 : 0.33333333 : 1"
       inkscape:vp_z="1 : 0.5 : 1"
       inkscape:vp_y="0 : 1000 : 0"
       inkscape:vp_x="0 : 0.5 : 1"
       sodipodi:type="inkscape:persp3d" />
    <inkscape:perspective
       id="perspective3097"
       inkscape:persp3d-origin="0.5 : 0.33333333 : 1"
       inkscape:vp_z="1 : 0.5 : 1"
       inkscape:vp_y="0 : 1000 : 0"
       inkscape:vp_x="0 : 0.5 : 1"
       sodipodi:type="inkscape:persp3d" />
    <inkscape:perspective
       id="perspective3143"
       inkscape:persp3d-origin="0.5 : 0.33333333 : 1"
       inkscape:vp_z="1 : 0.5 : 1"
       inkscape:vp_y="0 : 1000 : 0"
       inkscape:vp_x="0 : 0.5 : 1"
       sodipodi:type="inkscape:persp3d" />
  </defs>
  <sodipodi:namedview
     id="base"
     pagecolor="#ffffff"
     bordercolor="#666666"
     borderopacity="1.0"
     inkscape:pageopacity="0.0"
     inkscape:pageshadow="2"
     inkscape:zoom="0.3"
     inkscape:cx="831.95054"
     inkscape:cy="262.37563"
     inkscape:document-units="px"
     inkscape:current-layer="layer1"
     showgrid="false"
     showguides="true"
     inkscape:guide-bbox="true"
     inkscape:window-width="1022"
     inkscape:window-height="688"
     inkscape:window-x="0"
     inkscape:window-y="27"
     inkscape:window-maximized="1" />
  <metadata
     id="metadata7">
    <rdf:RDF>
      <cc:Work
         rdf:about="">
        <dc:format>image/svg+xml</dc:format>
        <dc:type
           rdf:resource="http://purl.org/dc/dcmitype/StillImage" />
        <dc:title></dc:title>
      </cc:Work>
    </rdf:RDF>
  </metadata>
  <g
     inkscape:label="Layer 1"
     inkscape:groupmode="layer"
     id="layer1"
     transform="translate(456.95054,-261.17762)">
    <g
       id="g3181"
       transform="matrix(0.99982455,0.01873131,-0.01873131,0.99982455,10.708842,1.2978802)">
      <path
         transform="translate(-16.666667,0)"
         d="m -63.333332,855.6955 c 0,12.88664 -16.416226,23.33333 -36.666668,23.33333 -20.25044,0 -36.66667,-10.44669 -36.66667,-23.33333 0,-12.88665 16.41623,-23.33334 36.66667,-23.33334 20.250442,0 36.666668,10.44669 36.666668,23.33334 z"
         sodipodi:ry="23.333334"
         sodipodi:rx="36.666668"
         sodipodi:cy="855.6955"
         sodipodi:cx="-100"
         id="path3087"
         style="color:#000000;fill:#ff9955;fill-opacity:1;fill-rule:nonzero;stroke:#000000;stroke-width:3.88199997;stroke-miterlimit:4;stroke-opacity:0.984375;stroke-dasharray:none;marker:none;visibility:visible;display:inline;overflow:visible;enable-background:accumulate"
         sodipodi:type="arc" />
      <path
         d="m -63.333332,855.6955 c 0,12.88664 -16.416226,23.33333 -36.666668,23.33333 -20.25044,0 -36.66667,-10.44669 -36.66667,-23.33333 0,-12.88665 16.41623,-23.33334 36.66667,-23.33334 20.250442,0 36.666668,10.44669 36.666668,23.33334 z"
         sodipodi:ry="23.333334"
         sodipodi:rx="36.666668"
         sodipodi:cy="855.6955"
         sodipodi:cx="-100"
         id="path3087-0"
         style="color:#000000;fill:#ff9955;fill-opacity:1;fill-rule:nonzero;stroke:#000000;stroke-width:3.88199997;stroke-miterlimit:4;stroke-opacity:0.984375;stroke-dasharray:none;marker:none;visibility:visible;display:inline;overflow:visible;enable-background:accumulate"
         sodipodi:type="arc"
         transform="translate(113.33333,3.3333533)" />
      <path
         id="rect3111"
         d="m -385.18859,520.0679 -30.24492,33.54943 c -13.09701,-8.61034 -23.28224,-11.84231 -27.14156,-7.56134 -0.88723,0.98417 -1.38286,2.331 -1.54228,3.97356 -3.7803,-0.23018 -7.03451,0.79298 -9.24065,3.24016 -6.18374,6.85936 -1.89014,22.21088 9.59844,34.29749 5.78942,6.09076 12.30636,10.18761 18.13186,11.87633 -2.81578,7.64409 1.31398,19.87982 10.59439,29.64329 9.56643,10.06438 21.40338,14.13864 28.33036,10.32448 -1.18429,8.3286 3.00424,19.40449 11.47286,28.31391 11.48859,12.08661 26.49458,15.59969 33.50281,7.82574 3.74189,-4.15072 4.45027,-10.67121 2.54921,-17.69097 0.65605,-0.30272 1.23514,-0.70457 1.70752,-1.22852 2.65456,-2.9446 1.90774,-9.05556 -1.50359,-17.09975 l 32.77816,-36.35945 -78.99259,-83.10435 z"
         style="color:#000000;fill:#ff9955;fill-opacity:1;fill-rule:nonzero;stroke:#000000;stroke-width:2.05522943;stroke-miterlimit:4;stroke-opacity:0.984375;stroke-dasharray:none;marker:none;visibility:visible;display:inline;overflow:visible;enable-background:accumulate" />
      <path
         id="rect3111-9"
         d="m 257.33091,519.22029 30.24492,33.54943 c 13.09701,-8.61034 23.28224,-11.84231 27.14156,-7.56134 0.88723,0.98417 1.38286,2.331 1.54228,3.97356 3.7803,-0.23018 7.03451,0.79298 9.24065,3.24016 6.18374,6.85936 1.89014,22.21088 -9.59844,34.29749 -5.78942,6.09076 -12.30636,10.18761 -18.13186,11.87633 2.81578,7.64411 -1.31398,19.87981 -10.59439,29.64331 -9.56643,10.0644 -21.40338,14.1386 -28.33036,10.3245 1.18429,8.3286 -3.00424,19.4044 -11.47286,28.3139 -11.48859,12.0866 -26.49458,15.5997 -33.50281,7.8257 -3.74189,-4.1507 -4.45027,-10.6712 -2.54921,-17.691 -0.65605,-0.3027 -1.23514,-0.7045 -1.70752,-1.2285 -2.65456,-2.9446 -1.90774,-9.0555 1.50359,-17.0997 L 178.3383,602.32465 257.33089,519.2203 z"
         style="color:#000000;fill:#ff9955;fill-opacity:1;fill-rule:nonzero;stroke:#000000;stroke-width:2.05522943;stroke-miterlimit:4;stroke-opacity:0.984375;stroke-dasharray:none;marker:none;visibility:visible;display:inline;overflow:visible;enable-background:accumulate" />
      <path
         id="rect2982"
         d="m -47.40625,426.84375 c -58.25726,0.0691 -119.11758,9.62012 -184.03125,34.09375 -1.59752,5.16079 -3.12125,10.28696 -4.59375,15.375 -57.96007,-4.16753 -106.21345,20.23045 -151.90625,52.09375 l 79.21875,72.75 c 12.71974,-22.25852 26.98681,-43.35241 55.84375,-53.6875 -18.68984,103.8117 -7.62577,196.51399 35.71875,302.03125 l 351.4375,0 C 79.912437,758.08217 151.48764,670.69605 163.125,570.65625 c 8.20167,9.06596 14.64112,19.42713 20.71875,30.0625 l 79.21875,-72.75 C 228.74952,504.04103 192.97309,484.3501 152.75,477.78125 c -2.75103,-7.43686 -6.02512,-14.95638 -9.90625,-22.5625 -61.543278,-16.35726 -124.22511,-28.45333 -190.25,-28.375 z"
         style="color:#000000;fill:#000000;fill-opacity:1;fill-rule:nonzero;stroke:#000000;stroke-width:3.88199997;stroke-miterlimit:4;stroke-opacity:0.984375;marker:none;visibility:visible;display:inline;overflow:visible;enable-background:accumulate" />
      <path
         sodipodi:nodetypes="csssc"
         id="path3176"
         d="m 2.8208499,634.02867 c -40.7556129,85.32099 -47.8321059,155.0308 -62.8301709,154.48731 -30.816323,-1.11669 -34.866945,-77.20645 -62.830169,-154.48731 -28.50287,-78.77225 28.130024,-154.48732 62.830169,-154.48732 34.700146,0 62.8301709,69.16633 62.8301709,154.48732 z"
         style="color:#000000;fill:#ffffff;fill-opacity:1;fill-rule:nonzero;stroke:#000000;stroke-width:4.9069643;stroke-miterlimit:4;stroke-opacity:0.984375;marker:none;visibility:visible;display:inline;overflow:visible;enable-background:accumulate" />
      <rect
         y="489.02884"
         x="-73.333336"
         height="300"
         width="23.333334"
         id="rect3179"
         style="color:#000000;fill:#ff0000;fill-opacity:1;fill-rule:nonzero;stroke:#000000;stroke-width:3.88199997;stroke-miterlimit:4;stroke-opacity:0.984375;stroke-dasharray:none;marker:none;visibility:visible;display:inline;overflow:visible;enable-background:accumulate" />
      <g
         transform="translate(-29.047618,-3.333333)"
         id="g2999">
        <path
           sodipodi:type="arc"
           style="color:#000000;fill:#ff9955;fill-opacity:1;fill-rule:nonzero;stroke:#000000;stroke-width:3.88199997;stroke-miterlimit:4;stroke-opacity:0.984375;stroke-dasharray:none;marker:none;visibility:visible;display:inline;overflow:visible;enable-background:accumulate"
           id="path2985"
           sodipodi:cx="-571.42859"
           sodipodi:cy="698.07648"
           sodipodi:rx="80"
           sodipodi:ry="74.285713"
           d="m -491.42859,698.07648 c 0,41.02686 -35.81722,74.28571 -80,74.28571 -44.18278,0 -80,-33.25885 -80,-74.28571 0,-0.63479 0.009,-1.26956 0.0263,-1.90414 l 79.97371,1.90414 z"
           sodipodi:start="0"
           sodipodi:end="3.1672281"
           transform="translate(542.85714,-265.71429)" />
        <g
           id="g2990"
           transform="translate(182.85714,137.14286)">
          <g
             transform="translate(-174.28571,-108.57143)"
             id="g2987">
            <path
               style="color:#000000;fill:#552200;fill-opacity:1;fill-rule:nonzero;stroke:#000000;stroke-width:3.96099067;stroke-miterlimit:4;stroke-opacity:0.984375;stroke-dasharray:none;marker:none;visibility:visible;display:inline;overflow:visible;enable-background:accumulate"
               d="m -26.729604,266.68207 c -27.550771,0 -51.918075,14.13743 -66.835499,35.81567 -0.980628,0.84482 -1.893746,1.6852 -2.744736,2.54836 -21.372891,-0.46359 -36.654311,5.10391 -39.247391,16.17661 -2.60289,11.11469 8.19245,25.20637 26.86089,37.81006 0.3929,5.31362 1.27625,10.48621 2.55706,15.4841 -18.92984,12.67582 -29.88228,26.91598 -27.25969,38.11475 3.53124,15.0788 30.56431,19.94604 64.513033,13.26814 12.329142,7.69209 26.741452,12.13246 42.156333,12.13246 14.771632,0 28.6511274,-4.05537 40.631479,-11.16297 39.50876,10.52926 72.835116,6.41187 76.782236,-10.44278 0.352722,-1.50617 0.453076,-3.07627 0.32843,-4.68124 0.81112,-10.01542 -8.279423,-22.08853 -23.670417,-33.2396 13.499102,-7.81041 21.417388,-17.12614 20.644169,-26.28699 -0.355553,-4.21248 -2.527327,-8.04661 -6.169791,-11.38456 8.768622,-8.64706 13.14701,-17.40662 11.495049,-24.902 -2.204106,-10.00062 -14.72156,-15.73702 -32.772619,-16.7306 -3.590967,-12.06383 -22.708827,-20.41867 -48.748392,-22.54753 -11.48802995,-6.3592 -24.605193,-9.97188 -38.520144,-9.97188 z"
               id="path2832" />
          </g>
          <g
             transform="translate(-180,-114.28571)"
             id="g2834">
            <path
               sodipodi:type="arc"
               style="color:#000000;fill:#ff9955;fill-opacity:1;fill-rule:nonzero;stroke:#000000;stroke-width:3.88199997;stroke-miterlimit:4;stroke-opacity:0.984375;stroke-dasharray:none;marker:none;visibility:visible;display:inline;overflow:visible;enable-background:accumulate"
               id="path2816"
               sodipodi:cx="5.7142859"
               sodipodi:cy="348.07648"
               sodipodi:rx="94.285713"
               sodipodi:ry="110"
               d="m 99.999999,348.07648 c 0,60.75132 -42.213152,110 -94.2857131,110 -52.0725619,0 -94.2857129,-49.24868 -94.2857129,-110 0,-60.75133 42.213151,-110 94.2857129,-110 52.0725611,0 94.2857131,49.24867 94.2857131,110 z"
               transform="matrix(0.70339113,0.28833006,-0.38013622,0.92735543,111.15424,23.638265)" />
            <path
               sodipodi:type="arc"
               style="color:#000000;fill:#000000;fill-opacity:1;fill-rule:nonzero;stroke:#000000;stroke-width:3.88199997;stroke-miterlimit:4;stroke-opacity:0.984375;stroke-dasharray:none;marker:none;visibility:visible;display:inline;overflow:visible;enable-background:accumulate"
               id="path2818"
               sodipodi:cx="-32.857143"
               sodipodi:cy="390.93362"
               sodipodi:rx="41.42857"
               sodipodi:ry="41.42857"
               d="m 8.5714264,390.93362 c 0,22.88037 -18.5482025,41.42857 -41.4285694,41.42857 -22.880368,0 -41.42857,-18.5482 -41.42857,-41.42857 0,-22.88036 18.548202,-41.42857 41.42857,-41.42857 22.8803669,0 41.4285694,18.54821 41.4285694,41.42857 z" />
            <path
               style="color:#000000;fill:#000000;fill-opacity:1;fill-rule:nonzero;stroke:#000000;stroke-width:2.10690117;stroke-miterlimit:4;stroke-opacity:0.984375;marker:none;visibility:visible;display:inline;overflow:visible;enable-background:accumulate"
               d="m 3.7446741,308.98237 c 0,8.51307 -15.5448131,-43.4402 -32.6035261,-43.4402 -17.058724,0 -29.171578,51.95327 -29.171578,43.4402 0,-8.51307 12.970854,-54.65058 30.029567,-54.65058 17.058724,0 31.7455371,46.13751 31.7455371,54.65058 z"
               id="path2827"
               sodipodi:nodetypes="csssc" />
            <path
               sodipodi:type="arc"
               style="color:#000000;fill:#000000;fill-opacity:1;fill-rule:nonzero;stroke:#000000;stroke-width:3.88199997;stroke-miterlimit:4;stroke-opacity:0.984375;stroke-dasharray:none;marker:none;visibility:visible;display:inline;overflow:visible;enable-background:accumulate"
               id="path2830"
               sodipodi:cx="21.428572"
               sodipodi:cy="269.50504"
               sodipodi:rx="7.1428571"
               sodipodi:ry="5.7142859"
               d="m 28.571429,269.50504 c 0,3.15591 -3.197966,5.71428 -7.142857,5.71428 -3.944891,0 -7.142857,-2.55837 -7.142857,-5.71428 0,-3.15592 3.197966,-5.71429 7.142857,-5.71429 3.944891,0 7.142857,2.55837 7.142857,5.71429 z" />
          </g>
        </g>
      </g>
    </g>
  </g>
</svg>
