<?xml version="1.0" encoding="UTF-8" standalone="no"?>
<!-- Created with Inkscape (http://www.inkscape.org/) -->
<svg
   xmlns:svg="http://www.w3.org/2000/svg"
   xmlns="http://www.w3.org/2000/svg"
   version="1.0"
   width="800"
   height="600"
   viewBox="0 0 1600 1200"
   id="svg2">
  <defs
     id="defs6" />
  <g
     style="color:#000000;fill:none;stroke:currentColor;stroke-width:1"
     id="g22" />
  <g
     style="color:#000000;fill:none;stroke:currentColor;stroke-width:4"
     id="g24" />
  <g
     style="color:#808080;fill:none;stroke:currentColor;stroke-width:1"
     id="g30" />
  <g
     style="color:#000000;fill:none;stroke:currentColor;stroke-width:4"
     id="g42" />
  <g
     style="color:#808080;fill:none;stroke:currentColor;stroke-width:1"
     id="g48" />
  <g
     style="color:#000000;fill:none;stroke:currentColor;stroke-width:4"
     id="g60" />
  <g
     style="color:#808080;fill:none;stroke:currentColor;stroke-width:1"
     id="g66" />
  <g
     style="color:#000000;fill:none;stroke:currentColor;stroke-width:4"
     id="g78" />
  <g
     style="color:#808080;fill:none;stroke:currentColor;stroke-width:1"
     id="g84" />
  <g
     style="color:#000000;fill:none;stroke:currentColor;stroke-width:4"
     id="g96" />
  <g
     style="color:#808080;fill:none;stroke:currentColor;stroke-width:1"
     id="g102" />
  <g
     style="color:#000000;fill:none;stroke:currentColor;stroke-width:4"
     id="g114" />
  <g
     style="color:#808080;fill:none;stroke:currentColor;stroke-width:1"
     id="g120" />
  <g
     style="color:#000000;fill:none;stroke:currentColor;stroke-width:4"
     id="g132" />
  <g
     style="color:#808080;fill:none;stroke:currentColor;stroke-width:1"
     id="g138" />
  <g
     style="color:#000000;fill:none;stroke:currentColor;stroke-width:4"
     id="g150" />
  <g
     style="color:#808080;fill:none;stroke:currentColor;stroke-width:1"
     id="g156" />
  <g
     style="color:#000000;fill:none;stroke:currentColor;stroke-width:4"
     id="g168" />
  <g
     style="color:#808080;fill:none;stroke:currentColor;stroke-width:1"
     id="g174" />
  <g
     style="color:#000000;fill:none;stroke:currentColor;stroke-width:4"
     id="g186" />
  <g
     style="color:#808080;fill:none;stroke:currentColor;stroke-width:1"
     id="g192" />
  <g
     style="color:#000000;fill:none;stroke:currentColor;stroke-width:4"
     id="g204" />
  <g
     style="color:#808080;fill:none;stroke:currentColor;stroke-width:1"
     id="g210" />
  <g
     style="color:#000000;fill:none;stroke:currentColor;stroke-width:4"
     id="g222" />
  <g
     style="color:#808080;fill:none;stroke:currentColor;stroke-width:1"
     id="g228" />
  <g
     style="color:#000000;fill:none;stroke:currentColor;stroke-width:4"
     id="g240" />
  <g
     style="color:#808080;fill:none;stroke:currentColor;stroke-width:1"
     id="g246" />
  <g
     style="color:#000000;fill:none;stroke:currentColor;stroke-width:4"
     id="g258" />
  <g
     style="color:#808080;fill:none;stroke:currentColor;stroke-width:1"
     id="g264" />
  <g
     style="color:#000000;fill:none;stroke:currentColor;stroke-width:4"
     id="g276" />
  <g
     style="color:#808080;fill:none;stroke:currentColor;stroke-width:1"
     id="g282" />
  <g
     style="color:#000000;fill:none;stroke:currentColor;stroke-width:4"
     id="g294" />
  <g
     style="color:#808080;fill:none;stroke:currentColor;stroke-width:1"
     id="g300" />
  <g
     style="color:#000000;fill:none;stroke:currentColor;stroke-width:4"
     id="g328" />
  <g
     transform="matrix(1.135061,0,0,1.135061,-122.5918,-39.11028)"
     id="g3308">
    <g
       id="g2477">
      <rect
         width="1402.4961"
         height="1049.9324"
         x="111.56448"
         y="38.09631"
         style="opacity:1;fill:#ffffff;fill-opacity:1;stroke:none;stroke-width:7.27958679;stroke-linecap:square;stroke-miterlimit:4;stroke-dasharray:none;stroke-dashoffset:0;stroke-opacity:1"
         id="rect1560" />
      <g
         transform="translate(2.725624e-5,-3.799355e-6)"
         id="g1473">
        <path
           d="M 200.92988,593.94899 L 241.90993,593.94899 L 241.90993,461.93366 L 281.89738,461.93366 L 281.89738,329.91834 L 322.87744,329.91834 L 322.87744,263.98158 L 362.86489,263.98158 L 362.86489,197.903 L 403.98674,197.903 L 403.98674,131.9663 L 484.95425,131.9663 L 484.95425,65.8877 L 605.90921,65.8877 L 605.90921,131.9663 L 687.01852,131.9663 L 687.01852,197.903 L 727.85677,197.903 L 727.85677,263.98158 L 767.98603,263.98158 L 767.98603,395.8551 L 808.96608,395.8551 L 808.96608,461.93366 L 849.94613,461.93366 L 849.94613,593.94899 L 889.93359,593.94899 L 889.93359,659.88575 L 930.91364,659.88575 L 930.91364,725.96431 L 970.9011,725.96431 L 970.9011,857.83783 L 1011.8812,857.83783 L 1011.8812,923.9164 L 1051.8686,923.9164 L 1051.8686,989.85316 L 1092.9905,989.85316 L 1092.9905,1055.9317 L 1254.9255,1055.9317 L 1254.9255,989.85316 L 1335.893,989.85316 L 1335.893,923.9164 L 1375.8804,923.9164 L 1375.8804,857.83783 L 1416.8605,857.83783 L 1416.8605,725.96431 L 1456.9897,725.96431 L 1456.9897,659.88575 L 1497.9698,659.88575 L 1497.9698,593.94899"
           style="fill:#000000;fill-opacity:0.16000001;fill-rule:evenodd;stroke:#000000;stroke-width:4;stroke-linecap:butt;stroke-linejoin:miter;stroke-miterlimit:4;stroke-dasharray:none;stroke-opacity:1"
           id="path1738" />
        <path
           d="M 201,1056 L 1498,1056"
           style="color:#808080;fill:none;stroke:#000000;stroke-width:4;stroke-opacity:1"
           id="path28" />
        <g
           style="color:#000000;fill:none;stroke:currentColor;stroke-width:1"
           id="g32">
          <path
             d="M 201,1056 L 237,1056 M 1498,1056 L 1462,1056"
             id="path34" />
          <g
             transform="translate(168,1074)"
             style="font-size:48px;text-anchor:end;fill:#000000;stroke:none;font-family:Times New Roman"
             id="g36">
            <text
               id="text38">
              <tspan
                 id="tspan40">0</tspan>
            </text>
          </g>
        </g>
        <g
           style="color:#808080;fill:none;stroke:currentColor;stroke-width:4"
           id="g44">
          <path
             d="M 201,990 L 1498,990"
             id="path46" />
        </g>
        <g
           transform="translate(168,1008)"
           style="font-size:48px;text-anchor:end;color:#000000;fill:#000000;stroke:none;stroke-width:1;font-family:Times New Roman"
           id="g54">
          <text
             id="text56">
            <tspan
               id="tspan58">1</tspan>
          </text>
        </g>
        <g
           style="color:#808080;fill:none;stroke:currentColor;stroke-width:4"
           id="g62">
          <path
             d="M 201,924 L 1498,924"
             id="path64" />
        </g>
        <g
           transform="translate(168,942)"
           style="font-size:48px;text-anchor:end;color:#000000;fill:#000000;stroke:none;stroke-width:1;font-family:Times New Roman"
           id="g72">
          <text
             id="text74">
            <tspan
               id="tspan76">2</tspan>
          </text>
        </g>
        <g
           style="color:#808080;fill:none;stroke:currentColor;stroke-width:4"
           id="g80">
          <path
             d="M 201,858 L 1498,858"
             id="path82" />
        </g>
        <g
           transform="translate(168,876)"
           style="font-size:48px;text-anchor:end;color:#000000;fill:#000000;stroke:none;stroke-width:1;font-family:Times New Roman"
           id="g90">
          <text
             id="text92">
            <tspan
               id="tspan94">3</tspan>
          </text>
        </g>
        <g
           style="color:#808080;fill:none;stroke:currentColor;stroke-width:4"
           id="g98">
          <path
             d="M 201,792 L 1498,792"
             id="path100" />
        </g>
        <g
           transform="translate(168,810)"
           style="font-size:48px;text-anchor:end;color:#000000;fill:#000000;stroke:none;stroke-width:1;font-family:Times New Roman"
           id="g108">
          <text
             id="text110">
            <tspan
               id="tspan112">4</tspan>
          </text>
        </g>
        <g
           style="color:#808080;fill:none;stroke:currentColor;stroke-width:4"
           id="g116">
          <path
             d="M 201,726 L 1498,726"
             id="path118" />
        </g>
        <g
           transform="translate(168,744)"
           style="font-size:48px;text-anchor:end;color:#000000;fill:#000000;stroke:none;stroke-width:1;font-family:Times New Roman"
           id="g126">
          <text
             id="text128">
            <tspan
               id="tspan130">5</tspan>
          </text>
        </g>
        <g
           style="color:#808080;fill:none;stroke:currentColor;stroke-width:4"
           id="g134">
          <path
             d="M 201,660 L 1498,660"
             id="path136" />
        </g>
        <g
           transform="translate(168,678)"
           style="font-size:48px;text-anchor:end;color:#000000;fill:#000000;stroke:none;stroke-width:1;font-family:Times New Roman"
           id="g144">
          <text
             id="text146">
            <tspan
               id="tspan148">6</tspan>
          </text>
        </g>
        <path
           d="M 201,594 L 1498,594"
           style="color:#808080;fill:none;stroke:#000000;stroke-width:4;stroke-opacity:1"
           id="path154" />
        <g
           transform="translate(168,612)"
           style="font-size:48px;text-anchor:end;color:#000000;fill:#000000;stroke:none;stroke-width:1;font-family:Times New Roman"
           id="g162">
          <text
             id="text164">
            <tspan
               id="tspan166">7</tspan>
          </text>
        </g>
        <g
           style="color:#808080;fill:none;stroke:currentColor;stroke-width:4"
           id="g170">
          <path
             d="M 201,528 L 1498,528"
             id="path172" />
        </g>
        <g
           transform="translate(168,546)"
           style="font-size:48px;text-anchor:end;color:#000000;fill:#000000;stroke:none;stroke-width:1;font-family:Times New Roman"
           id="g180">
          <text
             id="text182">
            <tspan
               id="tspan184">8</tspan>
          </text>
        </g>
        <g
           style="color:#808080;fill:none;stroke:currentColor;stroke-width:4"
           id="g188">
          <path
             d="M 201,462 L 1498,462"
             id="path190" />
        </g>
        <g
           transform="translate(168,480)"
           style="font-size:48px;text-anchor:end;color:#000000;fill:#000000;stroke:none;stroke-width:1;font-family:Times New Roman"
           id="g198">
          <text
             id="text200">
            <tspan
               id="tspan202">9</tspan>
          </text>
        </g>
        <g
           style="color:#808080;fill:none;stroke:currentColor;stroke-width:4"
           id="g206">
          <path
             d="M 201,396 L 1498,396"
             id="path208" />
        </g>
        <g
           transform="translate(168,414)"
           style="font-size:48px;text-anchor:end;color:#000000;fill:#000000;stroke:none;stroke-width:1;font-family:Times New Roman"
           id="g216">
          <text
             id="text218">
            <tspan
               id="tspan220">10</tspan>
          </text>
        </g>
        <g
           style="color:#808080;fill:none;stroke:currentColor;stroke-width:4"
           id="g224">
          <path
             d="M 201,330 L 1498,330"
             id="path226" />
        </g>
        <g
           transform="translate(168,348)"
           style="font-size:48px;text-anchor:end;color:#000000;fill:#000000;stroke:none;stroke-width:1;font-family:Times New Roman"
           id="g234">
          <text
             id="text236">
            <tspan
               id="tspan238">11</tspan>
          </text>
        </g>
        <g
           style="color:#808080;fill:none;stroke:currentColor;stroke-width:4"
           id="g242">
          <path
             d="M 201,264 L 1498,264"
             id="path244" />
        </g>
        <g
           transform="translate(168,282)"
           style="font-size:48px;text-anchor:end;color:#000000;fill:#000000;stroke:none;stroke-width:1;font-family:Times New Roman"
           id="g252">
          <text
             id="text254">
            <tspan
               id="tspan256">12</tspan>
          </text>
        </g>
        <g
           style="color:#808080;fill:none;stroke:currentColor;stroke-width:4"
           id="g260">
          <path
             d="M 201,198 L 1498,198"
             id="path262" />
        </g>
        <g
           transform="translate(168,216)"
           style="font-size:48px;text-anchor:end;color:#000000;fill:#000000;stroke:none;stroke-width:1;font-family:Times New Roman"
           id="g270">
          <text
             id="text272">
            <tspan
               id="tspan274">13</tspan>
          </text>
        </g>
        <g
           style="color:#808080;fill:none;stroke:currentColor;stroke-width:4"
           id="g278">
          <path
             d="M 201,132 L 1498,132"
             id="path280" />
        </g>
        <g
           transform="translate(168,150)"
           style="font-size:48px;text-anchor:end;color:#000000;fill:#000000;stroke:none;stroke-width:1;font-family:Times New Roman"
           id="g288">
          <text
             id="text290">
            <tspan
               id="tspan292">14</tspan>
          </text>
        </g>
        <g
           transform="translate(168,84)"
           style="font-size:48px;text-anchor:end;color:#000000;fill:#000000;stroke:none;stroke-width:1;font-family:Times New Roman"
           id="g306">
          <text
             id="text308">
            <tspan
               id="tspan310">15</tspan>
          </text>
        </g>
        <path
           d="M 201,1056 L 201,1020"
           style="color:#000000;fill:none;stroke:currentColor;stroke-width:4;stroke-linecap:square;stroke-miterlimit:4;stroke-dasharray:none"
           id="path312" />
        <path
           d="M 242,1056 L 242,1038 M 282,1056 L 282,1038 M 323,1056 L 323,1038 M 363,1056 L 363,1038 M 404,1056 L 404,1038 M 444,1056 L 444,1038 M 485,1056 L 485,1038 M 525,1056 L 525,1038 M 566,1056 L 566,1038 M 606,1056 L 606,1038 M 647,1056 L 647,1038 M 687,1056 L 687,1038 M 728,1056 L 728,1038 M 768,1056 L 768,1038 M 809,1056 L 809,1038 M 850,1056 L 850,1038 M 890,1056 L 890,1038 M 931,1056 L 931,1038 M 971,1056 L 971,1038 M 1012,1056 L 1012,1038 M 1052,1056 L 1052,1038 M 1093,1056 L 1093,1038 M 1133,1056 L 1133,1038 M 1174,1056 L 1174,1038 M 1214,1056 L 1214,1038 M 1255,1056 L 1255,1038 M 1295,1056 L 1295,1038 M 1336,1056 L 1336,1038 M 1376,1056 L 1376,1038 M 1417,1056 L 1417,1038 M 1457,1056 L 1457,1038 M 1498,1056 L 1498,1020"
           style="color:#000000;fill:none;stroke:currentColor;stroke-width:4;stroke-linecap:square;stroke-miterlimit:4;stroke-dasharray:none"
           id="path320" />
        <g
           style="color:#808080;fill:none;stroke:currentColor;stroke-width:4"
           id="g296">
          <path
             d="M 201,66 L 1498,66"
             id="path298" />
        </g>
        <path
           d="M 200.92988,593.94899 L 241.90993,593.94899 L 241.90993,461.93366 L 281.89738,461.93366 L 281.89738,329.91834 L 322.87744,329.91834 L 322.87744,263.98158 L 362.86489,263.98158 L 362.86489,197.903 L 403.98674,197.903 L 403.98674,131.9663 L 484.95425,131.9663 L 484.95425,65.8877 L 605.90921,65.8877 L 605.90921,131.9663 L 687.01852,131.9663 L 687.01852,197.903 L 727.85677,197.903 L 727.85677,263.98158 L 767.98603,263.98158 L 767.98603,395.8551 L 808.96608,395.8551 L 808.96608,461.93366 L 849.94613,461.93366 L 849.94613,593.94899 L 889.93359,593.94899 L 889.93359,659.88575 L 930.91364,659.88575 L 930.91364,725.96431 L 970.9011,725.96431 L 970.9011,857.83783 L 1011.8812,857.83783 L 1011.8812,923.9164 L 1051.8686,923.9164 L 1051.8686,989.85316 L 1092.9905,989.85316 L 1092.9905,1055.9317 L 1254.9255,1055.9317 L 1254.9255,989.85316 L 1335.893,989.85316 L 1335.893,923.9164 L 1375.8804,923.9164 L 1375.8804,857.83783 L 1416.8605,857.83783 L 1416.8605,725.96431 L 1456.9897,725.96431 L 1456.9897,659.88575 L 1497.9698,659.88575 L 1497.9698,593.94899"
           style="fill:none;fill-opacity:1;fill-rule:evenodd;stroke:#000000;stroke-width:4;stroke-linecap:butt;stroke-linejoin:miter;stroke-miterlimit:4;stroke-dasharray:none;stroke-opacity:1"
           id="path7937" />
        <path
           d="M 201,561 C 236.92714,475.48875 272.12014,389.49109 312.81638,306.27543 C 341.96851,246.15543 373.59925,186.18163 415,135 C 445.98607,96.964426 488.63568,58.670426 541,67 C 586.04281,76.921506 621.318,115.35659 649,152 C 695.24099,216.53138 730.28757,288.09457 763,360 C 798.30475,435.89571 829.52306,513.83306 862,591 C 896.97368,674.25803 932.01404,757.73868 972,838 C 1006.9285,904.72212 1043.0714,974.17874 1099,1024 C 1125.0892,1046.4566 1158.608,1061.9618 1194,1054 C 1237.5001,1042.429 1271.7364,1004.5315 1298,969 C 1347.6533,900.39587 1383.5808,823.36591 1419,746 C 1446.1312,684.91731 1472.5372,622.93238 1498,561"
           style="color:#ff0000;fill:none;stroke:currentColor;stroke-width:4"
           id="path332" />
      </g>
    </g>
  </g>
</svg>
