<?xml version="1.0" encoding="utf-8"?>
<!-- Generator: Adobe Illustrator 13.0.0, SVG Export Plug-In . SVG Version: 6.00 Build 14948)  -->
<!DOCTYPE svg PUBLIC "-//W3C//DTD SVG 1.1//EN" "http://www.w3.org/Graphics/SVG/1.1/DTD/svg11.dtd">
<svg version="1.1" id="Layer_1" xmlns="http://www.w3.org/2000/svg" xmlns:xlink="http://www.w3.org/1999/xlink" x="0px" y="0px"
	 width="400px" height="400px" viewBox="0 0 400 400" enable-background="new 0 0 400 400" xml:space="preserve">
<rect fill="#FFFFFF" width="400" height="400"/>
<path fill="#00AEEF" d="M330.248,144.093c33.588,19.571,58.1,53.892,63.646,95.401c9.537,71.352-40.576,136.922-111.928,146.459
	c-29.826,3.986-58.65-2.455-82.789-16.51"/>
<path fill="#EC008C" d="M199.176,369.439c-14.242,8.166-30.276,13.758-47.555,16.068C80.271,395.045,14.699,344.932,5.164,273.584
	c-7.151-53.51,19.247-103.776,62.995-129.585c0.456-0.27,0.915-0.536,1.375-0.8"/>
<path fill="#FFF200" d="M69.535,143.206c0.137-64.194,47.692-120.011,113.091-128.751c71.349-9.537,136.919,40.576,146.456,111.926
	c0.797,5.951,1.178,11.864,1.166,17.706"/>
<path fill="#00A651" d="M198.508,144.443c14.58-8.604,31.094-14.489,48.932-16.874c29.838-3.989,58.666,2.457,82.809,16.523v-0.006
	c-0.102,47.232-25.875,89.929-65.531,112.677"/>
<path fill="#ED1C24" d="M134.347,256.314c-33.583-19.568-58.1-53.893-63.649-95.401c-0.794-5.952-1.172-11.865-1.162-17.707
	l-0.001-0.007c14.242-8.169,30.276-13.765,47.555-16.074c29.836-3.987,58.659,2.454,82.802,16.516"/>
<path fill="#2E3192" d="M264.709,256.76c-0.096,47.236-25.867,89.932-65.533,112.68l0.002,0.004
	c-33.593-19.568-58.117-53.896-63.667-95.414c-0.796-5.955-1.174-11.867-1.164-17.711"/>
<path fill="#363639" d="M264.717,256.764c-14.248,8.168-30.279,13.766-47.559,16.076c-29.838,3.984-58.669-2.455-82.812-16.525
	v0.004c0.101-46.682,25.278-88.937,64.161-111.875l1.383-0.803c33.59,19.57,58.111,53.895,63.66,95.408
	c0.793,5.955,1.174,11.867,1.158,17.711L264.717,256.764z"/>
<g>
	<g>
		<path d="M197.539,93.029V76.503l-12.754-23.832h10.479l4.071,9.7c1.258,2.935,2.156,5.09,3.114,7.725h0.119
			c0.898-2.515,1.857-4.85,3.055-7.725l4.072-9.7h10.238l-13.293,23.532v16.826H197.539z"/>
	</g>
	<g>
		<path d="M97.101,302.891c-0.18-4.852-0.359-10.66-0.359-16.588h-0.119c-1.316,5.15-2.994,10.898-4.551,15.629l-4.91,15.748h-7.125
			l-4.312-15.568c-1.317-4.791-2.635-10.479-3.652-15.809h-0.12c-0.18,5.449-0.419,11.678-0.658,16.705l-0.778,15.33h-8.443
			l2.575-40.357h12.154l3.953,13.531c1.316,4.611,2.514,9.641,3.412,14.371h0.24c1.078-4.67,2.455-9.939,3.832-14.49l4.252-13.412
			h11.975l2.156,40.357h-8.861L97.101,302.891z"/>
	</g>
	<g>
		<path d="M344.645,306.506c-1.617,0.779-5.449,1.736-10.301,1.736c-13.949,0-21.137-8.742-21.137-20.297
			c0-13.773,9.82-21.379,22.035-21.379c4.73,0,8.324,0.959,9.941,1.797l-1.918,7.186c-1.797-0.779-4.371-1.498-7.664-1.498
			c-7.184,0-12.813,4.371-12.813,13.414c0,8.084,4.789,13.172,12.875,13.172c2.813,0,5.805-0.537,7.664-1.316L344.645,306.506z"/>
	</g>
</g>
</svg>
